<?xml version="1.0" standalone="no"?>
<!DOCTYPE svg PUBLIC "-//W3C//DTD SVG 1.1//EN" "http://www.w3.org/Graphics/SVG/1.1/DTD/svg11.dtd" >
<svg>
<metadata>
Created by FontForge 20090914 at Sat Jul 31 09:14:50 2021
 By www-data
Copyright 2014 The Caveat Project Authors (https://github.com/googlefonts/caveat)
</metadata>
<defs>
<font id="Caveat-SemiBold" horiz-adv-x="0" >
  <font-face 
    font-family="Caveat SemiBold"
    font-weight="600"
    font-stretch="normal"
    units-per-em="1000"
    panose-1="0 0 0 0 0 0 0 0 0 0"
    ascent="800"
    descent="-200"
    x-height="355.501"
    cap-height="691.997"
    bbox="-112.627 -310 1241.91 964.385"
    underline-thickness="50"
    underline-position="-50"
    unicode-range="U+000D-U+FB04"
  />
<missing-glyph horiz-adv-x="603" 
d="M392 960h519l-455 -1250h-519zM375 -228l14 461l-318 -461h304zM393 341l14 469l-343 -946zM785 807l-330 -478l-14 -470zM777 897h-304l-14 -460z" />
    <glyph glyph-name="f_f" unicode="ff" horiz-adv-x="500" 
d="M341 -114c-4 -2.66699 -11.6572 -1.17383 -22.9902 4.49316s-21.666 13.834 -30.999 24.501c-4.66699 5.33301 -7.66699 11 -9 17s-1 17.333 1 34c2.66699 7.33301 4.16699 14.833 4.5 22.5s0.5 12.834 0.5 15.501c0 4 1.16699 13.333 3.5 28l7.5 46.5
c2.66699 16.333 5 28.833 7 37.5c0 0.666992 0.333008 2.33398 1 5.00098s1.33398 5 2.00098 7l5.5 24c2.33301 10 4.5 22.333 6.5 37c3.33301 12.667 6.66602 23.667 9.99902 33s5.66602 18.333 6.99902 27c-8 0 -18.5 -0.666992 -31.5 -2s-26.5 -3.16602 -40.5 -5.49902
l-35.5 -6c-9.66699 -1.66699 -14.834 -3.16699 -15.501 -4.5c-2.66699 -1.33301 -5.83398 -6.16602 -9.50098 -14.499s-7.33398 -19.166 -11.001 -32.499s-6.83398 -28 -9.50098 -44c-8 -30.667 -12.333 -62.167 -13 -94.5s1 -56.166 5 -71.499c4 -16 3.16699 -30 -2.5 -42
s-12.5 -19.667 -20.5 -23c-12.667 -0.666992 -24.834 9.83301 -36.501 31.5s-17.5 48.834 -17.5 81.501c-2.66699 27.333 -0.333984 62.166 6.99902 104.499s18.333 89.833 33 142.5c5.33301 18 12.666 39.333 21.999 64s19.166 49 29.499 73s19.5 44.167 27.5 60.5
s13 25.5 15 27.5c4 -1.33301 6 1.66699 6 9c0 1.33301 2.66699 6.33301 8 15s10.333 18 15 28c8.66699 12.667 19.5 25.5 32.5 38.5s26.5 24.833 40.5 35.5s26.333 18 37 22c10 4 20 6 30 6c16.667 0 32.834 -6 48.501 -18s26.834 -26.667 33.501 -44
c11.333 13.333 24.5 25.833 39.5 37.5l35.5 27.5c14.667 7.33301 26.5 12.333 35.5 15s20.5 4 34.5 4c12.667 0 23.667 -3.16699 33 -9.5s18.333 -13.5 27 -21.5c9.33301 -10 14.666 -16.667 15.999 -20s2 -9.66602 2 -18.999
c-1.33301 -6.66699 -4.83301 -15.834 -10.5 -27.501s-12.334 -23.5 -20.001 -35.5s-14.834 -22.333 -21.501 -31s-11.334 -13 -14.001 -13c-15.333 -4.66699 -23 3.33301 -23 24c0 4.66699 -2 9.16699 -6 13.5l-6 6.5c0 2 0.5 5.66699 1.5 11s2.83301 10.333 5.5 15
c3.33301 6.66699 4.16602 12.834 2.49902 18.501s-6.16699 7.5 -13.5 5.5c-2 -1.33301 -6.33301 -4.5 -13 -9.5s-13.667 -10.667 -21 -17s-13.833 -12.333 -19.5 -18s-8.5 -9.5 -8.5 -11.5l-4 -8.5c-2.66699 -5.66699 -7.66699 -12.834 -15 -21.501
c-4.66699 -6.66699 -8.83398 -13.167 -12.501 -19.5s-5.5 -10.166 -5.5 -11.499c0 -2.66699 -0.166992 -5.5 -0.5 -8.5s-2.16602 -4.5 -5.49902 -4.5l-3 -9c-2 -6 -5.66699 -13.667 -11 -23c-2.66699 -6.66699 -6 -13.5 -10 -20.5s-7.33301 -11.833 -10 -14.5h1l-4.5 -11.5
l-9.5 -24c-3.33301 -8.33301 -5 -12.833 -5 -13.5c0 -2.66699 4.33301 -4 13 -4s19.167 1.16699 31.5 3.5s23.833 4.83301 34.5 7.5c9.33301 2.66699 15.666 4 18.999 4s10 -1.33301 20 -4c5.33301 -4 9.83301 -10.167 13.5 -18.5s6.33398 -16.5 8.00098 -24.5
s1.5 -13.333 -0.5 -16c-0.666992 -2.66699 -8 -6.33398 -22 -11.001s-28 -8.33398 -42 -11.001l-41 -9l-41 -9c-12 -2.66699 -18 -5 -18 -7c-2.66699 0 -5 -1.5 -7 -4.5s-3 -5.5 -3 -7.5c0 -9.33301 -1.33301 -16.333 -4 -21c-1.33301 -4 -3.66602 -11.5 -6.99902 -22.5
s-6.83301 -23.333 -10.5 -37s-6.66699 -26 -9 -37s-3.5 -18.5 -3.5 -22.5c-4 -4.66699 -6.33301 -10.5 -7 -17.5s-1 -13.167 -1 -18.5c-2.66699 -5.33301 -4.33398 -10.166 -5.00098 -14.499s-1 -7.83301 -1 -10.5v-4c0 -2 -0.333008 -4 -1 -6
c-0.666992 -6.66699 -1.5 -15.5 -2.5 -26.5s-1.5 -21.833 -1.5 -32.5l-3 -29c-0.666992 -8.66699 -1.66699 -17.5 -3 -26.5s-3.66602 -15.167 -6.99902 -18.5zM251.01 307.993c2.66699 0 9.66504 0.829102 20.998 2.49609s24.833 3.83398 40.5 6.50098s31.167 5 46.5 7l6 11
l25 68.5c6.66699 17.667 13.334 33.5 20.001 47.5l2 9c0 1.33301 1.5 5.33301 4.5 12s4.5 13.334 4.5 20.001c4.66699 22.667 8 39.334 10 50.001s1.16699 17.834 -2.5 21.501s-11.5 5.5 -23.5 5.5c-3.33301 0.666992 -8.5 -0.333008 -15.5 -3
s-13.333 -5.83398 -19 -9.50098s-8.5 -7.16699 -8.5 -10.5v-4c-2 0.666992 -7.16699 -3.83301 -15.5 -13.5s-17.833 -21.667 -28.5 -36s-20 -28.166 -28 -41.499c-5.33301 -11.333 -11.666 -26.333 -18.999 -45l-28 -72l-8 -24z" />
    <glyph glyph-name="f_i" unicode="fi" horiz-adv-x="459" 
d="M132 -116c-5.33301 -0.666992 -12.1611 1.66602 -20.4941 6.99902s-16.833 12.666 -25.5 21.999c-5.33301 5.33301 -9.33301 11.333 -12 18s-3.66699 15 -3 25c0.666992 7.33301 2 16.666 4 27.999s3 18.333 3 21c0 5.33301 1.16699 15.5 3.5 30.5l7.5 46.5
c2.66699 16 5 28 7 36c0 2.66699 0.333008 4.83398 1 6.50098s1 2.83398 1 3.50098c2.66699 9.33301 5.16699 19 7.5 29s4.16602 20.333 5.49902 31c6 22.667 10.333 41 13 55s5.33398 25.667 8.00098 35c1.33301 8 4.66602 14.667 9.99902 20c1.33301 4 3.5 9 6.5 15
s6.16699 12 9.5 18c13.333 37.333 24.333 67 33 89s17.334 41.333 26.001 58l6 14.5c2 5 4 8.83301 6 11.5c5.33301 14.667 13.666 30.334 24.999 47.001s24.5 33.167 39.5 49.5s30.5 31.5 46.5 45.5c14 6.66699 27 12.334 39 17.001s24.667 7 38 7s24.166 -2.5 32.499 -7.5
s16.5 -11.167 24.5 -18.5c8.66699 -8.66699 14.667 -16.5 18 -23.5s5 -13.833 5 -20.5c-2 -9.33301 -6.16699 -20.166 -12.5 -32.499s-13.333 -24.166 -21 -35.499s-14.834 -20.833 -21.501 -28.5s-11.334 -11.5 -14.001 -11.5
c-7.33301 -0.666992 -12.166 1.83301 -14.499 7.5s-4.5 12.5 -6.5 20.5c-0.666992 3.33301 -2 6.66602 -4 9.99902s-3.66699 5.66602 -5 6.99902c0 2.66699 1.16699 7.66699 3.5 15s3.83301 14 4.5 20c1.33301 4.66699 1 9 -1 13s-5.66699 4.33301 -11 1
c-4.66699 -2.66699 -10.167 -6.33398 -16.5 -11.001s-12.666 -9.83398 -18.999 -15.501s-12.333 -11.834 -18 -18.501s-10.834 -13.334 -15.501 -20.001c-1.33301 -2.66699 -3.33301 -6.16699 -6 -10.5l-9 -14.5c-4.66699 -6 -8.16699 -11.5 -10.5 -16.5
s-3.83301 -8.83301 -4.5 -11.5c-0.666992 -3.33301 -1.33398 -6 -2.00098 -8s-2 -3 -4 -3c0.666992 0.666992 -0.333008 -2.33301 -3 -9s-6.66699 -14.667 -12 -24c-2.66699 -6.66699 -5.66699 -13.167 -9 -19.5s-6.66602 -11.166 -9.99902 -14.499h1l-4.5 -12l-9.5 -24.5
c-3.33301 -8.33301 -5 -13.166 -5 -14.499c0 -2.66699 5.5 -3.33398 16.5 -2.00098s23.5 3.33301 37.5 6s25.333 4.33398 34 5.00098c6.66699 1.33301 12 1.33301 16 0s8.66699 -3.33301 14 -6c6.66699 -4.66699 11.167 -11.834 13.5 -21.501s3.16602 -18.167 2.49902 -25.5
c0 -4.66699 -5.16699 -9 -15.5 -13s-24.833 -8.33301 -43.5 -13l-45 -9.5l-35.5 -7.5c-9.66699 -2 -16.167 -4.66699 -19.5 -8c-4 -1.33301 -7.16699 -3.83301 -9.5 -7.5s-3.83301 -7.5 -4.5 -11.5c0 -3.33301 -0.333008 -6.16602 -1 -8.49902
s-1.33398 -4.16602 -2.00098 -5.49902c-0.666992 -3.33301 -2.33398 -9.5 -5.00098 -18.5s-5.33398 -19.333 -8.00098 -31l-7.5 -34c-2.33301 -11 -4.16602 -20.167 -5.49902 -27.5c-2 -6 -3.33301 -12 -4 -18s-1 -10.667 -1 -14c-2.66699 -4 -5.16699 -11 -7.5 -21
s-3.83301 -17.667 -4.5 -23v-4.5v-5.5c0 -4 -0.833008 -12.333 -2.5 -25s-2.5 -25.667 -2.5 -39l-3 -29c-0.666992 -9.33301 -1.66699 -17.5 -3 -24.5s-4.33301 -11.167 -9 -12.5zM430.005 14c-10.667 0.666992 -20.167 6.66895 -28.5 18.002s-12.833 25 -13.5 41
c0 11.333 1.16699 22.833 3.5 34.5s5.5 25.834 9.5 42.501c4 12 8.66699 26.833 14 44.5l16 53.5l14 47c4 13.333 6.33301 21 7 23c2 4 5 6.16699 9 6.5s8.33301 -0.166992 13 -1.5c6 -2 12 -6.16699 18 -12.5s10.833 -14.833 14.5 -25.5s4.83398 -23.334 3.50098 -38.001
c-1.33301 -8 -2.66602 -14.833 -3.99902 -20.5s-3.16602 -11.834 -5.49902 -18.501l-9 -27c-3.66699 -11.333 -7.83398 -26.5 -12.501 -45.5s-10.334 -43.5 -17.001 -73.5c-3.33301 -18.667 -7.33301 -31.334 -12 -38.001s-11.334 -10 -20.001 -10zM477.005 448.002
c0 6.66699 2.16797 16.332 6.50098 28.999s10.333 24.334 18 35.001s15.834 16 24.501 16c3.33301 0 6.66602 -0.333008 9.99902 -1s7.66602 -2 12.999 -4c11.333 -7.33301 20.333 -18.333 27 -33s8.16699 -30 4.5 -46s-16.167 -30 -37.5 -42
c-2.66699 -2 -5.16699 -2.83301 -7.5 -2.5s-5.5 0.833008 -9.5 1.5c-9.33301 0.666992 -17.833 4 -25.5 10s-13.5 12.667 -17.5 20s-6 13 -6 17z" />
    <glyph glyph-name="f_l" unicode="fl" horiz-adv-x="460" 
d="M129 -116c-4 -2.66699 -11.6709 -0.334961 -23.0039 6.99805s-21.666 16.333 -30.999 27c-4.66699 5.33301 -7.66699 11 -9 17s-1 17.333 1 34c2.66699 7.33301 4.16699 14.333 4.5 21s0.5 11.334 0.5 14.001c0 4 1.16699 13.333 3.5 28l7.5 46.5
c2.66699 16.333 5 28.833 7 37.5c0 0.666992 0.333008 2.33398 1 5.00098s1.33398 5 2.00098 7l5.5 24c2.33301 10 4.5 22.333 6.5 37c5.33301 16.667 9.83301 33.167 13.5 49.5s5.5 27.5 5.5 33.5c0 12 4.66699 20.667 14 26c0.666992 3.33301 2.66699 8.5 6 15.5
s6.33301 12.833 9 17.5c13.333 38 24.333 68.167 33 90.5s17.667 41.833 27 58.5c4 11.333 8.5 23 13.5 35s10.167 21.333 15.5 28c3.33301 8.66699 11 19.834 23 33.501s24.667 27 38 40s24 22.833 32 29.5c14.667 7.33301 28 13.166 40 17.499s25 6.5 39 6.5
c12.667 0 23.667 -3.16699 33 -9.5s18.333 -13.5 27 -21.5c9.33301 -10 14.666 -16.667 15.999 -20s2 -9.66602 2 -18.999c-1.33301 -6.66699 -4.83301 -15.834 -10.5 -27.501s-12.167 -23.5 -19.5 -35.5s-14.166 -22.333 -20.499 -31s-10.833 -13 -13.5 -13
c-15.333 -4.66699 -23 3.33301 -23 24c0 4.66699 -2 9.16699 -6 13.5l-6 6.5c0 2 0.5 5.5 1.5 10.5s2.83301 9.83301 5.5 14.5c3.33301 6.66699 4.16602 13.167 2.49902 19.5s-6.16699 8.5 -13.5 6.5c-2 -1.33301 -6.33301 -4.66602 -13 -9.99902l-21.5 -17.5
c-7.66699 -6.33301 -14.167 -12.333 -19.5 -18s-8 -9.5 -8 -11.5l-4 -8.5c-2.66699 -5.66699 -7.66699 -12.834 -15 -21.501c-4.66699 -6.66699 -8.83398 -13.167 -12.501 -19.5s-5.5 -10.166 -5.5 -11.499c0 -2.66699 -0.166992 -5.5 -0.5 -8.5
s-2.16602 -4.5 -5.49902 -4.5l-3 -9c-2 -6 -5.66699 -13.667 -11 -23c-2.66699 -6.66699 -6 -13.5 -10 -20.5s-7.33301 -11.833 -10 -14.5h1l-4.5 -11.5l-9.5 -24.5c-3.33301 -8.66699 -5 -13.667 -5 -15c0 -2.66699 4.16699 -4 12.5 -4s18.5 1.16699 30.5 3.5
s23.333 4.83301 34 7.5c9.33301 2.66699 15.666 4 18.999 4s10 -1.33301 20 -4c5.33301 -3.33301 9.83301 -9 13.5 -17s6.33398 -15.667 8.00098 -23s1.5 -12.333 -0.5 -15c-0.666992 -2.66699 -8 -6.33398 -22 -11.001s-28 -8.33398 -42 -11.001l-42 -9l-42 -9
c-12 -2.66699 -18 -5 -18 -7c-2 0 -4 -1.5 -6 -4.5s-3 -5.5 -3 -7.5c0 -9.33301 -1.33301 -16.333 -4 -21c-1.33301 -4 -3.66602 -12.333 -6.99902 -25s-6.66602 -26.334 -9.99902 -41.001s-6.16602 -28.167 -8.49902 -40.5s-3.5 -20.5 -3.5 -24.5
c-4 -4.66699 -6.33301 -10.5 -7 -17.5s-1 -13.167 -1 -18.5c-2.66699 -5.33301 -4.33398 -10.166 -5.00098 -14.499s-1 -7.83301 -1 -10.5v-4c0 -2 -0.333008 -4 -1 -6c-0.666992 -6.66699 -1.5 -15.5 -2.5 -26.5s-1.5 -21.833 -1.5 -32.5l-3 -29
c-0.666992 -8.66699 -1.66699 -16.167 -3 -22.5s-3.66602 -11.166 -6.99902 -14.499zM393.996 -23.001c-9.33301 3.33301 -16.5039 8.49707 -21.5039 15.4971s-7.83301 17.167 -8.5 30.5c0 8.66699 0.833008 20.834 2.5 36.501s4.16699 32.167 7.5 49.5
c0 1.33301 0.166992 2.83301 0.5 4.5s0.5 2.83398 0.5 3.50098c0.666992 2.66699 1.33398 6.83398 2.00098 12.501s1.5 10.167 2.5 13.5s1.5 3.33301 1.5 0l6 27l10 36.5l9 33c2.66699 9.66699 4.33398 15.167 5.00098 16.5l4 11.5l8 22.5
c10.667 32.667 20.834 60 30.501 82s18.167 38 25.5 48c0.666992 2 1.66699 4.5 3 7.5s2.33301 5.5 3 7.5c0 6.66699 0.5 11.5 1.5 14.5s2.5 6.16699 4.5 9.5c1.33301 2.66699 3.33301 6.16699 6 10.5s5.66699 9.83301 9 16.5l4 11c4 8.66699 9 18.667 15 30l13 25
c2 6 5.83301 13.167 11.5 21.5s11.5 13.833 17.5 16.5l-1 1c3.33301 6 9 10.333 17 13s15 4 21 4c9.33301 0 15.833 -2.16699 19.5 -6.5s5.5 -11.166 5.5 -20.499c0 -10 -0.166992 -17.167 -0.5 -21.5s-2.83301 -9.16602 -7.5 -14.499h1c1.33301 1.33301 1 -0.5 -1 -5.5
s-3.66699 -8.5 -5 -10.5l-4.5 -11c-1.66699 -4 -3.5 -7 -5.5 -9c-2 -2.66699 -7.16699 -11.667 -15.5 -27l-28 -54l-29 -60l-20.5 -45l-4 -15c-1.33301 -2.66699 -2 -4.66699 -2 -6l-6 -14c-2 -4.66699 -4 -8.66699 -6 -12l-17 -61l-4 -21l-9 -22l-6 -19
c-1.33301 -4 -2.33301 -8.16699 -3 -12.5s-2 -7.5 -4 -9.5c0 -0.666992 -0.166992 -1.5 -0.5 -2.5s-0.5 -1.83301 -0.5 -2.5c-2.66699 -10.667 -6.66699 -25.667 -12 -45s-8.66602 -40.333 -9.99902 -63c0 -0.666992 -0.166992 -1.33398 -0.5 -2.00098
s-0.5 -1.33398 -0.5 -2.00098c-2 -14 -5.83301 -24.333 -11.5 -31s-13.167 -8.66699 -22.5 -6z" />
    <glyph glyph-name="f_f_i" unicode="ffi" horiz-adv-x="654" 
d="M337 -115c-5.33301 -0.666992 -12.334 1.32715 -21.001 5.99414s-17.334 11.334 -26.001 20.001c-6 6.66699 -9.83301 14 -11.5 22s-1.16699 20.333 1.5 37c1.33301 7.33301 2.33301 14.166 3 20.499s1 10.833 1 13.5c0 10 1 21 3 33s4.5 24.5 7.5 37.5l8.5 38.5
c1.33301 3.33301 2.33301 6.66602 3 9.99902l2 10l4.5 24.5c1.66699 9 3.16699 19.5 4.5 31.5c3.33301 12.667 6.66602 23.667 9.99902 33s5.66602 18.333 6.99902 27c-8 0 -18.5 -0.666992 -31.5 -2s-26.333 -3.16602 -40 -5.49902l-35 -6
c-9.66699 -1.66699 -15.167 -3.16699 -16.5 -4.5c-2.66699 -1.33301 -6 -7.16602 -10 -17.499s-8 -23 -12 -38s-7.66699 -31.167 -11 -48.5c-5.33301 -28 -8.33301 -52.667 -9 -74s-0.166992 -39.333 1.5 -54s2.83398 -26.334 3.50098 -35.001
c1.33301 -14 -0.5 -25.833 -5.5 -35.5s-11.167 -15.834 -18.5 -18.501c-14.667 -0.666992 -27.5 11 -38.5 35s-16.5 54.333 -16.5 91c-0.666992 27.333 2.66602 60.833 9.99902 100.5s17.666 83.834 30.999 132.501c5.33301 18 12.666 39.333 21.999 64s19.166 49 29.499 73
s19.5 44.167 27.5 60.5s13 25.5 15 27.5c1.33301 0 2.16602 0.333008 2.49902 1s0.5 1.33398 0.5 2.00098c1.33301 0.666992 2.16602 1.33398 2.49902 2.00098l5.5 10.5c3.33301 6.33301 9.33301 18.5 18 36.5c15.333 21.333 33.666 41 54.999 59s41 30.333 59 37
c10 4 18.667 6 26 6c16.667 0 32.834 -6 48.501 -18s26.834 -26.667 33.501 -44c11.333 13.333 24.5 25.833 39.5 37.5l35.5 27.5c14 7.33301 25.5 12.333 34.5 15s20.167 4 33.5 4s24 -2.5 32 -7.5s16.333 -11.5 25 -19.5c11.333 -12 18 -19.833 20 -23.5
s3 -10.167 3 -19.5c-2 -10.667 -6.33301 -22 -13 -34s-14 -23.667 -22 -35s-15.5 -20.666 -22.5 -27.999s-11.5 -11 -13.5 -11c-6.66699 -0.666992 -11.167 1.5 -13.5 6.5s-3.83301 11.167 -4.5 18.5c-1.33301 4.66699 -3 9 -5 13s-4.33301 6.33301 -7 7
c0 4 1.33301 10 4 18s4.33398 14 5.00098 18c1.33301 4.66699 1 8.5 -1 11.5s-5.66699 4.16699 -11 3.5c-6 -4 -12.667 -9 -20 -15s-14.166 -12.167 -20.499 -18.5l-16.5 -17c-4.66699 -5 -7 -8.16699 -7 -9.5l-7.5 -12.5c-3 -5 -6.83301 -10.833 -11.5 -17.5l-9 -14.5
c-2.66699 -4.33301 -4.33398 -7.5 -5.00098 -9.5c-2.66699 -6 -4.16699 -10.333 -4.5 -13s-1.83301 -4 -4.5 -4c0 0.666992 -1.16699 -2.5 -3.5 -9.5s-6.16602 -15.167 -11.499 -24.5c-2.66699 -6.66699 -5.66699 -13 -9 -19s-6.66602 -10.667 -9.99902 -14h1l-4.5 -11.5
l-9.5 -23.5c-3.33301 -8 -5 -12.667 -5 -14c0 -2.66699 3.33301 -4 10 -4s15.167 1 25.5 3l30 6c9.66699 2 17.834 3.33301 24.501 4c6 0.666992 10.833 0.5 14.5 -0.5s7.83398 -2.5 12.501 -4.5c8 -5.33301 13.833 -13.166 17.5 -23.499s5.16699 -19.166 4.5 -26.499
c0 -2.66699 -5.66699 -7.5 -17 -14.5s-28.333 -11.5 -51 -13.5c-15.333 -4 -29.666 -7.33301 -42.999 -10s-24.666 -5.16699 -33.999 -7.5s-15.333 -4.83301 -18 -7.5c-3.33301 -1.33301 -6 -3.66602 -8 -6.99902s-3.33301 -7.33301 -4 -12c0 -6 -1 -10.667 -3 -14l-9 -28
c-3.33301 -10.667 -6.66602 -22 -9.99902 -34s-6.16602 -23.333 -8.49902 -34s-3.83301 -19.334 -4.5 -26.001c-2.66699 -4.66699 -4.33398 -10.334 -5.00098 -17.001s-1.66699 -12.667 -3 -18c-1.33301 -4.66699 -2.33301 -9 -3 -13s-1 -7.33301 -1 -10v-3.5
c0 -2.33301 -0.333008 -4.83301 -1 -7.5l-2.5 -25.5c-1 -10.333 -1.5 -21.166 -1.5 -32.499l-3 -29c-2.66699 -10.667 -4 -20.667 -4 -30s-3.33301 -14.666 -10 -15.999zM250.999 307.994c2.66699 0 9.66699 0.830078 21 2.49707s24.833 3.83398 40.5 6.50098
s31.167 5 46.5 7l6 11c10.667 31.333 19.5 55.333 26.5 72l18.5 44l2 9c0 1.33301 1.5 5.33301 4.5 12s4.5 13.334 4.5 20.001c4 22 7.16699 38.5 9.5 49.5s1.83301 18.333 -1.5 22s-11.333 5.5 -24 5.5c-3.33301 0 -8.5 -1.16699 -15.5 -3.5s-13.333 -5.33301 -19 -9
s-8.5 -7.16699 -8.5 -10.5v-4c-1.33301 0.666992 -6.33301 -3.83301 -15 -13.5s-18.5 -21.667 -29.5 -36s-20.167 -28.166 -27.5 -41.499c-6 -10.667 -12.5 -25.5 -19.5 -44.5l-27.5 -72.5l-8 -24zM644.999 22.9912c-6 0.666992 -13.4971 4.83105 -22.4971 12.498
s-13.833 14.167 -14.5 19.5c-2.66699 8 -6.33398 15 -11.001 21s-6.66699 13 -6 21c2 7.33301 4 16.5 6 27.5s4.5 22.833 7.5 35.5l9 39.5l9.5 41.5l11.5 55.5c2.33301 11 4.5 18 6.5 21s4.66699 4.83301 8 5.5c5.33301 1.33301 10.166 1 14.499 -1
s8.33301 -6.83301 12 -14.5s7.16699 -19.5 10.5 -35.5c6 -17.333 7.33301 -37.666 4 -60.999l-12 -85c-3.33301 -19.333 -6.83301 -36.666 -10.5 -51.999s-7.33398 -27.5 -11.001 -36.5s-7.5 -13.833 -11.5 -14.5zM732.002 383.988
c-4 -0.666992 -10.334 1.00195 -19.001 5.00195s-16.5 9.66699 -23.5 17s-11.167 15.666 -12.5 24.999c-1.33301 2.66699 -1.5 8.33398 -0.5 17.001s2.66699 17.167 5 25.5s4.5 13.166 6.5 14.499c2 2 4.66699 4.33301 8 7s7.33301 5 12 7s10 2.33301 16 1
c6 -9.33301 12.667 -18.166 20 -26.499s12.666 -18.166 15.999 -29.499c2 -8.66699 2.83301 -17.334 2.5 -26.001s-2.66602 -16.334 -6.99902 -23.001s-12.166 -11.334 -23.499 -14.001z" />
    <glyph glyph-name="f_f_l" unicode="ffl" horiz-adv-x="670" 
d="M341 -114c-4 -2.66699 -11.6572 -1.17383 -22.9902 4.49316s-21.666 13.834 -30.999 24.501c-4.66699 5.33301 -7.66699 11 -9 17s-1 17.333 1 34c2.66699 7.33301 4.16699 14.833 4.5 22.5s0.5 12.834 0.5 15.501c0 4 1.16699 13.333 3.5 28l7.5 46.5
c2.66699 16.333 5 28.833 7 37.5c0 0.666992 0.333008 2.33398 1 5.00098s1.33398 5 2.00098 7l5.5 24c2.33301 10 4.5 22.333 6.5 37c3.33301 12.667 6.66602 23.667 9.99902 33s5.66602 18.333 6.99902 27c-8 0 -18.5 -0.666992 -31.5 -2s-26.5 -3.16602 -40.5 -5.49902
l-35.5 -6c-9.66699 -1.66699 -14.834 -3.16699 -15.501 -4.5c-2.66699 -1.33301 -5.83398 -6.16602 -9.50098 -14.499s-7.33398 -19.166 -11.001 -32.499s-6.83398 -28 -9.50098 -44c-8 -30.667 -12.333 -62.167 -13 -94.5s1 -56.166 5 -71.499c4 -16 3.16699 -30 -2.5 -42
s-12.5 -19.667 -20.5 -23c-12.667 -0.666992 -24.834 9.83301 -36.501 31.5s-17.5 48.834 -17.5 81.501c-2.66699 27.333 -0.333984 62.166 6.99902 104.499s18.333 89.833 33 142.5c5.33301 18 12.666 39.333 21.999 64s19.166 49 29.499 73s19.5 44.167 27.5 60.5
s13 25.5 15 27.5c4 -1.33301 6 1.66699 6 9c0 1.33301 2.66699 6.33301 8 15s10.333 18 15 28c8.66699 12.667 19.5 25.5 32.5 38.5s26.5 24.833 40.5 35.5s26.333 18 37 22c10 4 20 6 30 6c16.667 0 32.834 -6 48.501 -18s26.834 -26.667 33.501 -44
c11.333 13.333 24.5 25.833 39.5 37.5l35.5 27.5c14.667 7.33301 26.5 12.333 35.5 15s20.5 4 34.5 4c12.667 0 23.667 -3.16699 33 -9.5s18.333 -13.5 27 -21.5c9.33301 -10 14.666 -16.667 15.999 -20s2 -9.66602 2 -18.999
c-1.33301 -6.66699 -4.83301 -15.834 -10.5 -27.501s-12.334 -23.5 -20.001 -35.5s-14.834 -22.333 -21.501 -31s-11.334 -13 -14.001 -13c-15.333 -4.66699 -23 3.33301 -23 24c0 4.66699 -2 9.16699 -6 13.5l-6 6.5c0 2 0.5 5.66699 1.5 11s2.83301 10.333 5.5 15
c3.33301 6.66699 4.16602 12.834 2.49902 18.501s-6.16699 7.5 -13.5 5.5c-2 -1.33301 -6.33301 -4.5 -13 -9.5s-13.667 -10.667 -21 -17s-13.833 -12.333 -19.5 -18s-8.5 -9.5 -8.5 -11.5l-4 -8.5c-2.66699 -5.66699 -7.66699 -12.834 -15 -21.501
c-4.66699 -6.66699 -8.83398 -13.167 -12.501 -19.5s-5.5 -10.166 -5.5 -11.499c0 -2.66699 -0.166992 -5.5 -0.5 -8.5s-2.16602 -4.5 -5.49902 -4.5l-3 -9c-2 -6 -5.66699 -13.667 -11 -23c-2.66699 -6.66699 -6 -13.5 -10 -20.5s-7.33301 -11.833 -10 -14.5h1l-4.5 -11.5
l-9.5 -24c-3.33301 -8.33301 -5 -12.833 -5 -13.5c0 -2.66699 4.33301 -4 13 -4s19.167 1.16699 31.5 3.5s23.833 4.83301 34.5 7.5c9.33301 2.66699 15.666 4 18.999 4s10 -1.33301 20 -4c5.33301 -4 9.83301 -10.167 13.5 -18.5s6.33398 -16.5 8.00098 -24.5
s1.5 -13.333 -0.5 -16c-0.666992 -2.66699 -8 -6.33398 -22 -11.001s-28 -8.33398 -42 -11.001l-41 -9l-41 -9c-12 -2.66699 -18 -5 -18 -7c-2.66699 0 -5 -1.5 -7 -4.5s-3 -5.5 -3 -7.5c0 -9.33301 -1.33301 -16.333 -4 -21c-1.33301 -4 -3.66602 -11.5 -6.99902 -22.5
s-6.83301 -23.333 -10.5 -37s-6.66699 -26 -9 -37s-3.5 -18.5 -3.5 -22.5c-4 -4.66699 -6.33301 -10.5 -7 -17.5s-1 -13.167 -1 -18.5c-2.66699 -5.33301 -4.33398 -10.166 -5.00098 -14.499s-1 -7.83301 -1 -10.5v-4c0 -2 -0.333008 -4 -1 -6
c-0.666992 -6.66699 -1.5 -15.5 -2.5 -26.5s-1.5 -21.833 -1.5 -32.5l-3 -29c-0.666992 -8.66699 -1.66699 -17.5 -3 -26.5s-3.66602 -15.167 -6.99902 -18.5zM251.01 307.993c2.66699 0 9.66504 0.829102 20.998 2.49609s24.833 3.83398 40.5 6.50098s31.167 5 46.5 7l6 11
l25 68.5c6.66699 17.667 13.334 33.5 20.001 47.5l2 9c0 1.33301 1.5 5.33301 4.5 12s4.5 13.334 4.5 20.001c4.66699 22.667 8 39.334 10 50.001s1.16699 17.834 -2.5 21.501s-11.5 5.5 -23.5 5.5c-3.33301 0.666992 -8.5 -0.333008 -15.5 -3
s-13.333 -5.83398 -19 -9.50098s-8.5 -7.16699 -8.5 -10.5v-4c-2 0.666992 -7.16699 -3.83301 -15.5 -13.5s-17.833 -21.667 -28.5 -36s-20 -28.166 -28 -41.499c-5.33301 -11.333 -11.666 -26.333 -18.999 -45l-28 -72l-8 -24zM606.008 -23.0107
c-9.33301 3.33301 -16.5039 8.49707 -21.5039 15.4971s-7.83301 17.167 -8.5 30.5c0 8.66699 0.833008 20.834 2.5 36.501s4.16699 32.167 7.5 49.5c0 1.33301 0.166992 2.83301 0.5 4.5s0.5 2.83398 0.5 3.50098c0.666992 2.66699 1.33398 6.83398 2.00098 12.501
s1.5 10.167 2.5 13.5s1.5 3.33301 1.5 0l6 27l10 36.5l9 33c2.66699 9.66699 4.33398 15.167 5.00098 16.5l4 11.5l8 22.5c10.667 32.667 20.834 60 30.501 82s18.167 38 25.5 48c0.666992 2 1.66699 4.5 3 7.5s2.33301 5.5 3 7.5c0 6.66699 0.5 11.5 1.5 14.5
s2.5 6.16699 4.5 9.5c1.33301 2.66699 3.33301 6.16699 6 10.5s5.66699 9.83301 9 16.5l4 11c4 8.66699 9 18.667 15 30l13 25c2 6 5.83301 13.167 11.5 21.5s11.5 13.833 17.5 16.5l-1 1c3.33301 6 9 10.333 17 13s15 4 21 4c9.33301 0 15.833 -2.16699 19.5 -6.5
s5.5 -11.166 5.5 -20.499c0 -10 -0.166992 -17.167 -0.5 -21.5s-2.83301 -9.16602 -7.5 -14.499h1c1.33301 1.33301 1 -0.5 -1 -5.5s-3.66699 -8.5 -5 -10.5l-4.5 -11c-1.66699 -4 -3.5 -7 -5.5 -9c-2 -2.66699 -7.16699 -11.667 -15.5 -27l-28 -54l-29 -60l-20.5 -45
l-4 -15c-1.33301 -2.66699 -2 -4.66699 -2 -6l-6 -14c-2 -4.66699 -4 -8.66699 -6 -12l-17 -61l-4 -21l-9 -22l-6 -19c-1.33301 -4 -2.33301 -8.16699 -3 -12.5s-2 -7.5 -4 -9.5c0 -0.666992 -0.166992 -1.5 -0.5 -2.5s-0.5 -1.83301 -0.5 -2.5
c-2.66699 -10.667 -6.66699 -25.667 -12 -45s-8.66602 -40.333 -9.99902 -63c0 -0.666992 -0.166992 -1.33398 -0.5 -2.00098s-0.5 -1.33398 -0.5 -2.00098c-2 -14 -5.83301 -24.333 -11.5 -31s-13.167 -8.66699 -22.5 -6z" />
    <glyph glyph-name="f_t" unicode="ft" horiz-adv-x="582" 
d="M130 -116c-4 -2.66699 -9.66895 -2.00098 -17.002 1.99902s-15.666 11.333 -24.999 22l-15.5 17c-5.66699 6 -7.5 17.333 -5.5 34c2.66699 7.33301 4.16699 16 4.5 26s0.5 16.333 0.5 19c0 4 1.16699 13.333 3.5 28l7.5 46.5c2.66699 16.333 5 28.833 7 37.5
c0 0.666992 0.333008 2.33398 1 5.00098s1.33398 5 2.00098 7l5.5 24c2.33301 10 4.5 22.333 6.5 37c5.33301 16.667 9.83301 33.167 13.5 49.5s5.5 27.5 5.5 33.5c0 12 4.66699 20.667 14 26c0.666992 3.33301 2.66699 8.5 6 15.5s6.33301 12.833 9 17.5l32 90.5
c8 22.333 16.667 41.833 26 58.5c4 11.333 9.33301 23 16 35s12.667 21.333 18 28c3.33301 8.66699 11 19.834 23 33.501s24.667 27 38 40s24 22.833 32 29.5c14.667 7.33301 28 13.166 40 17.499s25 6.5 39 6.5c12.667 0 23.334 -2.66699 32.001 -8s17.334 -12 26.001 -20
c9.33301 -10 14.666 -16.667 15.999 -20s2 -9.66602 2 -18.999c-1.33301 -6.66699 -4.83301 -16 -10.5 -28s-12.167 -24.167 -19.5 -36.5s-14.166 -23 -20.499 -32s-10.833 -13.5 -13.5 -13.5c-15.333 -4.66699 -23 3.33301 -23 24c0 4.66699 -2.16699 9.16699 -6.5 13.5
l-6.5 6.5c0 2 1 6.83301 3 14.5s4.33301 13.834 7 18.501c3.33301 6.66699 4.16602 11.667 2.49902 15s-6.16699 4 -13.5 2c-2 -1.33301 -6.5 -4.5 -13.5 -9.5s-14.5 -10.667 -22.5 -17s-14.833 -12.333 -20.5 -18s-8.5 -9.5 -8.5 -11.5l-4 -8.5
c-2.66699 -5.66699 -7.66699 -12.834 -15 -21.501c-4.66699 -6.66699 -8.83398 -13.167 -12.501 -19.5s-5.5 -10.166 -5.5 -11.499c0 -2.66699 -0.166992 -5.5 -0.5 -8.5s-2.16602 -4.5 -5.49902 -4.5l-3 -9c-2 -6 -5.66699 -13.667 -11 -23
c-2.66699 -6.66699 -6 -13.5 -10 -20.5s-7.33301 -11.833 -10 -14.5h1l-4 -13c-2.66699 -8.66699 -5.33398 -17.834 -8.00098 -27.501s-4.33398 -15.834 -5.00098 -18.501c9.33301 0.666992 21.333 2.66699 36 6s30.334 6 47.001 8c26 3.33301 50.833 7 74.5 11
s47.167 11.333 70.5 22c6 14.667 12.667 30.167 20 46.5s14.333 30.666 21 42.999s11.334 20.166 14.001 23.499c11.333 6 21.5 9.66699 30.5 11s16.833 -3.33398 23.5 -14.001c3.33301 -4.66699 6.5 -8.16699 9.5 -10.5s4.66699 -6 5 -11s-1.66699 -13 -6 -24
s-12.166 -27.167 -23.499 -48.5l-9 -17.5l-4 -7.5c2.66699 -0.666992 6.66699 -1 12 -1s12 0.333008 20 1c7.33301 1.33301 15.166 2.5 23.499 3.5s15.833 0.833008 22.5 -0.5c15.333 0 26.666 -4.5 33.999 -13.5s11.333 -20.167 12 -33.5
c1.33301 -7.33301 -1.83398 -12.5 -9.50098 -15.5s-20.5 -4.5 -38.5 -4.5c-6 0 -15 -0.333008 -27 -1l-36.5 -2c-12.333 -0.666992 -22.833 -1.5 -31.5 -2.5s-13 -2.16699 -13 -3.5c-2 -1.33301 -4.66699 -7.16602 -8 -17.499s-6.83301 -22.333 -10.5 -36l-10.5 -37.5
c-4.66699 -22.667 -8.5 -44.5 -11.5 -65.5s-4.16699 -39 -3.5 -54s4 -25.833 10 -32.5c6 -6 16.833 -8 32.5 -6s28.834 7.33301 39.501 16c14.667 12.667 26.667 18 36 16s14.666 -7.83301 15.999 -17.5s-2.33398 -20.834 -11.001 -33.501c-8 -12 -18.833 -23 -32.5 -33
s-27.834 -17.167 -42.501 -21.5s-27.667 -4.83301 -39 -1.5c-9.33301 2.66699 -18.666 5.83398 -27.999 9.50098s-19 9.83398 -29 18.501c-8 10.667 -14.167 21.5 -18.5 32.5s-7.16602 23.5 -8.49902 37.5s-2 30.667 -2 50c0 8 1.5 19.833 4.5 35.5
s6.66699 32.334 11 50.001l12 47c3.66699 13.667 5.83398 22.5 6.50098 26.5c-2 4 -6.33301 6.33301 -13 7s-17.834 0 -33.501 -2s-38.834 -5.33301 -69.501 -10l-42.5 -9.5c-16.333 -3.66699 -30.666 -7.16699 -42.999 -10.5s-18.5 -6 -18.5 -8
c-2.66699 0 -5 -2.33301 -7 -7s-3 -8 -3 -10c0 -9.33301 -1.33301 -16.333 -4 -21c-1.33301 -4 -3.66602 -11.5 -6.99902 -22.5s-6.5 -23.167 -9.5 -36.5l-8 -36.5c-2.33301 -11 -3.5 -18.5 -3.5 -22.5c-4 -4.66699 -6.33301 -10.5 -7 -17.5s-1 -13.167 -1 -18.5
c-2.66699 -5.33301 -4.33398 -10.166 -5.00098 -14.499s-1 -7.83301 -1 -10.5v-4c0 -2 -0.333008 -4 -1 -6c-0.666992 -6.66699 -1.5 -15.5 -2.5 -26.5s-1.5 -21.833 -1.5 -32.5l-3 -29c-0.666992 -8.66699 -1.66699 -17.834 -3 -27.501s-3.66602 -16.167 -6.99902 -19.5z
" />
    <glyph glyph-name=".notdef" horiz-adv-x="603" 
d="M392 960h519l-455 -1250h-519zM375 -228l14 461l-318 -461h304zM393 341l14 469l-343 -946zM785 807l-330 -478l-14 -470zM777 897h-304l-14 -460z" />
    <glyph glyph-name="NULL" 
 />
    <glyph glyph-name="NULL" 
 />
    <glyph glyph-name="CR" unicode="&#xd;" horiz-adv-x="242" 
 />
    <glyph glyph-name="space" unicode=" " horiz-adv-x="242" 
 />
    <glyph glyph-name="exclam" unicode="!" horiz-adv-x="210" 
d="M198 164c-18.667 -3.33301 -32.5049 4.83301 -41.5049 24.5s-7.83301 51.834 3.5 96.501c4 8 7.33301 15.833 10 23.5s4 13.834 4 18.501c2.66699 8.66699 6.16699 18.834 10.5 30.501s8.83301 22.667 13.5 33s8 17.166 10 20.499c2.66699 0 5.5 2.33301 8.5 7
s4.5 9.33398 4.5 14.001c0 5.33301 1.16699 11.333 3.5 18s4.83301 11.334 7.5 14.001c0 3.33301 1.33301 7 4 11s4 7.33301 4 10s0.833008 5 2.5 7s2.5 4.33301 2.5 7c6 10.667 13.833 26.5 23.5 47.5s19.334 43.167 29.001 66.5s17.834 44 24.501 62s10 29 10 33
c1.33301 5.33301 3.33301 10 6 14s6.66699 5.33301 12 4c2.66699 2 6.16699 3.16699 10.5 3.5s7.83301 0.5 10.5 0.5l7 -4c4.66699 -2.66699 9.33398 -6.66699 14.001 -12c5.33301 -4.66699 8.33301 -10.667 9 -18s1 -15 1 -23c-0.666992 -12.667 -5.33398 -27 -14.001 -43
l-29 -53l-19.5 -36c-6.33301 -11.333 -9.5 -18.333 -9.5 -21s-1.33301 -6.66699 -4 -12s-5.66699 -12 -9 -20c-4 -6.66699 -8 -14.667 -12 -24s-7.5 -17.833 -10.5 -25.5s-4.5 -12.5 -4.5 -14.5c-0.666992 -2.66699 -1.5 -5.33398 -2.5 -8.00098
s-2.83301 -5.33398 -5.5 -8.00098c-2.66699 0 -4.16699 -1.83301 -4.5 -5.5l-0.5 -5.5c0 -2.66699 -1.5 -8.83398 -4.5 -18.501s-7.83301 -21.167 -14.5 -34.5c-12.667 -35.333 -21.667 -63.5 -27 -84.5s-8.66602 -38.833 -9.99902 -53.5
c-1.33301 -16 -4.16602 -26.333 -8.49902 -31s-9.16602 -8.33398 -14.499 -11.001zM144.995 6.99902c-13.333 -4.66699 -24.499 -6.83496 -33.499 -6.50195s-19.167 4.5 -30.5 12.5c-12.667 12.667 -16.834 25.667 -12.501 39s15.833 26.333 34.5 39
c12.667 8 22 12.167 28 12.5s15.333 -2.16699 28 -7.5c22 -13.333 31.667 -28.166 29 -44.499s-17 -31.166 -43 -44.499z" />
    <glyph glyph-name="quotedbl" unicode="&#x22;" horiz-adv-x="237" 
d="M200 434c-9.33301 -1.33301 -16.499 -1.33008 -21.499 0.00292969s-9.83301 4 -14.5 8c-1.33301 6 -0.5 12.333 2.5 19s6.16699 12.334 9.5 17.001l27.5 47.5c10.333 18.333 17.166 32.5 20.499 42.5c1.33301 7.33301 3.5 16.833 6.5 28.5s4.5 23.834 4.5 36.501
c0 3.33301 0.666992 8.16602 2 14.499s3.33301 12.166 6 17.499s5.66699 7 9 5c6 -2.66699 13.167 -6.16699 21.5 -10.5s15.666 -9.33301 21.999 -15s8.83301 -12.167 7.5 -19.5c-1.33301 -16 -4.83301 -32.5 -10.5 -49.5s-10.5 -32.167 -14.5 -45.5
c-4 -14.667 -11.167 -29.334 -21.5 -44.001s-21.166 -28.667 -32.499 -42c0.666992 -2.66699 -1.33301 -4.33398 -6 -5.00098s-10.667 -2.33398 -18 -5.00098zM327.001 434.003c-8.66699 -1.33301 -15.501 -1.33008 -20.501 0.00292969s-9.83301 4 -14.5 8
c-1.33301 6 -0.666016 12.333 2.00098 19s5.66699 12.334 9 17.001l27.5 47.5c10.333 18.333 17.166 32.5 20.499 42.5c1.33301 7.33301 3.5 16.833 6.5 28.5s4.5 23.834 4.5 36.501c0 3.33301 0.666992 8.16602 2 14.499s3.33301 12.166 6 17.499s5.66699 7 9 5
c6 -2.66699 13.333 -6.16699 22 -10.5s16 -9.33301 22 -15s8.33301 -12.167 7 -19.5c-1.33301 -16 -4.83301 -32.5 -10.5 -49.5s-10.5 -32.167 -14.5 -45.5c-4 -14.667 -11.167 -29.334 -21.5 -44.001s-21.166 -28.667 -32.499 -42
c0.666992 -2.66699 -1.33301 -4.33398 -6 -5.00098s-10.667 -2.33398 -18 -5.00098z" />
    <glyph glyph-name="numbersign" unicode="#" horiz-adv-x="559" 
d="M398 -145c-12.667 -3.33301 -23.4961 -0.333008 -32.4961 9s-15.167 23.5 -18.5 42.5s-2.33301 40.833 3 65.5c3.33301 8 6 15.833 8 23.5s3 13.834 3 18.501c1.33301 5.33301 4.66602 17.166 9.99902 35.499s11.833 39.5 19.5 63.5l23 71.5l20 60
c5.66699 16.333 9.16699 25.5 10.5 27.5c2.66699 0 5 2.33301 7 7s3 9.33398 3 14.001c0 5.33301 1.16699 11.333 3.5 18s4.83301 11.334 7.5 14.001c0 3.33301 0.833008 7.16602 2.5 11.499s2.5 7.83301 2.5 10.5s0.833008 5.33398 2.5 8.00098s2.5 5.33398 2.5 8.00098
c4 7.33301 10.167 21.166 18.5 41.499l29 72l33.5 86l32 84.5c10 26.667 18 48.667 24 66s9 27.333 9 30c0 5.33301 3 10.333 9 15s11.667 7 17 7c2 2 4.5 3.33301 7.5 4s5.83301 1 8.5 1l4 -4l12 -12c5.33301 -4.66699 10.166 -11 14.499 -19s6.5 -16 6.5 -24
c0 -8.66699 -1 -16.334 -3 -23.001s-6 -16.334 -12 -29.001l-28 -59c-2 -5.33301 -6 -14.666 -12 -27.999l-19.5 -45l-21 -48.5c-7 -15.667 -12.667 -28.834 -17 -39.501s-6.5 -16.667 -6.5 -18c0 -2.66699 -1.16699 -6.66699 -3.5 -12s-4.83301 -12 -7.5 -20
c-2.66699 -5.33301 -6.33398 -13.166 -11.001 -23.499l-14.5 -33l-12.5 -30c-3.33301 -8.33301 -5 -13.166 -5 -14.499c0 -2.66699 -0.166992 -5.33398 -0.5 -8.00098s-1.83301 -5.33398 -4.5 -8.00098c-2.66699 0 -4.16699 -1.83301 -4.5 -5.5l-0.5 -5.5
c0 -6.66699 -5.33301 -24.334 -16 -53.001c-4.66699 -14.667 -10.334 -33.5 -17.001 -56.5l-21.5 -74l-21.5 -76.5c-6.66699 -24.667 -12.167 -46.167 -16.5 -64.5s-6.5 -31.166 -6.5 -38.499c0 -16 -2 -26.5 -6 -31.5s-8.66699 -8.83301 -14 -11.5zM142.004 175
c-4 0 -9 0.164062 -15 0.49707s-12.667 1.83301 -20 4.5c-10 0 -17.5 1.66699 -22.5 5s-8.83301 7.33301 -11.5 12c-7.33301 10 -7.16602 17.333 0.500977 22s23.834 8.33398 48.501 11.001c7.33301 2 22.166 3.66699 44.499 5s48.666 2.5 78.999 3.5s62.333 1.83301 96 2.5
s66.167 1.16699 97.5 1.5s58.5 0.666016 81.5 0.999023s39.167 0.5 48.5 0.5c17.333 0 29 -1.16699 35 -3.5s12.667 -7.16602 20 -14.499c10 -10 12.833 -20 8.5 -30s-14.166 -13.667 -29.499 -11c-4.66699 -0.666992 -12.5 -1.33398 -23.5 -2.00098
s-22.5 -1.66699 -34.5 -3c-2.66699 0 -13.334 -0.166992 -32.001 -0.5s-42.167 -0.666016 -70.5 -0.999023s-58.5 -0.666016 -90.5 -0.999023l-92.5 -1c-29.667 -0.333008 -55 -0.666016 -76 -0.999023s-34.833 -0.5 -41.5 -0.5zM159.004 -145.003
c-12.667 -3.33301 -23.4961 -0.333008 -32.4961 9s-15 23.5 -18 42.5s-1.83301 40.833 3.5 65.5c3.33301 8 6 15.833 8 23.5s3 13.834 3 18.501c1.33301 5.33301 4.66602 17.166 9.99902 35.499s11.833 39.5 19.5 63.5l23 71.5l20 60c5.66699 16.333 9.16699 25.5 10.5 27.5
c2.66699 0 5 2.33301 7 7s3 9.33398 3 14.001c0 5.33301 1.16699 11.333 3.5 18s4.83301 11.334 7.5 14.001c0 3.33301 0.833008 7.16602 2.5 11.499s2.5 7.83301 2.5 10.5s0.833008 5.33398 2.5 8.00098s2.5 5.33398 2.5 8.00098c4 7.33301 10.167 21.166 18.5 41.499
l29 72l33.5 86l32 84.5c10 26.667 18 48.667 24 66s9 27.333 9 30c0 5.33301 2.83301 10.333 8.5 15s11.167 7 16.5 7c2 2 4.5 3.33301 7.5 4s5.83301 1 8.5 1l4 -4l12 -12c5.33301 -4.66699 10.166 -11 14.499 -19s6.5 -16 6.5 -24c0 -8.66699 -1 -16.334 -3 -23.001
s-6 -16.334 -12 -29.001l-28 -59c-2 -5.33301 -6 -14.666 -12 -27.999l-19.5 -45l-21 -48.5c-7 -15.667 -12.667 -28.834 -17 -39.501s-6.5 -16.667 -6.5 -18c0 -2.66699 -1.16699 -6.66699 -3.5 -12s-4.83301 -12 -7.5 -20
c-2.66699 -5.33301 -6.33398 -13.166 -11.001 -23.499l-14.5 -33l-12.5 -30c-3.33301 -8.33301 -5 -13.166 -5 -14.499c0 -2.66699 -0.166992 -5.33398 -0.5 -8.00098s-1.83301 -5.33398 -4.5 -8.00098c-2.66699 0 -4.16699 -1.83301 -4.5 -5.5l-0.5 -5.5
c0 -6.66699 -5.33301 -24.334 -16 -53.001c-4.66699 -14.667 -10.334 -33.5 -17.001 -56.5l-21.5 -74l-21.5 -76.5c-6.66699 -24.667 -12.167 -46.167 -16.5 -64.5s-6.5 -31.166 -6.5 -38.499c0 -16 -2 -26.5 -6 -31.5s-8.66699 -8.83301 -14 -11.5zM203.008 374.997
c-4 0 -9.00195 0.164062 -15.002 0.49707s-12.667 1.83301 -20 4.5c-10 0 -17.5 1.66699 -22.5 5s-8.83301 7.33301 -11.5 12c-7.33301 10 -7.16602 17.333 0.500977 22s23.834 8.33398 48.501 11.001c7.33301 2 22.166 3.66699 44.499 5s48.833 2.5 79.5 3.5
s62.834 1.83301 96.501 2.5s66 1.16699 97 1.5s58.167 0.666016 81.5 0.999023s39.333 0.5 48 0.5c17.333 0 29 -1 35 -3s12.667 -6.66699 20 -14c10 -10 12.833 -20.167 8.5 -30.5s-14.166 -14.166 -29.499 -11.499c-4.66699 -0.666992 -12.5 -1.33398 -23.5 -2.00098
s-22.5 -1.66699 -34.5 -3c-2.66699 0 -13.334 -0.166992 -32.001 -0.5s-42 -0.666016 -70 -0.999023s-58 -0.666016 -90 -0.999023l-93 -1c-30 -0.333008 -55.5 -0.666016 -76.5 -0.999023s-34.833 -0.5 -41.5 -0.5z" />
    <glyph glyph-name="dollar" unicode="$" horiz-adv-x="450" 
d="M173 -124c-11.333 -1.33301 -18.6719 3.33105 -22.0049 13.998s-3.33301 25.334 0 44.001c2 10 4.33301 20.833 7 32.5l9 37.5c2 4 4.83301 10 8.5 18l12 26.5c4.33301 9.66699 8.33301 19.167 12 28.5l9.5 24.5c2.66699 7 4.33398 11.5 5.00098 13.5
c2 3.33301 5.5 10.833 10.5 22.5s11.167 25.334 18.5 41.001l21 47c6.66699 15.667 12.667 29 18 40s8.33301 17.5 9 19.5c2.66699 4.66699 6 9.83398 10 15.501s7 12.167 9 19.5c1.33301 6 4 13.5 8 22.5s9 19.167 15 30.5l17.5 34l16.5 32
c5.33301 10 9.5 18.833 12.5 26.5s4.5 12.834 4.5 15.501c0.666992 -1.33301 4 3.5 10 14.5s13.5 25.667 22.5 44l29 59.5l30 62l24 50c6.33301 13.333 9.83301 21 10.5 23c3.33301 7.33301 8.33301 10.666 15 9.99902c0.666992 0 2.5 -0.166992 5.5 -0.5
s6.16699 -1.5 9.5 -3.5c0.666992 -2 1.83398 -4.16699 3.50098 -6.5l7.5 -10.5c0 -4.66699 0.333008 -9.33398 1 -14.001s0.333984 -10.834 -0.999023 -18.501s-4.33301 -18.167 -9 -31.5c-1.33301 -5.33301 -3.66602 -11.666 -6.99902 -18.999s-7.33301 -15 -12 -23
l-15 -26.5l-17 -29.5c-6 -10 -11.667 -20.667 -17 -32l-17.5 -31.5l-21 -37.5l-19 -35l-12.5 -24c-1.33301 -2.66699 -3.5 -6.5 -6.5 -11.5s-5.66699 -10 -8 -15s-4.66602 -9.5 -6.99902 -13.5s-3.83301 -7 -4.5 -9c-4 -8 -8.83301 -17.167 -14.5 -27.5l-15 -28
c-4.33301 -8.33301 -7.16602 -14.166 -8.49902 -17.499c-1.33301 -1.33301 -2.5 -3.66602 -3.5 -6.99902s-1.83301 -5.33301 -2.5 -6c-2 -0.666992 -3.5 -2.83398 -4.5 -6.50098s-2.66699 -9.16699 -5 -16.5s-7.83301 -17 -16.5 -29l-22.5 -55.5l-28.5 -70.5l-29 -72
c-9.33301 -23.333 -17 -43.833 -23 -61.5s-9.66699 -30.167 -11 -37.5c-0.666992 -17.333 -2.33398 -28.333 -5.00098 -33s-8 -7.33398 -16 -8.00098zM148.994 39.9971c-8 0.666992 -15.3291 1.66992 -21.9961 3.00293s-11.334 3.33301 -14.001 6
c-8.66699 1.33301 -18 5.83301 -28 13.5s-18.5 17 -25.5 28s-10.833 21.833 -11.5 32.5c0 8.66699 3.66699 16.5 11 23.5s16.5 11.333 27.5 13s22.167 -0.166016 33.5 -5.49902c-9.33301 -17.333 -11.333 -30.333 -6 -39s23.666 -13.667 54.999 -15
c10 -0.666992 18.5 -0.833984 25.5 -0.500977s15.5 1.16602 25.5 2.49902c10.667 0.666992 20.5 1.5 29.5 2.5s16.5 2.5 22.5 4.5c28 6.66699 48.667 15.167 62 25.5s21.666 19.833 24.999 28.5c2.66699 9.33301 4.83398 15.666 6.50098 18.999s2.5 8 2.5 14
c0 6.66699 0.166992 12.667 0.5 18s-0.5 11.333 -2.5 18s-6.83301 15 -14.5 25s-19.834 22.333 -36.501 37c-2.66699 6.66699 -8 14.667 -16 24s-16.667 16.666 -26 21.999c-3.33301 4.66699 -7 10.5 -11 17.5s-8 11.5 -12 13.5c0 0.666992 -2.66699 4.66699 -8 12
s-9 17 -11 29c-2.66699 15.333 -0.5 32 6.5 50s19.5 34.333 37.5 49c5.33301 6.66699 13.5 14.167 24.5 22.5s21.667 15.666 32 21.999s16.5 9.5 18.5 9.5c3.33301 0 9.16602 2.16699 17.499 6.5s21.5 7.5 39.5 9.5c12 2.66699 21.833 5 29.5 7s14.834 3 21.501 3
c6 1.33301 12.167 2.16602 18.5 2.49902s19.5 -2.5 39.5 -8.5c15.333 -5.33301 27 -12 35 -20s12.667 -16.167 14 -24.5s0.166016 -15.666 -3.50098 -21.999s-9.5 -10.833 -17.5 -13.5c-6 -0.666992 -13 1 -21 5s-17.167 8.16699 -27.5 12.5s-21.833 6.16602 -34.5 5.49902
c-22.667 0 -43.5 -2.5 -62.5 -7.5s-35.5 -15.5 -49.5 -31.5c-17.333 -10.667 -29.666 -21.667 -36.999 -33s-11 -21 -11 -29c1.33301 -2.66699 3.16602 -7.5 5.49902 -14.5s6.16602 -13.5 11.499 -19.5l44 -46l23.5 -23c5 -4.66699 8.16699 -7.83398 9.5 -9.50098
s2 -3.83398 2 -6.50098c1.33301 -1.33301 4 -4.66602 8 -9.99902s7.66699 -10.666 11 -15.999c3.33301 -4 6.33301 -8.33301 9 -13s4.33398 -8 5.00098 -10c0.666992 0.666992 2.66699 -3.16602 6 -11.499s6.5 -19 9.5 -32s4.5 -26.167 4.5 -39.5
c0 -5.33301 -2.66699 -12.166 -8 -20.499s-11.833 -16.5 -19.5 -24.5s-15.167 -15 -22.5 -21c-8.66699 -6.66699 -19.167 -13.834 -31.5 -21.501s-25.5 -14.5 -39.5 -20.5s-28 -10.667 -42 -14c-9.33301 -2.66699 -20 -5.16699 -32 -7.5s-24.333 -4.16602 -37 -5.49902
s-25 -2 -37 -2s-22.667 0.333008 -32 1z" />
    <glyph glyph-name="percent" unicode="%" horiz-adv-x="600" 
d="M135 -92c-12.667 1.33301 -22.1621 6.66211 -28.4951 15.9951s-7.66602 22 -3.99902 38s13.5 35.333 29.5 58c6 5.33301 11.167 10.5 15.5 15.5s7.16602 9.83301 8.49902 14.5l21.5 26.5c11 13.667 24.167 29 39.5 46l45 50l37.5 42.5c10.333 12 16.166 19 17.499 21
c2.66699 -0.666992 5.66699 0.666016 9 3.99902s5.66602 7.33301 6.99902 12c2 5.33301 5.16699 10 9.5 14s8.5 6.33301 12.5 7c1.33301 3.33301 3.33301 6.16602 6 8.49902s4.33398 4.83301 5.00098 7.5s2.16699 4.83398 4.5 6.50098s3.83301 3.83398 4.5 6.50098
c6 4.66699 16.167 14.334 30.5 29.001l50.5 52l60 62.5l57.5 61.5l43.5 48c11.333 12.667 17.333 20 18 22c3.33301 8.66699 10 11.334 20 8.00098c4.66699 2.66699 10 2.66699 16 0l6 -8c4 -5.33301 7.66699 -11.333 11 -18c4 -6 6 -11.833 6 -17.5s-2 -11.5 -6 -17.5
c-2.66699 -7.33301 -6.16699 -13.5 -10.5 -18.5s-11.333 -11.833 -21 -20.5l-44.5 -40l-26 -26l-41 -41l-37.5 -38.5c-10.333 -11 -15.5 -17.167 -15.5 -18.5c-2.66699 -1.33301 -5.83398 -3.66602 -9.50098 -6.99902s-7.5 -8.33301 -11.5 -15
c-5.33301 -4.66699 -13.833 -12.5 -25.5 -23.5s-22.167 -21.333 -31.5 -31s-14.333 -15.167 -15 -16.5c-1.33301 -2 -3 -3.83301 -5 -5.5s-5 -3.16699 -9 -4.5c-0.666992 0.666992 -1.83398 -0.166016 -3.50098 -2.49902l-2.5 -3.5c0 -2.66699 -2.83301 -7.66699 -8.5 -15
s-13.834 -15.666 -24.501 -24.999l-43.5 -53l-56 -68.5c-19 -23.667 -35.5 -45.167 -49.5 -64.5s-23 -32.666 -27 -39.999c-4.66699 -12.667 -10.334 -21.834 -17.001 -27.501s-12.667 -9.16699 -18 -10.5zM478.005 34.9961c10.667 12 19.333 23.5 26 34.5
s13 25.167 19 42.5c2 8 3 18.333 3 31s-1.33301 20 -4 22c-6 2.66699 -13 3.66699 -21 3s-16.333 -5.33398 -25 -14.001c-14.667 -11.333 -27.167 -26.166 -37.5 -44.499s-20.833 -38.833 -31.5 -61.5c-6.66699 -16 -8.16699 -29.167 -4.5 -39.5s12.167 -14 25.5 -11
s30 15.5 50 37.5zM397.004 -73.0039c-6.66699 0 -12.1689 1.33203 -16.502 3.99902s-9.16602 6.33398 -14.499 11.001c-10.667 10.667 -19 22 -25 34s-8 22.667 -6 32c1.33301 4.66699 1.83301 8.83398 1.5 12.501l-0.5 5.5c-2.66699 3.33301 -3.33398 5.33301 -2.00098 6
s2.33301 2 3 4c3.33301 0 4.33301 3 3 9c-0.666992 4.66699 1.83301 14.334 7.5 29.001s12.5 28.667 20.5 42l15.5 25c7 11.333 14.833 22.666 23.5 33.999s16.334 19.666 23.001 24.999c14 12 26.667 20.667 38 26s23 9.33301 35 12c12.667 3.33301 21.334 5 26.001 5
s11 -4.66699 19 -14c12.667 -4.66699 23.834 -12.667 33.501 -24s15.167 -24.666 16.5 -39.999c1.33301 -16 0 -34.5 -4 -55.5s-16.667 -46.833 -38 -77.5c-14 -19.333 -26.833 -34.5 -38.5 -45.5s-25.167 -21.167 -40.5 -30.5c-11.333 -7.33301 -24.333 -13.833 -39 -19.5
s-28.334 -8.83398 -41.001 -9.50098zM334.002 405.995c10.667 12 19.5 23.5 26.5 34.5s13.167 25.167 18.5 42.5c2.66699 8 4 18.333 4 31s-1.66699 20 -5 22c-5.33301 2.66699 -12 3.66699 -20 3s-16.333 -5.33398 -25 -14.001
c-15.333 -11.333 -28.166 -26.166 -38.499 -44.499s-20.5 -38.833 -30.5 -61.5c-6.66699 -16 -8.16699 -29.167 -4.5 -39.5s12.167 -14 25.5 -11s29.666 15.5 48.999 37.5zM253.002 298.995c-6.66699 0 -12.1689 1.32715 -16.502 3.99414s-9.16602 6.33398 -14.499 11.001
c-10.667 10.667 -19 22 -25 34s-8 22.333 -6 31c1.33301 4.66699 1.83301 8.83398 1.5 12.501l-0.5 5.5c-2.66699 3.33301 -3.33398 5.33301 -2.00098 6s2.33301 2.33398 3 5.00098c3.33301 0 4.33301 3 3 9c-0.666992 4 1.83301 13.5 7.5 28.5s12.5 28.833 20.5 41.5
l15.5 25.5c7 11.667 14.833 23.167 23.5 34.5s16.334 19.666 23.001 24.999c14 12 26.667 20.667 38 26s23 9.33301 35 12c12.667 3.33301 21.334 4.83301 26.001 4.5s11 -4.83301 19 -13.5c12.667 -4.66699 23.834 -12.667 33.501 -24s15.167 -24.666 16.5 -39.999
c1.33301 -16 0 -34.5 -4 -55.5s-16.667 -46.833 -38 -77.5c-14 -19.333 -26.833 -34.666 -38.5 -45.999s-25.167 -21.666 -40.5 -30.999c-11.333 -7.33301 -24.333 -13.666 -39 -18.999s-28.334 -8.33301 -41.001 -9z" />
    <glyph glyph-name="ampersand" unicode="&#x26;" horiz-adv-x="564" 
d="M664 -54c0.666992 -8 -3.50781 -13.1699 -12.5078 -15.5029s-20.667 -2.5 -35 -0.5s-28.833 5.5 -43.5 10.5s-27 10.5 -37 16.5c-12.667 3.33301 -29.167 15.666 -49.5 36.999s-43.5 47.333 -69.5 78l-65 -35.5c-16.667 -9 -31.834 -16.333 -45.501 -22
s-29.834 -11.167 -48.501 -16.5c-44 -4 -84.333 0.333008 -121 13c-5.33301 2 -12.666 6 -21.999 12s-18.666 12.333 -27.999 19s-15.666 11.667 -18.999 15c-3.33301 2 -5.5 7.5 -6.5 16.5s-1.33301 18.333 -1 28s0.833008 15.5 1.5 17.5c2 6 7.83301 16.5 17.5 31.5
s22 32.5 37 52.5s31.333 40.333 49 61s35.167 39.667 52.5 57c-16 23.333 -27 46 -33 68s-5.83301 46 0.5 72s18.833 55.667 37.5 89c6.66699 10.667 15.334 22.167 26.001 34.5s21.5 24 32.5 35s20.667 19.667 29 26s12.833 8.83301 13.5 7.5
c2.66699 -4.66699 5.33398 -6.33398 8.00098 -5.00098s5.33398 2 8.00098 2c2.66699 1.33301 8.33398 1.83301 17.001 1.5s18.334 -1.16602 29.001 -2.49902s20.334 -3.66602 29.001 -6.99902c24 -2.66699 40.833 -5.33398 50.5 -8.00098s18.5 -8.66699 26.5 -18
c10 -7.33301 18.833 -15.666 26.5 -24.999s13.667 -18.666 18 -27.999s6.5 -17 6.5 -23c0 -8.66699 -6.83301 -22 -20.5 -40s-31.834 -37 -54.501 -57c-8.66699 -10.667 -17.5 -20.167 -26.5 -28.5l-13.5 -12.5c0 -2.66699 -1.66699 -6.33398 -5 -11.001
s-7.66602 -8 -12.999 -10l-31 -28l-36 -33c-10.667 -10 -16.334 -16 -17.001 -18c-0.666992 -1.33301 2 -6.66602 8 -15.999s13.667 -20.333 23 -33l28.5 -37.5c9.66699 -12.333 18.334 -22.666 26.001 -30.999s12.834 -12.5 15.501 -12.5
c22 21.333 44.833 42.166 68.5 62.499l72.5 64.5c16.667 17.333 29 29 37 35s14.5 8.16699 19.5 6.5s9.83301 -4.83398 14.5 -9.50098c8.66699 -1.33301 13.334 -6.66602 14.001 -15.999s-0.333008 -18.166 -3 -26.499s-4.33398 -13.166 -5.00098 -14.499
c-8.66699 -11.333 -20.5 -24 -35.5 -38l-47 -43.5l-47 -42.5c-15 -13.333 -27.5 -25 -37.5 -35l12.5 -14.5c8.33301 -9.66699 16.5 -18.167 24.5 -25.5c22 -22.667 39 -38.5 51 -47.5s25.667 -16.167 41 -21.5c20.667 -6.66699 35.167 -14.667 43.5 -24
s12.833 -21.333 13.5 -36zM178.992 73.9971c20 -6 38.001 -8.16211 54.001 -6.49512s33.167 7.16699 51.5 16.5s40.166 22.666 65.499 39.999l19 14l-25 29c-4.66699 5.33301 -10.5 13.166 -17.5 23.499s-15.167 21.166 -24.5 32.499
c-10 9.33301 -16.833 17.166 -20.5 23.499l-5.5 9.5c-2 0 -6.5 -3.33301 -13.5 -10s-14.333 -14.5 -22 -23.5s-13.5 -16.833 -17.5 -23.5c-15.333 -12 -27 -23.833 -35 -35.5l-27 -40.5c-4.66699 -10.667 -6.66699 -18.834 -6 -24.501s3.16699 -10 7.5 -13zM279.993 370.002
c7.33301 8 17.999 17.502 31.999 28.502l45.5 36c16.333 13 31.5 26.167 45.5 39.5s24.833 26.5 32.5 39.5s9.83398 25.167 6.50098 36.5c-1.33301 2.66699 -5.5 5.83398 -12.5 9.50098s-15.167 7.16699 -24.5 10.5s-18 4.66602 -26 3.99902
c-13.333 1.33301 -26.666 -4.16699 -39.999 -16.5s-27.666 -29.5 -42.999 -51.5c-16.667 -24.667 -27.334 -48.334 -32.001 -71.001s0.666016 -44.334 15.999 -65.001z" />
    <glyph glyph-name="quotesingle" unicode="'" horiz-adv-x="117" 
d="M195 434c-9.33301 -1.33301 -16.5 -1.33008 -21.5 0.00292969s-9.83301 4 -14.5 8c-1.33301 6 -0.5 12.333 2.5 19s6.16699 12.334 9.5 17.001l27.5 47.5c10.333 18.333 17.166 32.5 20.499 42.5c1.33301 7.33301 3.5 16.833 6.5 28.5s4.5 23.834 4.5 36.501
c0 3.33301 0.5 8.16602 1.5 14.499s3 12.166 6 17.499s6.16699 7 9.5 5c6 -2.66699 13.333 -6.16699 22 -10.5s16 -9.33301 22 -15s8.33301 -12.167 7 -19.5c-1.33301 -16 -4.83301 -32.5 -10.5 -49.5s-10.5 -32.167 -14.5 -45.5c-4 -14.667 -11.167 -29.334 -21.5 -44.001
s-21.166 -28.667 -32.499 -42c0.666992 -2.66699 -1.33301 -4.33398 -6 -5.00098s-10.667 -2.33398 -18 -5.00098z" />
    <glyph glyph-name="parenleft" unicode="(" horiz-adv-x="330" 
d="M285 -135c-30.667 5.33301 -56.998 19.165 -78.998 41.498s-37.667 47.833 -47 76.5c-12.667 28 -18.667 64.5 -18 109.5s7.33398 90.833 20.001 137.5c3.33301 12.667 6.33301 25.667 9 39s4.33398 22.333 5.00098 27c2 6.66699 6.33301 17.667 13 33l23 52.5l25.5 59
l21.5 52.5c7.33301 16.667 18.166 36.334 32.499 59.001l45 68c15.667 22.667 30 42.334 43 59.001s22.167 27 27.5 31c3.33301 3.33301 8 7.66602 14 12.999s11.333 8.33301 16 9c2.66699 7.33301 8 13.333 16 18s15 7 21 7c15.333 8 30.333 10.333 45 7s24.667 -15 30 -35
c2 -9.33301 2.16699 -15.333 0.5 -18s-9.16699 -7 -22.5 -13c-6.66699 -2.66699 -15 -6.5 -25 -11.5s-17.333 -10.167 -22 -15.5c-6 -7.33301 -12.667 -14.666 -20 -21.999s-13 -12.333 -17 -15c-12 -4.66699 -18 -10 -18 -16l-8.5 -17
c-5.66699 -11.333 -14.834 -25 -27.501 -41c-8 -12.667 -17.333 -28.334 -28 -47.001s-19 -32.667 -25 -42l-14.5 -26.5c-3.66699 -7 -8.83398 -14.167 -15.501 -21.5c0 -2 -1 -6.66699 -3 -14s-6 -15.666 -12 -24.999c-4 -14.667 -12 -34.334 -24 -59.001
c-4.66699 -10.667 -10.167 -24.667 -16.5 -42s-11.666 -34 -15.999 -50s-6.5 -27.333 -6.5 -34c-1.33301 0 -2.5 -1.83301 -3.5 -5.5s-2.33301 -11.667 -4 -24s-4.5 -32.166 -8.5 -59.499c-0.666992 -30 0.166016 -54.667 2.49902 -74s7.16602 -35.833 14.499 -49.5
s17 -27.167 29 -40.5c7.33301 -6.66699 14.666 -11.667 21.999 -15s16 -5.33301 26 -6l34 -21c-4 -15.333 -11.167 -26 -21.5 -32s-21.166 -8.33301 -32.499 -7z" />
    <glyph glyph-name="parenright" unicode=")" horiz-adv-x="330" 
d="M72 -130c-12.667 3.33301 -24.1699 9.66699 -34.5029 19s-15.833 19 -16.5 29c0.666992 2 1 5.66699 1 11s1.33301 10.333 4 15l6.5 -3c4.33301 -2 11.833 -1.66699 22.5 1c13.333 -0.666992 23.166 0.666016 29.499 3.99902s14.5 10.666 24.5 21.999
c7.33301 10 15.833 20.833 25.5 32.5s16.167 21.834 19.5 30.501c10.667 7.33301 18.334 14.166 23.001 20.499s9 12.833 13 19.5c0 3.33301 1 9.5 3 18.5s7 19.833 15 32.5c7.33301 16.667 14.333 30.834 21 42.501s10 19.167 10 22.5l3 7
c2 4.66699 2.66699 10.334 2 17.001c4 2 7.5 6.5 10.5 13.5s4.16699 14.167 3.5 21.5c0 2 3 9.83301 9 23.5s9.33301 27.5 10 41.5c7.33301 24 12.833 45.5 16.5 64.5s6.5 39.833 8.5 62.5s4 51.667 6 87l3 67.5c0.666992 15 0.5 26.5 -0.5 34.5s-4.16699 16 -9.5 24
c-6.66699 21.333 -12.334 32 -17.001 32c-2 0 -3.83301 3.66699 -5.5 11s-1.16699 15.666 1.5 24.999c-0.666992 2.66699 2.83301 5.66699 10.5 9s14.5 4.66602 20.5 3.99902c4.66699 0 9.83398 -1.83301 15.501 -5.5s9.5 -6.83398 11.5 -9.50098
c2.66699 2.66699 6.83398 -1.33301 12.501 -12s11.834 -25.667 18.501 -45c4 -9.33301 7 -17.166 9 -23.499s3.33301 -13.333 4 -21s0.666992 -18.334 0 -32.001s-1.66699 -32.5 -3 -56.5c0 -23.333 -1.5 -48.833 -4.5 -76.5s-6.5 -54.667 -10.5 -81
s-8.33301 -50.166 -13 -71.499c-4.66699 -17.333 -11 -38.166 -19 -62.499s-16.833 -48.833 -26.5 -73.5s-18.667 -46.667 -27 -66s-15.166 -33 -20.499 -41c1.33301 0 -0.5 -4 -5.5 -12l-20 -30.5l-25.5 -38l-22 -33.5c-10 -14 -22.167 -26.833 -36.5 -38.5
s-28.333 -20.667 -42 -27s-25.167 -8.16602 -34.5 -5.49902z" />
    <glyph glyph-name="asterisk" unicode="*" horiz-adv-x="363" 
d="M417 397c-6.66699 -4.66699 -14.668 -2.66992 -24.001 5.99707s-17.333 19 -24 31c-2 4.66699 -4.5 11.5 -7.5 20.5s-6.5 18.833 -10.5 29.5c-0.666992 8.66699 -1.16699 17 -1.5 25l-0.5 12c-0.666992 0.666992 -9.5 -6 -26.5 -20s-40.5 -36 -70.5 -66
c-18.667 -17.333 -31 -27.666 -37 -30.999s-11 -4.66602 -15 -3.99902c-4.66699 0.666992 -8.5 2.5 -11.5 5.5s-4.5 4.83301 -4.5 5.5c-0.666992 2 -1 8.16699 -1 18.5s1 17.833 3 22.5c3.33301 4 10.166 11.5 20.499 22.5l34.5 35.5l33.5 34
c9.66699 10 15.834 16 18.501 18c5.33301 5.33301 8 9 8 11s-2.66699 5.33301 -8 10c-2.66699 3.33301 -4.83398 5.83301 -6.50098 7.5s-1.16699 2.5 1.5 2.5l-0.5 3c-0.333008 2 -1.83301 3.33301 -4.5 4c-2 3.33301 -3.5 6.66602 -4.5 9.99902s-1.5 5.66602 -1.5 6.99902
c0 3.33301 -0.833008 7.5 -2.5 12.5l-2.5 7.5c-2.66699 2 -3.83398 5.83301 -3.50098 11.5s1.5 11.5 3.5 17.5s3.66699 9.66699 5 11l2.5 -0.5c1.66699 -0.333008 3.83398 -1.83301 6.50098 -4.5c2.66699 0 7.16699 -3.83301 13.5 -11.5s11.833 -15.167 16.5 -22.5
c5.33301 -10.667 9.33301 -16.834 12 -18.501s6.33398 -2.5 11.001 -2.5l7.5 13.5c5 9 8.16699 19.5 9.5 31.5c9.33301 12.667 16.5 23.167 21.5 31.5s9.16699 14.833 12.5 19.5c1.33301 4 3.33301 7.66699 6 11l4 5l2 5c1.33301 3.33301 3.33301 5.33301 6 6v0v0
c4.66699 5.33301 9.5 9.33301 14.5 12s8.16699 3.33398 9.5 2.00098c2.66699 -3.33301 5.5 -6.16602 8.5 -8.49902s5.16699 -6.16602 6.5 -11.499l15 -16l-13 -17c-14.667 -22 -26.167 -42.167 -34.5 -60.5s-11.833 -27.5 -10.5 -27.5l9.5 4
c6.33301 2.66699 12.833 4.66699 19.5 6c7.33301 3.33301 13.5 5.83301 18.5 7.5s8.16699 2.83398 9.5 3.50098c6.66699 0 14.667 3 24 9c10 3.33301 18 3.33301 24 0c5.33301 -4.66699 9.66602 -12 12.999 -22s5 -16.667 5 -20
c-0.666992 -0.666992 -6.83398 -4.66699 -18.501 -12s-26.167 -13.666 -43.5 -18.999c-16.667 -4.66699 -31.334 -9.33398 -44.001 -14.001s-19.667 -8.66699 -21 -12c-8 0 -8 -5.66699 0 -17c1.33301 -4 2 -8.16699 2 -12.5s0.333008 -10.166 1 -17.499
c3.33301 -12.667 5.83301 -23.167 7.5 -31.5s2.83398 -12.5 3.50098 -12.5c2.66699 0 4 2 4 6c0 2.66699 3 4 9 4c2 0 4.5 -2 7.5 -6s5.83301 -8 8.5 -12s3.33398 -6.66699 2.00098 -8v-3v-3c2.66699 -0.666992 1.83398 -3.83398 -2.49902 -9.50098
s-9.16602 -11.167 -14.499 -16.5s-9 -8 -11 -8z" />
    <glyph glyph-name="plus" unicode="+" horiz-adv-x="446" 
d="M173 174c-4 0 -9.00098 0.166992 -15.001 0.5s-12.667 1.83301 -20 4.5c-10 0 -17.5 1.83301 -22.5 5.5s-8.83301 7.83398 -11.5 12.501c-7.33301 10 -7.16602 17.5 0.500977 22.5s23.834 8.83301 48.501 11.5c11.333 2.66699 28.166 4.83398 50.499 6.50098
s46.5 3 72.5 4s50.667 1.83301 74 2.5s41.666 1 54.999 1c17.333 0 31.5 -1.33301 42.5 -4s20.167 -7.66699 27.5 -15c10 -10 12.833 -20.167 8.5 -30.5s-14.166 -14.166 -29.499 -11.499c-3.33301 0 -9.33301 -0.333008 -18 -1s-18 -1.33398 -28 -2.00098
s-19 -1.33398 -27 -2.00098c-4 0 -15 -0.333008 -33 -1s-38.833 -1.33398 -62.5 -2.00098s-46 -1.16699 -67 -1.5s-36.167 -0.5 -45.5 -0.5zM303.999 21c-10 -7.33301 -17.501 -7.16699 -22.501 0.5s-8.83301 23.834 -11.5 48.501
c-2.66699 11.333 -4.83398 28.166 -6.50098 50.499s-3 46.5 -4 72.5s-1.83301 50.667 -2.5 74s-1 41.666 -1 54.999c0 17.333 1.33301 31.5 4 42.5s7.33398 20.167 14.001 27.5c10 10 20.333 12.833 31 8.5s14.667 -14.166 12 -29.499
c0.666992 -3.33301 1.16699 -9.33301 1.5 -18s0.833008 -18 1.5 -28s1.33398 -19 2.00098 -27c0 -4 0.333008 -15 1 -33s1.33398 -38.833 2.00098 -62.5s1.16699 -46 1.5 -67s0.5 -36.167 0.5 -45.5c0 -4 -0.166992 -9 -0.5 -15s-1.83301 -12.667 -4.5 -20
c0 -10 -1.83301 -17.5 -5.5 -22.5s-7.83398 -8.83301 -12.501 -11.5z" />
    <glyph glyph-name="comma" unicode="," horiz-adv-x="198" 
d="M54 -84c-7.33301 0 -12.8281 1.33301 -16.4951 4s-6.83398 6.33398 -9.50098 11.001c0 4.66699 1.16699 8.66699 3.5 12s6.16602 7.33301 11.499 12c6.66699 6.66699 13.667 14.834 21 24.501s14.166 19.5 20.499 29.5s11.166 18 14.499 24
c2.66699 7.33301 5.16699 16 7.5 26s5.16602 21 8.49902 33c0 5.33301 0.166992 10.166 0.5 14.499s1.83301 7.83301 4.5 10.5c4.66699 4.66699 10.167 8.16699 16.5 10.5s12.666 0.166016 18.999 -6.50098s10.833 -21 13.5 -43c2.66699 -14.667 2.66699 -28 0 -40
s-8 -26.667 -16 -44c-1.33301 -4.66699 -6 -12.167 -14 -22.5s-16 -19.833 -24 -28.5s-13 -13 -15 -13c-2.66699 0 -5 -0.833008 -7 -2.5l-8 -6.5c-2.66699 -2.66699 -6.66699 -4.16699 -12 -4.5s-11.666 -0.5 -18.999 -0.5z" />
    <glyph glyph-name="hyphen" unicode="-" horiz-adv-x="326" 
d="M173 174c-4 0 -9.00098 0.166016 -15.001 0.499023s-12.667 1.83301 -20 4.5c-10 0 -17.5 1.83301 -22.5 5.5s-8.83301 7.83398 -11.5 12.501c-7.33301 10 -7.16602 17.5 0.500977 22.5s23.834 8.83301 48.501 11.5c22.667 5.33301 44.5 9 65.5 11s44.833 3 71.5 3
c17.333 0 30.666 -1.33301 39.999 -4s17.666 -7.66699 24.999 -15c10 -10 12.833 -20.167 8.5 -30.5s-14.166 -14.166 -29.499 -11.499c-4.66699 -0.666992 -14.167 -1.33398 -28.5 -2.00098s-27.5 -1.66699 -39.5 -3c-7.33301 -0.666992 -19.833 -1.66699 -37.5 -3
s-36.167 -2 -55.5 -2z" />
    <glyph glyph-name="period" unicode="." horiz-adv-x="198" 
d="M159 52c-14 -4.66699 -25.499 -6.83008 -34.499 -6.49707s-18.833 4.16602 -29.5 11.499c-12.667 13.333 -16.834 26.666 -12.501 39.999s15.833 26.333 34.5 39c12.667 8 22 12.167 28 12.5s15.333 -2.16699 28 -7.5c22 -13.333 31.667 -28.333 29 -45
s-17 -31.334 -43 -44.001z" />
    <glyph glyph-name="slash" unicode="/" horiz-adv-x="330" 
d="M75 -108c-20 -0.666992 -33.498 9.66895 -40.498 31.002s-1.5 52.666 16.5 93.999l11.5 22c3.66699 7.33301 5.83398 13.333 6.50098 18l14.5 28.5l28 53.5l34.5 65l34 63.5l27 49.5c7.33301 13.333 11.666 20.666 12.999 21.999c3.33301 -0.666992 6.33301 1.33301 9 6
s4.33398 9.33398 5.00098 14.001c1.33301 5.33301 3.66602 11 6.99902 17s6.66602 9.66699 9.99902 11c0.666992 3.33301 2.16699 7 4.5 11s3.83301 7.33301 4.5 10s2 5.16699 4 7.5s3 4.83301 3 7.5c5.33301 6.66699 13.166 18.167 23.499 34.5l35 57l39.5 67.5l37.5 66
l28.5 52c7.33301 14 11 22.333 11 25c1.33301 10 8 14 20 12c4 3.33301 9.33301 4.33301 16 3l8 -8.5c5.33301 -5.66699 10.333 -11.834 15 -18.501c4.66699 -6 6.83398 -12 6.50098 -18s-1.5 -12.667 -3.5 -20c-1.33301 -8.66699 -3.5 -16.167 -6.5 -22.5
s-8.66699 -15.166 -17 -26.499l-38.5 -53l-16.5 -25.5l-21.5 -34c-7.33301 -11.667 -13.333 -21.834 -18 -30.501s-7 -13.667 -7 -15c-0.666992 -2.66699 -2.83398 -6.5 -6.50098 -11.5s-7.16699 -11.5 -10.5 -19.5c-4 -4.66699 -9.16699 -11.667 -15.5 -21l-20 -29.5
l-18 -27c-5 -7.66699 -7.5 -12.167 -7.5 -13.5c-0.666992 -2 -1.5 -4.33301 -2.5 -7s-3.16699 -5 -6.5 -7c-2 0.666992 -3.66699 -0.833008 -5 -4.5l-2 -5.5c0.666992 -5.33301 -7.66602 -22 -24.999 -50l-28.5 -56l-40 -78.5l-41.5 -82.5
c-13.333 -26.667 -24.5 -50 -33.5 -70s-14.167 -33.667 -15.5 -41c-2.66699 -15.333 -6.33398 -27.333 -11.001 -36s-9.66699 -14 -15 -16z" />
    <glyph glyph-name="zero" unicode="0" horiz-adv-x="450" 
d="M289 9c-4.66699 0 -12.8291 1.83496 -24.4961 5.50195s-23.5 8.16699 -35.5 13.5s-21.667 11 -29 17c-20 18 -35 38.167 -45 60.5s-16.167 45.5 -18.5 69.5s-1.83301 47 1.5 69c7.33301 42.667 22.833 85 46.5 127s51.834 77 84.501 105c17.333 15.333 34 28 50 38
s34 17.333 54 22c7.33301 2 17 3.16699 29 3.5s20.333 0.5 25 0.5c13.333 0 27.666 -2.83301 42.999 -8.5s28.666 -12.334 39.999 -20.001s17 -14.834 17 -21.501c0 -4.66699 -0.333008 -9 -1 -13s-3.66699 -4.66699 -9 -2h-10l10 -29c2.66699 -5.33301 5 -12.5 7 -21.5
s3 -17.167 3 -24.5c0 -6.66699 -1 -16.5 -3 -29.5s-4.5 -26.833 -7.5 -41.5s-6.16699 -28.334 -9.5 -41.001s-6 -22 -8 -28c-2 -4 -3.16699 -7.83301 -3.5 -11.5s-0.5 -6.83398 -0.5 -9.50098c-2.66699 -5.33301 -7 -14.666 -13 -27.999s-10.333 -22.666 -13 -27.999
c-2.66699 -2.66699 -4.83398 -5 -6.50098 -7s-1.16699 -4.33301 1.5 -7c0 -1.33301 -1.66699 -5.5 -5 -12.5s-6.83301 -13.5 -10.5 -19.5s-6.5 -9 -8.5 -9l-2.5 -0.5c-1.66699 -0.333008 -2.5 -1.83301 -2.5 -4.5s-4.33301 -9.5 -13 -20.5s-19.334 -22.5 -32.001 -34.5
c-6.66699 -6.66699 -16.834 -14.667 -30.501 -24s-27.167 -17.5 -40.5 -24.5s-23.333 -10.5 -30 -10.5zM286.005 94.002c7.33301 0 14.333 1.16406 21 3.49707s12.334 5.83301 17.001 10.5c12 8 24.333 19.5 37 34.5s22.667 31.167 30 48.5
c7.33301 10 13.166 20.5 17.499 31.5s11.166 29.833 20.499 56.5c5.33301 7.33301 9 16.333 11 27s3 19.667 3 27s0.166992 17.333 0.5 30s1.83301 23.334 4.5 32.001c0 17.333 -0.333008 28 -1 32s-3.33398 8.66699 -8.00098 14c-2.66699 2 -6.16699 4 -10.5 6
s-8.83301 3 -13.5 3s-11.667 -1.66699 -21 -5s-16.666 -6.66602 -21.999 -9.99902c-4.66699 -2.66699 -9.83398 -3 -15.501 -1s-8.5 4.66699 -8.5 8c0 9.33301 -5 9.33301 -15 0s-22.333 -23 -37 -41c-12 -12 -22.167 -24.167 -30.5 -36.5s-12.5 -19.833 -12.5 -22.5
s-1 -6 -3 -10s-4 -8.66699 -6 -14c-3.33301 -4.66699 -7.33301 -12.334 -12 -23.001l-13.5 -31.5c-4.33301 -10.333 -7.16602 -18.166 -8.49902 -23.499v-21.5v-32.5c0 -11.333 0.5 -20.166 1.5 -26.499s2.33301 -11.5 4 -15.5s4.16699 -9.33301 7.5 -16
c2.66699 -4.66699 6.83398 -10.167 12.501 -16.5s9.5 -10.833 11.5 -13.5c7.33301 -6.66699 12.5 -9.66699 15.5 -9z" />
    <glyph glyph-name="one" unicode="1" horiz-adv-x="450" 
d="M349 -15c-2 -1.33301 -6.16699 -1.66211 -12.5 -0.995117s-12.833 2.5 -19.5 5.5s-12.334 6.5 -17.001 10.5c-2.66699 2.66699 -5 5.83398 -7 9.50098s-2.66699 10.167 -2 19.5s3 24.333 7 45c2.66699 13.333 6 27.166 10 41.499l10.5 36.5l4.5 15
c3.33301 1.33301 8.16602 11.333 14.499 30s13.5 41.334 21.5 68.001l14 47l20 64c6 19.333 11.5 35.166 16.5 47.499l7.5 18.5l-13 -7.5l-33 -20c-13.333 -8.33301 -27 -17.833 -41 -28.5c-11.333 -6.66699 -24.333 -15.834 -39 -27.501s-28 -21.167 -40 -28.5
c-18 -14 -29.833 -22.667 -35.5 -26s-11.5 -3.33301 -17.5 0c-8.66699 7.33301 -16 17.166 -22 29.499s-7 21.833 -3 28.5c1.33301 0.666992 5.66602 3.5 12.999 8.5l25.5 18l26.5 19c8 5.66699 13.667 9.5 17 11.5c2 0 5.66699 2.33301 11 7s11 9 17 13
c3.33301 4 15 13 35 27l65 47c24.667 15.333 46.334 27.666 65.001 36.999s29.334 13.666 32.001 12.999c2 0 6.16699 -2 12.5 -6s12.666 -8.66699 18.999 -14s9.83301 -10 10.5 -14c4 -4.66699 2 -15.334 -6 -32.001c-2.66699 -6 -7 -16.833 -13 -32.5
s-12.5 -33.667 -19.5 -54l-20 -60c-6.33301 -19.667 -11.5 -36.5 -15.5 -50.5c-5.33301 -20.667 -10.166 -36.667 -14.499 -48l-12 -32.5c-3.66699 -10.333 -7.83398 -24.5 -12.501 -42.5c-4.66699 -10.667 -9.5 -24.167 -14.5 -40.5s-9.5 -32.333 -13.5 -48
s-7 -28.5 -9 -38.5c-5.33301 -14.667 -9.66602 -28.5 -12.999 -41.5s-6.66602 -20.833 -9.99902 -23.5z" />
    <glyph glyph-name="two" unicode="2" horiz-adv-x="450" 
d="M161 13c-2.66699 1.33301 -6.99609 4.66406 -12.9961 9.99707s-11.833 11.333 -17.5 18s-9.5 12 -11.5 16c-2 3.33301 -1.83301 9.33301 0.5 18s4.83301 13 7.5 13c2 -1.33301 5 1 9 7s7.83301 12.5 11.5 19.5s5.5 11.167 5.5 12.5
c0.666992 2.66699 2.5 4.83398 5.5 6.50098s5.83301 3.5 8.5 5.5c3.33301 5.33301 7.83301 10.833 13.5 16.5s10.167 10.5 13.5 14.5c5.33301 6.66699 15 16.667 29 30l41 41l37 40.5c10.667 11.667 16.334 19.834 17.001 24.501l3.5 3.5
c2.33301 2.33301 5.16602 4.5 8.49902 6.5s7.83301 5.33301 13.5 10s10.5 9 14.5 13c1.33301 5.33301 4.66602 12 9.99902 20s11.333 15.333 18 22c5.33301 8 10.333 16.833 15 26.5s7.66699 16.834 9 21.501c2 7.33301 1.66699 11.833 -1 13.5
s-11.334 4.83398 -26.001 9.50098c-16 5.33301 -31.833 6.66602 -47.5 3.99902s-35.167 -12.334 -58.5 -29.001c-9.33301 -2 -17.833 -4.66699 -25.5 -8s-14.167 -4.66602 -19.5 -3.99902c-2.66699 1.33301 -5.66699 4.33301 -9 9s-7 9 -11 13l-10 36l31 17
c27.333 17.333 53 30 77 38s45.333 9 64 3c7.33301 0 14 -0.833008 20 -2.5l9 -2.5c5.33301 0.666992 12.833 -2 22.5 -8s19.167 -13.667 28.5 -23s16 -18.666 20 -27.999c10.667 -16 14.5 -34.5 11.5 -55.5s-12.833 -43.833 -29.5 -68.5
c-3.33301 -4 -10.666 -12.333 -21.999 -25l-38.5 -42.5l-39 -41.5l-22.5 -23c-4.66699 -2 -12.5 -8.5 -23.5 -19.5l-35 -36.5l-31 -34.5c-8.33301 -9.66699 -11.833 -14.5 -10.5 -14.5c-0.666992 -2.66699 2 -3 8 -1l18 6c10 3.33301 22.333 6.5 37 9.5s29.5 5.66699 44.5 8
s28.167 3.83301 39.5 4.5s18 0 20 -2c1.33301 -3.33301 2.5 -4.5 3.5 -3.5l1.5 1.5c1.33301 4.66699 9.83301 6 25.5 4s29.834 -5 42.501 -9c7.33301 -2 13.166 -4.33301 17.499 -7s6.5 -5.33398 6.5 -8.00098l2.5 -4.5c1.66699 -3 4.5 -6.83301 8.5 -11.5
c10.667 -8.66699 11.167 -16.834 1.5 -24.501s-27.834 -9.16699 -54.501 -4.5c-17.333 0 -31.666 -1 -42.999 -3c-2.66699 -1.33301 -8.33398 -2 -17.001 -2s-17 -0.333008 -25 -1c-12 1.33301 -24 0.833008 -36 -1.5s-26.333 -6.16602 -43 -11.499l-28 -9
c-12.667 -4 -26.334 -8 -41.001 -12s-27.834 -7 -39.501 -9s-19.167 -2.66699 -22.5 -2z" />
    <glyph glyph-name="three" unicode="3" horiz-adv-x="450" 
d="M244 6c-16.667 0 -32.8359 2.67285 -48.5029 8.00586s-28.167 12 -37.5 20s-13.666 16 -12.999 24c0.666992 10.667 3.83398 18.167 9.50098 22.5s15.834 5.5 30.501 3.5c22.667 -4.66699 46.167 -5.83398 70.5 -3.50098s47 7.66602 68 15.999s37.833 18.833 50.5 31.5
c18 17.333 27 33 27 47s-9.66699 27.333 -29 40c-8.66699 6 -19.834 11.667 -33.501 17s-27.167 9.5 -40.5 12.5s-24.666 4.16699 -33.999 3.5c-6 -0.666992 -12.5 0.166016 -19.5 2.49902s-14.833 5.83301 -23.5 10.5c-4 4.66699 -7.66699 11.5 -11 20.5
s-5.66602 14.833 -6.99902 17.5c-0.666992 3.33301 1.5 7 6.5 11s15.333 10.667 31 20s38.834 22.333 69.501 39l65 36c15.333 8.66699 27.5 15.834 36.5 21.501s16.5 11.167 22.5 16.5c9.33301 11.333 13.666 19.333 12.999 24s-9.66699 8.66699 -27 12
c-16.667 1.33301 -30.834 1.83301 -42.501 1.5s-17.5 -1.83301 -17.5 -4.5h-0.5h-3.5c-3.33301 1.33301 -10.666 1 -21.999 -1s-22.166 -4.33301 -32.499 -7s-15.833 -5 -16.5 -7c-0.666992 -1.33301 -5 -3.5 -13 -6.5s-15.833 -5.5 -23.5 -7.5s-12.5 -3 -14.5 -3
c-3.33301 1.33301 -7.16602 5.5 -11.499 12.5s-7.83301 14.667 -10.5 23s-3.33398 14.166 -2.00098 17.499c1.33301 2.66699 5.83301 6.5 13.5 11.5s16.667 10.5 27 16.5s19.166 10.667 26.499 14c9.33301 2.66699 23 5 41 7s36 3.66699 54 5s31 1.66602 39 0.999023
c30.667 -3.33301 55 -11.333 73 -24s29.333 -31.334 34 -56.001c2 -9.33301 2.16699 -18.333 0.5 -27s-5.5 -17.334 -11.5 -26.001s-15.667 -19 -29 -31c-16.667 -10.667 -29.834 -19.667 -39.501 -27s-23.167 -15.333 -40.5 -24
c-4.66699 -3.33301 -11.667 -7.16602 -21 -11.499l-26 -12c-8 -3.66699 -12 -6.16699 -12 -7.5l7.5 -2c5 -1.33301 10.833 -3 17.5 -5s11.667 -4.66699 15 -8c19.333 -6.66699 37 -17.834 53 -33.501s27.333 -28.167 34 -37.5c9.33301 -20.667 11.5 -42.334 6.5 -65.001
s-15.5 -44 -31.5 -64s-35.667 -37 -59 -51c-18.667 -10.667 -41 -18.667 -67 -24s-49.667 -8.66602 -71 -9.99902z" />
    <glyph glyph-name="four" unicode="4" horiz-adv-x="450" 
d="M326 -6c-3.33301 2 -8.33203 7.50293 -14.999 16.5029s-9 23.833 -7 44.5c1.33301 19.333 4.83301 40.166 10.5 62.499s11.167 41.5 16.5 57.5l10.5 31.5c3 9 4.5 14.167 4.5 15.5l-11 -2c-7.33301 -1.33301 -16 -3.33301 -26 -6
c-32.667 -7.33301 -57.834 -10.5 -75.501 -9.5s-32.167 11.167 -43.5 30.5c-4 4 -8.5 11 -13.5 21s-8.33301 20.5 -10 31.5s0.833008 19.833 7.5 26.5c6 14 11 25 15 33l9.5 18.5c2.33301 4.33301 3.5 7.83301 3.5 10.5c0 1.33301 0.833008 3.33301 2.5 6
s3.16699 5.33398 4.5 8.00098c4.66699 8.66699 12.334 21 23.001 37l35 50l35 47c10.667 14 18.334 23.333 23.001 28c4.66699 2 11.334 4.66699 20.001 8s15 4.33301 19 3c4 -0.666992 8 -4.5 12 -11.5s7.33301 -13.833 10 -20.5s3.66699 -11 3 -13l-1.5 -1.5
c-1 -1 -2.16699 -2.83301 -3.5 -5.5c-2 -4 -5.66699 -9.66699 -11 -17s-12.666 -16 -21.999 -26c-8 -10.667 -17.333 -23.834 -28 -39.501l-31.5 -48.5c-10.333 -16.667 -19.333 -32 -27 -46s-12.5 -25 -14.5 -33c-2.66699 -9.33301 -3.33398 -15.666 -2.00098 -18.999
s4.66602 -5.33301 9.99902 -6c6.66699 0 14.5 0.666992 23.5 2s19.5 3.66602 31.5 6.99902c9.33301 1.33301 17.5 3 24.5 5s12.833 4 17.5 6c5.33301 1.33301 10.166 2.83301 14.499 4.5s7.83301 3.83398 10.5 6.50098c5.33301 5.33301 10 13.166 14 23.499
s9.33301 23.166 16 38.499c5.33301 12.667 11.166 25.5 17.499 38.5s12.5 24.5 18.5 34.5c16.667 33.333 29.5 56.5 38.5 69.5s14.167 19.5 15.5 19.5c2.66699 0 7.16699 -2.16699 13.5 -6.5s12.166 -9.16602 17.499 -14.499c5.33301 -4.66699 9.33301 -9 12 -13s3 -8 1 -12
c-0.666992 -8 -2.5 -15.667 -5.5 -23s-7.5 -16 -13.5 -26s-13.333 -23 -22 -39c-9.33301 -18 -18.5 -37 -27.5 -57l-26.5 -60l-24 -57.5c-7.33301 -18.333 -13.666 -34.833 -18.999 -49.5c-12.667 -34.667 -21.667 -60.834 -27 -78.501s-7.83301 -30.167 -7.5 -37.5
s1.5 -13.666 3.5 -18.999c0.666992 -10 -1.83301 -18.833 -7.5 -26.5s-12.5 -13.334 -20.5 -17.001s-15 -3.83398 -21 -0.500977z" />
    <glyph glyph-name="five" unicode="5" horiz-adv-x="439" 
d="M170 19c-12 8.66699 -18.0078 16 -18.0078 22c-2.66699 4 -5.66699 6 -9 6c-2 -0.666992 -3.83301 2.16602 -5.5 8.49902s-3 13.5 -4 21.5s-1.16699 13.333 -0.5 16c2.66699 5.33301 7.33398 9 14.001 11s13.5 2.5 20.5 1.5s10.833 -4.16699 11.5 -9.5
c1.33301 -5.33301 6.5 -9.66602 15.5 -12.999s20.833 -4.66602 35.5 -3.99902c18.667 0.666992 36.5 4.16699 53.5 10.5s32.833 15.166 47.5 26.499s27.334 24 38.001 38c4.66699 9.33301 9 21.666 13 36.999s6.66699 29 8 41s0.333008 18 -3 18l-1.5 7
c-1 4.66699 -2.5 9.66699 -4.5 15c-3.33301 10 -11 20.167 -23 30.5s-23.667 17.833 -35 22.5c-4.66699 1.33301 -14 1.66602 -28 0.999023s-26 -1.66699 -36 -3c-10.667 -0.666992 -17.834 -0.5 -21.501 0.5l-5.5 1.5c-3.33301 0.666992 -8.66602 3.66699 -15.999 9
s-14 11.166 -20 17.499s-9 11.166 -9 14.499c1.33301 4.66699 4.83301 12.5 10.5 23.5s12.834 23.167 21.501 36.5s17.5 26.166 26.5 38.499s17.5 22.5 25.5 30.5c20 22 43.667 38.5 71 49.5s54.666 15.833 81.999 14.5c19.333 -0.666992 33.666 -2.83398 42.999 -6.50098
s18 -10.834 26 -21.501c5.33301 -9.33301 7.33301 -18.666 6 -27.999s-4.5 -16.166 -9.5 -20.499s-11.5 -4.5 -19.5 -0.5c-9.33301 6 -22.166 8.33301 -38.499 7s-33.166 -4.66602 -50.499 -9.99902c-14 -5.33301 -26.5 -11.166 -37.5 -17.499
s-18.167 -13.166 -21.5 -20.499c-2.66699 -2 -4.5 -4 -5.5 -6s-2.83301 -2.66699 -5.5 -2l-3 -3.5c-2 -2.33301 -3 -4.83301 -3 -7.5c-3.33301 -4 -5.5 -6.83301 -6.5 -8.5s-2.83301 -1.16699 -5.5 1.5v-3c0 -2 -0.333008 -4.33301 -1 -7c-0.666992 -4.66699 0.5 -8 3.5 -10
s10.833 -3.66699 23.5 -5c16 -2.66699 28.333 -5.16699 37 -7.5s21.334 -8.5 38.001 -18.5c18.667 -10.667 32.834 -26 42.501 -46s15.834 -42 18.501 -66s2.33398 -47.333 -0.999023 -70c-2 -14.667 -4 -26 -6 -34s-7.66699 -19 -17 -33
c-15.333 -21.333 -34.666 -40.166 -57.999 -56.499s-47.833 -29.166 -73.5 -38.499s-50 -14.333 -73 -15s-41.833 4 -56.5 14z" />
    <glyph glyph-name="six" unicode="6" horiz-adv-x="464" 
d="M282 21c-22 -6 -41.9971 -8.16602 -59.9971 -6.49902s-34 9.16699 -48 22.5c-9.33301 7.33301 -18 16.333 -26 27s-13 22.667 -15 36c-3.33301 10 -5.33301 18 -6 24s-0.166992 13.333 1.5 22l7.5 40c5.33301 24 10 42.833 14 56.5s12 28.834 24 45.501
c5.33301 14 11.5 28.167 18.5 42.5s12.167 23.5 15.5 27.5l15 21c6.66699 9.33301 13.667 18 21 26l18.5 24.5l8.5 11.5c3.33301 2 6.5 4 9.5 6s6.16699 5.33301 9.5 10c5.33301 6 13.666 13.333 24.999 22s24.166 17.334 38.499 26.001s28.5 16 42.5 22
s26.333 9.66699 37 11c21.333 7.33301 31.333 7 30 -1l8 -8c5.33301 -5.33301 10.666 -8.66602 15.999 -9.99902c2.66699 -0.666992 4.83398 -2.83398 6.50098 -6.50098s3.5 -7.16699 5.5 -10.5c1.33301 -5.33301 -0.5 -11.666 -5.5 -18.999s-12.167 -15.333 -21.5 -24
c-9.33301 -6.66699 -15.833 -10.334 -19.5 -11.001s-6.83398 0.333008 -9.50098 3c0.666992 2.66699 -0.666016 4.5 -3.99902 5.5l-5 1.5c-4 1.33301 -12 -0.5 -24 -5.5s-24.5 -11.833 -37.5 -20.5s-24.5 -18.334 -34.5 -29.001c-6 -5.33301 -11.333 -10.666 -16 -15.999
s-7.66699 -9.33301 -9 -12c-8.66699 -8.66699 -16.334 -17.167 -23.001 -25.5l-10 -12.5c2 -4 6.83301 -5 14.5 -3s11.834 4.33301 12.501 7c0 2.66699 7.5 6.16699 22.5 10.5s30.167 7.16602 45.5 8.49902c6 2.66699 14.167 3 24.5 1l25.5 -5
c14.667 -2.66699 24.667 -5.33398 30 -8.00098s12 -9 20 -19c13.333 -12.667 22.5 -26 27.5 -40s7.16699 -29.667 6.5 -47c0 -10.667 -1 -20 -3 -28s-6.66699 -16.333 -14 -25c-5.33301 -8.66699 -12.333 -19.334 -21 -32.001s-17.167 -24 -25.5 -34s-15.5 -17 -21.5 -21
c-2.66699 -1.33301 -5.16699 -2.83301 -7.5 -4.5l-3.5 -2.5c-0.666992 -4 -5.83398 -9.5 -15.501 -16.5s-21.5 -14.5 -35.5 -22.5s-28.167 -15.167 -42.5 -21.5s-26.833 -10.833 -37.5 -13.5zM220.003 89.001c11.333 -2 19.8301 -2.99707 25.4971 -2.99707s16.167 3 31.5 9
c5.33301 1.33301 10.166 2.66602 14.499 3.99902s7.5 1.66602 9.5 0.999023l13 9c8.66699 6 18.667 12.333 30 19c32.667 20.667 57.334 43.167 74.001 67.5s23.334 44.833 20.001 61.5c0.666992 4.66699 0 9.5 -2 14.5s-3 8.5 -3 10.5c-1.33301 0 -4.33301 0.666992 -9 2
s-10 2.33301 -16 3c-7.33301 2 -14.333 2.83301 -21 2.5s-16.5 -1.66602 -29.5 -3.99902s-33.5 -7.16602 -61.5 -14.499c-4.66699 -0.666992 -9.83398 -2.33398 -15.501 -5.00098s-11.167 -4.66699 -16.5 -6c-1.33301 -2 -4.66602 -4.33301 -9.99902 -7s-10 -4.66699 -14 -6
c-7.33301 -0.666992 -13.333 -6.33398 -18 -17.001s-10.667 -31.334 -18 -62.001c-3.33301 -21.333 -5.5 -35.5 -6.5 -42.5s0.166992 -13.167 3.5 -18.5c0.666992 -6.66699 2.83398 -11 6.50098 -13s7.83398 -3.66699 12.501 -5z" />
    <glyph glyph-name="seven" unicode="7" horiz-adv-x="447" 
d="M232 -23c-8 1.33301 -16.6611 6.48926 -25.9941 15.4893s-16 18.167 -20 27.5c-2.66699 12.667 2.66602 34.834 15.999 66.501s31.333 68.834 54 111.501c14.667 24 22 38 22 42s-6.66699 6 -20 6l-23 5c-9.33301 2 -15 4.33301 -17 7
c-10.667 5.33301 -16.834 11.166 -18.501 17.499s0.5 9.83301 6.5 10.5c5.33301 2.66699 7 6.33398 5 11.001s-2.33301 8.33398 -1 11.001c2.66699 0.666992 5.16699 0.666992 7.5 0s5.83301 -1.33398 10.5 -2.00098c9.33301 0 17.666 -0.333008 24.999 -1
s14.666 -1 21.999 -1h12.5c5 0 9.5 -0.333008 13.5 -1c9.33301 -1.33301 15.666 -0.5 18.999 2.5s9.66602 10.5 18.999 22.5c5.33301 9.33301 12.666 20.333 21.999 33s18.333 27.334 27 44.001c26.667 37.333 41.5 62.333 44.5 75s-3.16699 18.334 -18.5 17.001
c-10.667 -1.33301 -22.5 -3.83301 -35.5 -7.5s-32.167 -10.167 -57.5 -19.5c-20.667 -8.66699 -36.167 -13.834 -46.5 -15.501s-19.166 -0.5 -26.499 3.5c-4 0.666992 -7.16699 4 -9.5 10s-3.66602 12.833 -3.99902 20.5s-0.166016 13.834 0.500977 18.501
c1.33301 7.33301 15 15.333 41 24s56 17.334 90 26.001c15.333 2.66699 31.833 4.33398 49.5 5.00098s33.5 0 47.5 -2s22.333 -5.66699 25 -11l2.5 -2.5c1.66699 -1.66699 2.83398 -1.16699 3.50098 1.5c2.66699 -0.666992 4.66699 -3.16699 6 -7.5s4 -9.83301 8 -16.5
c6.66699 -11.333 10.834 -19.666 12.501 -24.999s1.5 -13 -0.5 -23c-2 -7.33301 -5.33301 -14.666 -10 -21.999s-8.33398 -12 -11.001 -14c-3.33301 -2.66699 -5.83301 -5.66699 -7.5 -9l-2.5 -5c-0.666992 -2.66699 -2.66699 -5.16699 -6 -7.5s-6.66602 -5.5 -9.99902 -9.5
c-0.666992 -2.66699 -2.16699 -5.66699 -4.5 -9s-3.83301 -6 -4.5 -8c-0.666992 -0.666992 -3.33398 -4.5 -8.00098 -11.5l-16.5 -25l-17.5 -26.5c-5.33301 -8 -9 -13.667 -11 -17c-9.33301 -8.66699 -14 -15 -14 -19s4.33301 -8 13 -12
c11.333 -4.66699 20.666 -10.167 27.999 -16.5s12.333 -14.166 15 -23.499c0.666992 -15.333 -1.66602 -24 -6.99902 -26c-3.33301 -4.66699 -8.83301 -7.5 -16.5 -8.5s-12.5 -0.166992 -14.5 2.5c-2 4 -6.5 7.83301 -13.5 11.5s-13.833 6.5 -20.5 8.5s-11 3 -13 3
c-2.66699 -1.33301 -5.33398 -3.83301 -8.00098 -7.5s-5.66699 -7.5 -9 -11.5c-4.66699 -6.66699 -10.667 -17.167 -18 -31.5l-22 -41.5c-7.33301 -13.333 -13 -23.333 -17 -30c-0.666992 -3.33301 -2.5 -6.66602 -5.5 -9.99902s-5.16699 -7.33301 -6.5 -12
c-2.66699 -4.66699 -5 -11.5 -7 -20.5s-3 -17 -3 -24s1 -10.833 3 -11.5c5.33301 1.33301 9.16602 0.833008 11.499 -1.5s4.16602 -6.16602 5.49902 -11.499c3.33301 -4.66699 1.33301 -10.667 -6 -18s-16.333 -13.5 -27 -18.5s-19.667 -6.83301 -27 -5.5z" />
    <glyph glyph-name="eight" unicode="8" horiz-adv-x="450" 
d="M180 -42c-4.66699 0.666992 -10.5 3.16699 -17.5 7.5s-13.833 9.33301 -20.5 15l-16 13.5c-4.66699 11.333 -8 20 -10 26s-2 16 0 30c0 8 0.833008 17.333 2.5 28s4.83398 19.334 9.50098 26.001c4.66699 13.333 12.167 29 22.5 47s21.666 36 33.999 54l35 49.5
c11 15 19.167 25.833 24.5 32.5c7.33301 9.33301 10.833 17.166 10.5 23.499s-7.16602 18.5 -20.499 36.5c-2.66699 7.33301 -5.66699 12.833 -9 16.5s-3.66602 5.5 -0.999023 5.5l-2.5 3.5c-1.66699 2.33301 -3.5 5.83301 -5.5 10.5
c-10 9.33301 -14.833 23.666 -14.5 42.999s5.16602 38.333 14.499 57c10.667 24 24.167 43.833 40.5 59.5s34.5 24.834 54.5 27.501c7.33301 -0.666992 20 -2.66699 38 -6s36.667 -7 56 -11s34.666 -8.66699 45.999 -14c8 -3.33301 18 -9.16602 30 -17.499
s23 -16.5 33 -24.5s15.333 -14 16 -18c0 -2 1.16699 -4.16699 3.5 -6.5s3.83301 -5.16602 4.5 -8.49902c4 -7.33301 6.16699 -16.833 6.5 -28.5s-0.5 -23.167 -2.5 -34.5s-5 -20 -9 -26c-16.667 -18.667 -28.334 -29.334 -35.001 -32.001
c-3.33301 -2.66699 -7.16602 -6 -11.499 -10s-9.16602 -6.66699 -14.499 -8c-3.33301 -4.66699 -6.5 -8.66699 -9.5 -12s-5.83301 -5 -8.5 -5c-2.66699 2 -5.33398 3.16699 -8.00098 3.5s-4 -0.833984 -4 -3.50098c0 -1.33301 -4.5 -4.33301 -13.5 -9
s-18.167 -8.66699 -27.5 -12s-15.333 -4.33301 -18 -3h-3c-2 0 -5 -1.33301 -9 -4c-8.66699 1.33301 -3.66699 -9.33398 15 -32.001c15.333 -28.667 26.833 -56.167 34.5 -82.5s6.5 -46.5 -3.5 -60.5c-12.667 -28.667 -26.334 -52.167 -41.001 -70.5
s-26.334 -27.166 -35.001 -26.499l-4.5 -3c-3 -2 -6.16699 -4 -9.5 -6c-1.33301 -4.66699 -4.16602 -7.83398 -8.49902 -9.50098s-8.16602 -2.16699 -11.499 -1.5c-6 2.66699 -16.333 -0.666016 -31 -9.99902c-8.66699 -6 -19.667 -10.833 -33 -14.5s-26 -6 -38 -7
s-20.333 -0.5 -25 1.5zM201 26c6.66699 -0.666992 15.5 1.00098 26.5 5.00098s23 9.5 36 16.5s24.5 13.833 34.5 20.5c22.667 18 38 35.833 46 53.5s8.66699 35.5 2 53.5l-13 26c-4.66699 9.33301 -8.66699 16.666 -12 21.999c-4 6 -7.5 10.333 -10.5 13s-6.16699 5 -9.5 7
l-5.5 -6c-3.66699 -4 -7.16699 -9.66699 -10.5 -17c-7.33301 -9.33301 -12.166 -15.833 -14.499 -19.5s-4.83301 -7.83398 -7.5 -12.501l-13 -13l-9 -9c0 -2 -2 -7.83301 -6 -17.5s-8.66699 -19.167 -14 -28.5c-14.667 -25.333 -23.834 -47.166 -27.501 -65.499
s-1.16699 -27.833 7.5 -28.5zM356 353.001c14 12.667 25.333 20.002 34 22.002s15 -0.666992 19 -8c1.33301 -2.66699 8.33301 -0.5 21 6.5s24.334 16.167 35.001 27.5c4 7.33301 5.5 11.666 4.5 12.999s-2.16699 7.33301 -3.5 18c0.666992 6.66699 0.5 12 -0.5 16
s-4.33301 8 -10 12s-15.5 8.66699 -29.5 14c-41.333 14.667 -73.833 19.5 -97.5 14.5s-39.834 -20.5 -48.501 -46.5c-4 -12.667 -6 -23.334 -6 -32.001s2.66699 -18.667 8 -30c6 -2.66699 10 -6.16699 12 -10.5l3 -6.5c0 -6 2.66699 -9 8 -9c1.33301 -3.33301 6 -7 14 -11
s20.333 -0.666992 37 10z" />
    <glyph glyph-name="nine" unicode="9" horiz-adv-x="442" 
d="M312 -37c-3.33301 0.666992 -7.67188 2.67188 -13.0049 6.00488s-10.333 7.16602 -15 11.499s-7 7.16602 -7 8.49902c0.666992 3.33301 -0.666016 5 -3.99902 5l-2 6.5c-1.33301 4.33301 -1.66602 8.83301 -0.999023 13.5c0 2 0.333008 7 1 15s1 14.333 1 19
c1.33301 13.333 4.66602 31 9.99902 53s11.666 45.167 18.999 69.5s14.333 46.166 21 65.499c9.33301 24 13.5 38.667 12.5 44s-9.5 7.33301 -25.5 6c-20.667 -3.33301 -39.5 -0.333008 -56.5 9s-30.5 23 -40.5 41s-14.333 36.667 -13 56
c0.666992 10 2.83398 19.167 6.50098 27.5s9.83398 19.833 18.501 34.5c14 20.667 30.333 40 49 58s38.167 33.167 58.5 45.5s39.166 20.166 56.499 23.499c10.667 2 23.334 2.66699 38.001 2s26 -2.66699 34 -6c10 -4 20.5 -12.333 31.5 -25s20.167 -25.834 27.5 -39.501
s10 -24.5 8 -32.5c-4.66699 -22 -10 -38.667 -16 -50s-13.333 -21.666 -22 -30.999c-10.667 -9.33301 -23.167 -26.333 -37.5 -51s-28.666 -52.834 -42.999 -84.501s-26.833 -62.834 -37.5 -93.501c-9.33301 -28 -15.166 -53.333 -17.499 -76
s-1.16602 -34.334 3.50098 -35.001c2.66699 0 6.83398 -1 12.501 -3s9.83398 -3 12.501 -3c2 -2.66699 3 -5.66699 3 -9s-1.66699 -8.66602 -5 -15.999c-2 -4.66699 -6 -10.667 -12 -18s-12.833 -14.666 -20.5 -21.999s-14.834 -13.333 -21.501 -18s-11.334 -7 -14.001 -7z
M277.994 364.005c10 -10.667 22.501 -14.833 37.501 -12.5s30.833 10.166 47.5 23.499s32 31 46 53c8 9.33301 13.667 17.333 17 24s6.33301 11 9 13c8.66699 9.33301 14.334 16.833 17.001 22.5s1.66699 10.834 -3 15.501c-4.66699 7.33301 -10.167 11.333 -16.5 12
s-17.5 -2 -33.5 -8c-10.667 -2 -19.5 -5.33301 -26.5 -10l-31.5 -21c-2.66699 -2.66699 -5.33398 -4.16699 -8.00098 -4.5s-5.33398 -0.166016 -8.00098 0.500977l-2 -0.5c-1.33301 -0.333008 -2 -1.83301 -2 -4.5c3.33301 -6 -0.666992 -13.667 -12 -23
c-17.333 -18.667 -28.5 -34.834 -33.5 -48.501s-4.16699 -24.167 2.5 -31.5z" />
    <glyph glyph-name="colon" unicode=":" horiz-adv-x="198" 
d="M232 262c-14 -4.66699 -25.502 -6.83203 -34.502 -6.49902s-18.833 4.5 -29.5 12.5c-13.333 12.667 -17.666 25.667 -12.999 39s16.334 26.333 35.001 39c12.667 8 22.167 12.167 28.5 12.5s15.5 -2.16699 27.5 -7.5c21.333 -13.333 30.833 -28.333 28.5 -45
s-16.5 -31.334 -42.5 -44.001zM161.998 52.002c-14 -4.66699 -25.502 -6.83203 -34.502 -6.49902s-18.833 4.5 -29.5 12.5c-13.333 12.667 -17.666 25.667 -12.999 39s16.334 26.333 35.001 39c12.667 8 22.167 12.167 28.5 12.5s15.5 -2.16699 27.5 -7.5
c21.333 -13.333 30.833 -28.333 28.5 -45s-16.5 -31.334 -42.5 -44.001z" />
    <glyph glyph-name="semicolon" unicode=";" horiz-adv-x="198" 
d="M58 -84c-7.33301 0 -13.002 1.33398 -17.002 4.00098s-7.33301 6.33398 -10 11.001c0 4.66699 1.33301 8.66699 4 12s6.33398 7.33301 11.001 12c7.33301 6.66699 14.5 14.834 21.5 24.501l20.5 29.5c6.66699 10 11.667 18 15 24c2.66699 7.33301 5.16699 16 7.5 26
l7.5 33c0 5.33301 0.166992 10.166 0.5 14.499s1.83301 7.83301 4.5 10.5c5.33301 4.66699 11.166 8.16699 17.499 10.5s12.5 0.166016 18.5 -6.50098s10.667 -21 14 -43c2.66699 -14.667 2.66699 -28 0 -40s-8 -26.667 -16 -44
c-1.33301 -4.66699 -6.16602 -12.167 -14.499 -22.5s-16.5 -19.833 -24.5 -28.5s-13 -13 -15 -13c-2.66699 0 -5 -0.833008 -7 -2.5s-4.33301 -3.83398 -7 -6.50098s-6.66699 -4.16699 -12 -4.5s-11.666 -0.5 -18.999 -0.5zM231.998 262.001
c-14 -4.66699 -25.502 -6.83203 -34.502 -6.49902s-18.833 4.5 -29.5 12.5c-13.333 12.667 -17.666 25.667 -12.999 39s16.334 26.333 35.001 39c12.667 8 22.167 12.167 28.5 12.5s15.5 -2.16699 27.5 -7.5c21.333 -13.333 30.833 -28.333 28.5 -45
s-16.5 -31.334 -42.5 -44.001z" />
    <glyph glyph-name="less" unicode="&#x3c;" horiz-adv-x="446" 
d="M355 47l-55.5059 15c-14.333 4 -29.833 12.667 -46.5 26c-23.333 11.333 -42.166 21.666 -56.499 30.999s-28.166 23 -41.499 41l-34 41l-10 45c5.33301 1.33301 11.333 3.83301 18 7.5s10.334 5.83398 11.001 6.50098c8 4.66699 16.333 10 25 16
s20.334 13.667 35.001 23s35 21 61 35c30 15.333 54.167 28.666 72.5 39.999s31.166 20 38.499 26c4 4.66699 8.83301 8.16699 14.5 10.5s9.83398 3.5 12.501 3.5c4 0.666992 9.33301 -1.5 16 -6.5l14 -10.5c6.66699 -5.33301 12.167 -9 16.5 -11s6.83301 -5.66699 7.5 -11
l-3 -8.5c-2 -5.66699 -5.33301 -10.167 -10 -13.5c-9.33301 -6.66699 -20.833 -13.667 -34.5 -21l-51 -26.5c-20.333 -10.333 -45.166 -24.5 -74.499 -42.5c-18 -10.667 -32.5 -18.667 -43.5 -24s-18.5 -10.166 -22.5 -14.499s-5.33301 -10.833 -4 -19.5
c9.33301 -13.333 27.833 -27.333 55.5 -42s66.834 -29.667 117.501 -45c22 -6 39.333 -12.667 52 -20s21 -14.5 25 -21.5s4 -14.167 0 -21.5c-3.33301 -4.66699 -10.666 -8.5 -21.999 -11.5s-24.333 -4.33301 -39 -4s-29.334 2.83301 -44.001 7.5z" />
    <glyph glyph-name="equal" unicode="=" horiz-adv-x="446" 
d="M241 270c-4 0 -9.16699 0.167969 -15.5 0.500977s-15.166 1.83301 -26.499 4.5c-10 0 -17.5 1.16699 -22.5 3.5s-8.83301 5.83301 -11.5 10.5c-9.33301 10 -10.333 19 -3 27s27 12.333 59 13c26 5.33301 53.667 9 83 11s59.333 3 90 3c20.667 0 35.167 -1.5 43.5 -4.5
s16.166 -8.16699 23.499 -15.5c12 -10 16.333 -20.333 13 -31s-13 -14.667 -29 -12c-6.66699 -0.666992 -18.167 -1.33398 -34.5 -2.00098s-32.166 -1.66699 -47.499 -3c-4.66699 0 -13.834 -0.5 -27.501 -1.5s-29 -1.83301 -46 -2.5s-33.167 -1 -48.5 -1zM186 127.001
c-4 0 -9.16602 0.167969 -15.499 0.500977s-14.833 1.83301 -25.5 4.5c-10.667 0 -18.5 1.16699 -23.5 3.5s-8.83301 5.83301 -11.5 10.5c-9.33301 10 -10.333 19 -3 27s27 12.333 59 13c26 5.33301 53.667 9 83 11s59.333 3 90 3c20.667 0 35.167 -1.5 43.5 -4.5
s16.5 -8.16699 24.5 -15.5c11.333 -10 15.166 -20.333 11.499 -31s-13.167 -14.667 -28.5 -12c-6.66699 -0.666992 -19 -1.33398 -37 -2.00098s-34.667 -1.66699 -50 -3c-4.66699 0 -13.334 -0.5 -26.001 -1.5s-27.167 -1.83301 -43.5 -2.5s-32.166 -1 -47.499 -1z" />
    <glyph glyph-name="greater" unicode="&#x3e;" horiz-adv-x="446" 
d="M194 28c-4 -1.33301 -9.16797 0.668945 -15.501 6.00195s-10.833 9 -13.5 11c-6.66699 6 -12.167 9.83301 -16.5 11.5s-6.83301 5.16699 -7.5 10.5l3 8.5c2 5.66699 5.33301 10.5 10 14.5c10 6.66699 22 13.334 36 20.001l52 25.5c20.667 10.333 45.667 23.833 75 40.5
c18 10.667 32.333 18.334 43 23.001s18.167 9.16699 22.5 13.5s6.16602 10.833 5.49902 19.5c-9.33301 13.333 -27.666 27.666 -54.999 42.999s-66 31.333 -116 48c-22 7.33301 -39.167 14.5 -51.5 21.5s-20.5 14.167 -24.5 21.5s-3.66699 14.666 1 21.999
c3.33301 4 10.5 7.33301 21.5 10s24 4 39 4s29.833 -3 44.5 -9l54.5 -16c14.333 -4 29.833 -12.667 46.5 -26c22.667 -12 41 -23 55 -33s27.667 -24 41 -42l33 -42l9 -46c-5.33301 -0.666992 -11.333 -2.83398 -18 -6.50098s-10.667 -5.83398 -12 -6.50098
c-8 -4 -16.333 -8.83301 -25 -14.5s-20.5 -12.834 -35.5 -21.501l-61.5 -34c-30 -14.667 -54.333 -27.667 -73 -39s-31.667 -20 -39 -26c-4.66699 -4 -9.66699 -7.16699 -15 -9.5s-9.66602 -3.16602 -12.999 -2.49902z" />
    <glyph glyph-name="question" unicode="?" horiz-adv-x="374" 
d="M248 186c-10.667 1.33301 -18.3291 5.83203 -22.9961 13.499s-7 15.5 -7 23.5c0 1.33301 -0.333008 4.83301 -1 10.5s-0.333984 11.167 0.999023 16.5c0 4 2 10.333 6 19s8.33301 19 13 31c7.33301 13.333 18.666 28.333 33.999 45s28.333 29 39 37
c6 4.66699 10.333 7.83398 13 9.50098l4 2.5c0 2.66699 4.66699 7.83398 14 15.501s17.333 12.834 24 15.501l13 9c8.66699 6 15.334 11.333 20.001 16c15.333 15.333 26.666 29.5 33.999 42.5s13 27.833 17 44.5s8.33301 37.334 13 62.001c0.666992 23.333 0 38.333 -2 45
s-7 13 -15 19c-16 4.66699 -32.5 4.5 -49.5 -0.5s-33 -14.167 -48 -27.5s-27.5 -31.333 -37.5 -54c-4 -11.333 -6.16699 -19 -6.5 -23s0.5 -9.33301 2.5 -16c0 -5.33301 0.833008 -11.166 2.5 -17.499s2.5 -11.166 2.5 -14.499
c-2.66699 -0.666992 -7.83398 -1.83398 -15.501 -3.50098s-15.834 -2.33398 -24.501 -2.00098s-16.334 3.5 -23.001 9.5l-6.5 8.5c-4.33301 5.66699 -7.16602 9.83398 -8.49902 12.501c-4 5.33301 -5.83301 10.5 -5.5 15.5s0.5 12.5 0.5 22.5
c4.66699 13.333 11 28.166 19 44.499s18.333 32 31 47s27.334 26.833 44.001 35.5c14 6 26.667 12.167 38 18.5l17 9.5l7.5 0.5c5 0.333008 13.5 1.16602 25.5 2.49902c4 -0.666992 8.5 -0.666992 13.5 0s7.5 -0.666016 7.5 -3.99902h12h17c8 -2 17.167 -5.83301 27.5 -11.5
s20.166 -11.834 29.499 -18.501s16.333 -12.667 21 -18c4.66699 -14.667 6.66699 -32.834 6 -54.501s-4 -44.5 -10 -68.5s-13.833 -46.833 -23.5 -68.5s-21.167 -39.834 -34.5 -54.501c-4 -4 -11.333 -10.667 -22 -20l-33.5 -30.5c-11.667 -11 -21.167 -20.5 -28.5 -28.5
c-22.667 -12.667 -42.667 -31.667 -60 -57s-30.333 -50 -39 -74c-7.33301 -16 -14.333 -26.167 -21 -30.5s-14.667 -6.5 -24 -6.5zM223.005 6.99902c-13.333 -4.66699 -24.501 -6.83496 -33.501 -6.50195s-18.833 4.5 -29.5 12.5c-13.333 12.667 -17.666 25.667 -12.999 39
s16 26.333 34 39c12.667 8 22.167 12.167 28.5 12.5s15.833 -2.16699 28.5 -7.5c21.333 -13.333 30.833 -28.166 28.5 -44.499s-16.833 -31.166 -43.5 -44.499z" />
    <glyph glyph-name="at" unicode="@" horiz-adv-x="643" 
d="M307 -135c-22.667 0 -46.6738 4.99512 -72.0068 14.9951s-48.666 23.333 -69.999 40c-11.333 10.667 -22.666 23 -33.999 37s-21 28 -29 42c-5.33301 7.33301 -9.83301 17.166 -13.5 29.499s-5.83398 24.833 -6.50098 37.5c-0.666992 11.333 0 25.333 2 42s5 33 9 49
s8.33301 28.667 13 38c0 2 0.5 4.16699 1.5 6.5s1.83301 5.5 2.5 9.5c0 4 2.5 10.833 7.5 20.5s10.167 18.5 15.5 26.5l58.5 77c16.333 21.333 33.333 40.666 51 57.999s39.5 35.333 65.5 54c12.667 10 28.334 19.5 47.001 28.5s37.667 17 57 24s36.666 11.5 51.999 13.5
c2.66699 0.666992 6.83398 1 12.501 1s15.834 -0.666992 30.501 -2c20.667 -2 41.167 -7.16699 61.5 -15.5s37.5 -19.166 51.5 -32.499c26.667 -20.667 46.334 -43.167 59.001 -67.5s21 -45.166 25 -62.499c2.66699 -9.33301 4 -22.666 4 -39.999s-1 -34.5 -3 -51.5
s-5 -29.833 -9 -38.5c-7.33301 -16 -17 -32.667 -29 -50s-24.833 -33.833 -38.5 -49.5s-26.5 -28.834 -38.5 -39.501s-21.667 -17 -29 -19c-10 0 -23.167 2.33301 -39.5 7s-28.5 10.334 -36.5 17.001c1.33301 0 -5 4 -19 12l-7 -7.5c-4.66699 -5 -10.667 -10.5 -18 -16.5
c-9.33301 -8.66699 -20.5 -16.5 -33.5 -23.5s-25.333 -12.167 -37 -15.5s-20.167 -4.33301 -25.5 -3c-12.667 3.33301 -22.667 6.33301 -30 9s-14.166 6.83398 -20.499 12.501s-14.166 14.834 -23.499 27.501c-2.66699 6.66699 -5.5 15 -8.5 25s-4.5 17.333 -4.5 22
c0 6.66699 1 14 3 22l7 27c4 18 9.5 33.667 16.5 47s16.167 28 27.5 44c10.667 15.333 24.334 30 41.001 44s34.667 25 54 33c8 4 20 6 36 6c6 0 12 -0.666992 18 -2s12 -4 18 -8c4.66699 -0.666992 10.5 -4.16699 17.5 -10.5s13.833 -13.666 20.5 -21.999
s11.334 -15.833 14.001 -22.5c2 -10 3 -17.333 3 -22s-1 -12.667 -3 -24c-0.666992 -2.66699 -1.33398 -6 -2.00098 -10s-1.66699 -8 -3 -12c-0.666992 -5.33301 -2 -12 -4 -20s-3.66699 -13.667 -5 -17c-2 -6 -3.66699 -10.5 -5 -13.5s-1 -7.16699 1 -12.5
c-0.666992 -2.66699 1 -5.33398 5 -8.00098s8.66699 -4.83398 14 -6.50098s9.33301 -2.5 12 -2.5c3.33301 0 8 2.33301 14 7s12.333 11 19 19l26 28c6.66699 7.33301 12.334 14.833 17.001 22.5s9 17.834 13 30.501c0.666992 4 1.16699 9 1.5 15s0.5 12.333 0.5 19
c0 33.333 -7.16699 64.333 -21.5 93s-39.166 50.334 -74.499 65.001c-7.33301 3.33301 -15.833 5.5 -25.5 6.5s-19.5 1.5 -29.5 1.5c-14.667 0 -29.334 -1.16699 -44.001 -3.5s-29 -6.5 -43 -12.5c-8.66699 -2.66699 -19.167 -8.16699 -31.5 -16.5s-25.166 -18 -38.499 -29
s-25.833 -22.333 -37.5 -34s-21.5 -22.167 -29.5 -31.5c-28.667 -34 -51 -68.5 -67 -103.5s-26.333 -69.167 -31 -102.5c-2.66699 -20 -2.5 -35 0.5 -45s5.5 -17 7.5 -21c7.33301 -14.667 16.666 -27.167 27.999 -37.5s24.333 -20.166 39 -29.499
c15.333 -6 33.166 -10.333 53.499 -13s43.166 -3.33398 68.499 -2.00098c5.33301 -1.33301 8.83301 -2.83301 10.5 -4.5s2.16699 -5.5 1.5 -11.5c0 -0.666992 0.5 -3.66699 1.5 -9s3.16699 -11.666 6.5 -18.999c0 -6 -0.166992 -11.5 -0.5 -16.5
s-3.16602 -8.83301 -8.49902 -11.5c-4 -1.33301 -9.83301 -3 -17.5 -5s-15.667 -3.5 -24 -4.5s-15.5 -1.5 -21.5 -1.5zM374.993 93.9951c6 4 12.667 8.99707 20 14.9971s14 12.5 20 19.5s10 12.5 12 16.5c0 0.666992 2.33301 5.33398 7 14.001c4.66699 8 9.16699 17 13.5 27
s7.5 20 9.5 30c1.33301 1.33301 2.33301 3.33301 3 6s2 7 4 13c0 3.33301 -0.333008 6.33301 -1 9s-3.33398 5.33398 -8.00098 8.00098h1c-7.33301 1.33301 -16 2.5 -26 3.5s-18.333 -0.166992 -25 -3.5c-9.33301 -3.33301 -18.5 -10.666 -27.5 -21.999
s-17.167 -24.333 -24.5 -39s-13.166 -29.167 -17.499 -43.5s-6.16602 -26.5 -5.49902 -36.5c4 -8 10.167 -13.833 18.5 -17.5s17.166 -3.5 26.499 0.5z" />
    <glyph glyph-name="A" unicode="A" horiz-adv-x="508" 
d="M64 -33c-12 6.66699 -18.5 13.9941 -19.5 21.9941s3.5 22 13.5 42l47 93c16 30 27.167 53.5 33.5 70.5s10.333 29.167 12 36.5s2.5 12 2.5 14c-1.33301 6 -0.666016 10.833 2.00098 14.5s7 6.83398 13 9.50098c3.33301 3.33301 10.166 9.33301 20.499 18
s18.833 19 25.5 31c6 14 13 28.333 21 43l31 55.5l51 87.5c13.333 23.333 28.833 48.833 46.5 76.5s35.5 53.5 53.5 77.5c7.33301 9.33301 14.666 16.666 21.999 21.999s14 8 20 8c12.667 0 25.5 -3.5 38.5 -10.5s24.833 -15.667 35.5 -26s18 -20.5 22 -30.5
c3.33301 -5.33301 4.66602 -16.666 3.99902 -33.999s-2 -38.333 -4 -63s-4.33301 -51 -7 -79c-2 -27.333 -5 -59.666 -9 -96.999s-7.83301 -76.333 -11.5 -117s-6.5 -79.834 -8.5 -117.501s-2 -70.5 0 -98.5c0.666992 -6 0.666992 -11.667 0 -17s-1 -9.66602 -1 -12.999
c-4 -4 -12 -5.83301 -24 -5.5s-23.667 2.5 -35 6.5s-17.666 9 -18.999 15c-2 2 -3.16699 4 -3.5 6s-0.166016 9 0.500977 21s1.33398 32.667 2.00098 62l5 156l-13 -1c-6 0 -17 -0.666992 -33 -2s-33.333 -3.16602 -52 -5.49902s-35.834 -4.66602 -51.501 -6.99902
s-26.5 -4.5 -32.5 -6.5c-6 0 -13.167 -4 -21.5 -12s-16.166 -18.333 -23.499 -31c-2.66699 -9.33301 -7.5 -19.166 -14.5 -29.499s-10.5 -17.166 -10.5 -20.499c-4.66699 -3.33301 -8.33398 -7.33301 -11.001 -12l-4 -7c0 -4 -3.16699 -13.833 -9.5 -29.5s-14 -33 -23 -52
s-18.167 -35.5 -27.5 -49.5l-25 -36zM292 303.994l10.999 1.99902c7.33301 1.33301 16 2.83301 26 4.5s19 2.5 27 2.5c19.333 4.66699 34.666 8 45.999 10s20 3.16699 26 3.5s11 -0.5 15 -2.5c2.66699 -3.33301 5.16699 -5.33301 7.5 -6l3.5 -1
c0.666992 1.33301 1.83398 8.5 3.50098 21.5l6.5 48.5l8 60.5c2.66699 21 4.83398 40.667 6.50098 59s2.83398 32.5 3.50098 42.5c0.666992 12.667 0.666992 24.167 0 34.5l-1 15.5c-4 0 -11.833 -7.33301 -23.5 -22s-25 -33.834 -40 -57.501s-29.5 -49.167 -43.5 -76.5
c-6.66699 -12.667 -12.834 -23.167 -18.501 -31.5s-10.167 -12.5 -13.5 -12.5c-1.33301 -1.33301 -5 -6.66602 -11 -15.999s-12.333 -19.833 -19 -31.5s-12.167 -22.167 -16.5 -31.5s-5.5 -14.666 -3.5 -15.999z" />
    <glyph glyph-name="B" unicode="B" horiz-adv-x="522" 
d="M204 -67c-28.667 18.667 -46.3311 36.4971 -52.998 53.4971s-1 31.167 17 42.5c4 2.66699 11.333 2.16699 22 -1.5s19 -8.5 25 -14.5c13.333 -12 29 -19.5 47 -22.5s39.333 -1.16699 64 5.5c28 8.66699 50.5 20 67.5 34s34.833 32.333 53.5 55
c14 18 23.667 36.167 29 54.5s7.83301 35.333 7.5 51s-3.83301 27.167 -10.5 34.5c-16.667 23.333 -38.167 39.5 -64.5 48.5s-59.5 8.16699 -99.5 -2.5c-4.66699 -0.666992 -11.667 -2 -21 -4l-25 -5.5c-7.33301 -1.66699 -11.333 -2.5 -12 -2.5
c-4.66699 -1.33301 -8.33398 -2.33301 -11.001 -3s-5.83398 -4.5 -9.50098 -11.5s-9.16699 -20.5 -16.5 -40.5l-33 -91c-14 -40.667 -25.667 -69.5 -35 -86.5s-17.5 -24.667 -24.5 -23s-15.167 8.83398 -24.5 21.501c-5.33301 9.33301 -10.333 19.333 -15 30
s-3.66699 22 3 34c3.33301 6 6 11.5 8 16.5s4.66699 13.833 8 26.5c3.33301 10 9.83301 27.5 19.5 52.5l34.5 88l42 104.5l42.5 102l34.5 81c9.33301 20.667 15 35.667 17 45s1.33301 14.333 -2 15c0 3.33301 -1 6.5 -3 9.5s-2.66699 5.83301 -2 8.5
c0 2.66699 5.33301 6.33398 16 11.001s22.334 9 35.001 13s22 5.33301 28 4c3.33301 0 7.33301 0.166992 12 0.5s7 1.83301 7 4.5c2 0 8.33301 0.666992 19 2s22.334 1.33301 35.001 0c44.667 -4 80.667 -16.833 108 -38.5s40.666 -54.5 39.999 -98.5
c-0.666992 -11.333 -5.66699 -26.333 -15 -45s-21 -37.167 -35 -55.5s-28.333 -34.166 -43 -47.499l-27.5 -22.5c-9.66699 -7.66699 -18 -14 -25 -19l-10.5 -7.5l8 -3c5.33301 -2 11 -4 17 -6c30.667 -11.333 55.167 -25.666 73.5 -42.999s31.166 -41.333 38.499 -72
c2.66699 -10 2.83398 -22.333 0.500977 -37s-5.5 -29.167 -9.5 -43.5s-8.33301 -26.5 -13 -36.5c-4.66699 -4.66699 -8.33398 -9.5 -11.001 -14.5l-4 -7.5c0 -1.33301 -2.66699 -6.5 -8 -15.5s-11.666 -18.833 -18.999 -29.5s-14.333 -20 -21 -28l-26.5 -21.5
c-11 -9 -23.167 -17.667 -36.5 -26s-26.333 -14.833 -39 -19.5c-18.667 -8 -39.334 -13.5 -62.001 -16.5s-44 -3.33301 -64 -1s-36 7.16602 -48 14.499zM268.003 337.997l17.502 3.50098l38 8c13.667 3 23.834 5.83301 30.501 8.5c3.33301 2 8.16602 4.66699 14.499 8
s12.833 8.33301 19.5 15c9.33301 8.66699 19.833 19.5 31.5 32.5l35 41c11.667 14.333 21.167 28.833 28.5 43.5c15.333 24 23.666 41.5 24.999 52.5s-2.33398 20.833 -11.001 29.5c-6 7.33301 -15 12.666 -27 15.999s-24.667 4.83301 -38 4.5
s-25.666 -2.16602 -36.999 -5.49902c-8.66699 -2.66699 -15.334 -5.83398 -20.001 -9.50098s-7 -9.16699 -7 -16.5c0 -6 -1.83301 -12 -5.5 -18s-7.16699 -10.667 -10.5 -14c-0.666992 -4.66699 -2.66699 -9 -6 -13l-5 -6c0 -2.66699 -4.33301 -11.834 -13 -27.501
s-17.667 -36.167 -27 -61.5c-12 -28.667 -20.5 -50.167 -25.5 -64.5s-7.5 -23.166 -7.5 -26.499z" />
    <glyph glyph-name="C" unicode="C" horiz-adv-x="475" 
d="M219 -63c-10 4 -21.1689 9.16309 -33.502 15.4961s-24 14.833 -35 25.5s-19.833 24 -26.5 40c-6.66699 19.333 -11.167 38.333 -13.5 57s-3.16602 40.334 -2.49902 65.001c0 34.667 2.5 64.834 7.5 90.501s12.833 51.834 23.5 78.501c1.33301 2 3.83301 7.83301 7.5 17.5
s8 20.167 13 31.5l11.5 26c5.33301 11.333 13.5 26.5 24.5 45.5s22.833 37.5 35.5 55.5c19.333 28.667 35.5 51.834 48.5 69.501s25.5 32.667 37.5 45s25.333 24.166 40 35.499s33.334 24.666 56.001 39.999c14.667 10.667 32.667 17 54 19s41.833 -1.66699 61.5 -11
s34.5 -25.333 44.5 -48c7.33301 -14 10.666 -31.333 9.99902 -52s-4.33398 -42.5 -11.001 -65.5s-15.667 -44.667 -27 -65s-24 -36.833 -38 -49.5c-8.66699 -8 -18.834 -9.83301 -30.501 -5.5s-22.167 10.833 -31.5 19.5c-6 11.333 -9.16699 18 -9.5 20
s0.833984 3.33301 3.50098 4c4 4.66699 9.33301 12.667 16 24s13.334 23.5 20.001 36.5s11.334 23.5 14.001 31.5l11 57c2 10 0 18 -6 24c-2.66699 2.66699 -6.5 3.66699 -11.5 3s-13.167 -4 -24.5 -10c-15.333 -6.66699 -34.166 -20.667 -56.499 -42s-43.833 -46 -64.5 -74
c-26.667 -35.333 -49 -66.666 -67 -93.999s-31.667 -55.333 -41 -84c-1.33301 -2.66699 -3.5 -7.66699 -6.5 -15l-4.5 -11c0.666992 -2.66699 -0.333008 -9.16699 -3 -19.5s-5.66699 -19.166 -9 -26.499c-7.33301 -30.667 -11.666 -61 -12.999 -91s0.5 -56.167 5.5 -78.5
s12.5 -38.5 22.5 -48.5c8.66699 -6 20 -8 34 -6s30 6.66699 48 14l57 24c16 6.66699 30.667 14 44 22s23.333 15 30 21c5.33301 4 12.166 8.16699 20.499 12.5s15.5 6.5 21.5 6.5c9.33301 3.33301 15.666 2 18.999 -4s5 -14.333 5 -25
c0 -9.33301 -6.16699 -20.333 -18.5 -33s-26.5 -23.667 -42.5 -33c-5.33301 -5.33301 -12.333 -10.5 -21 -15.5s-17.667 -9.16699 -27 -12.5c-14 -10.667 -31.333 -21 -52 -31s-41.5 -17.667 -62.5 -23s-40.167 -6.33301 -57.5 -3z" />
    <glyph glyph-name="D" unicode="D" horiz-adv-x="584" 
d="M216 -102c-12.667 -2 -26.6689 -2.33789 -42.002 -1.00488s-33.333 4.66602 -54 9.99902c-10.667 3.33301 -18.167 7.33301 -22.5 12s-11.5 13.334 -21.5 26.001c-7.33301 10 -12 20.833 -14 32.5s-1 21.667 3 30s11 12.833 21 13.5
c4.66699 0.666992 10.167 -0.833008 16.5 -4.5s13.166 -8.16699 20.499 -13.5c12.667 -8.66699 26.5 -16.334 41.5 -23.001s30.5 -9 46.5 -7c9.33301 2 20.666 3.66699 33.999 5s26.166 3.66602 38.499 6.99902s22.166 7.66602 29.499 12.999c35.333 24 62.333 43 81 57
l28 21c1.33301 2.66699 3.83301 4.83398 7.5 6.50098s8.16699 3.5 13.5 5.5c4 4.66699 10.5 11.334 19.5 20.001s17.5 17.334 25.5 26.001s13 13.667 15 15c1.33301 6 2.66602 10.833 3.99902 14.5s2 7.5 2 11.5c5.33301 5.33301 12.5 16.5 21.5 33.5s18.167 36 27.5 57
s16 40.167 20 57.5c9.33301 40 12.333 75.333 9 106s-11.666 57.834 -24.999 81.501s-30.666 44.5 -51.999 62.5c-7.33301 6 -17.333 12.5 -30 19.5s-25.834 13.5 -39.501 19.5s-25.667 10.667 -36 14s-16.5 4.66602 -18.5 3.99902c-2.66699 -0.666992 -8 -11 -16 -31
s-17.5 -45.333 -28.5 -76l-35.5 -99l-36 -100c-3.33301 -12.667 -7.33301 -26 -12 -40l-12.5 -36.5c-3.66699 -10.333 -5.5 -17.166 -5.5 -20.499c-7.33301 -11.333 -14.333 -27.833 -21 -49.5s-12.667 -54.167 -18 -97.5c-6 -22.667 -10.333 -41 -13 -55
s-5.33398 -20.667 -8.00098 -20l-1 -6.5c-0.666992 -4.33301 -2 -7.5 -4 -9.5c0 -4 -3.5 -6.33301 -10.5 -7s-15.167 1 -24.5 5s-18 11 -26 21c-2 7.33301 -3.33301 17 -4 29s1.66602 27.667 6.99902 47c3.33301 12.667 7.83301 28.667 13.5 48s11.834 39.333 18.501 60
s13.167 39.834 19.5 57.501s10.833 30.834 13.5 39.501c4.66699 11.333 11.334 32.666 20.001 63.999l16.5 52c5.66699 17.333 11.167 32.833 16.5 46.5s9 22.5 11 26.5c3.33301 8.66699 7.66602 23 12.999 43s13.333 42.667 24 68l7 33l-11 5
c-8 -2.66699 -14.167 -3.5 -18.5 -2.5s-7.16602 1.83301 -8.49902 2.5c-4 -1.33301 -9.33301 -0.166016 -16 3.50098s-12.5 8.33398 -17.5 14.001s-8.16699 10.5 -9.5 14.5c-1.33301 2.66699 -2.16602 6.16699 -2.49902 10.5l-0.5 6.5c0.666992 4 6 8 16 12
s23.167 7.83301 39.5 11.5s34 6.33398 53 8.00098s36.833 1.83398 53.5 0.500977c17.333 -1.33301 37 -5.16602 59 -11.499s42 -12.833 60 -19.5c21.333 -8 44.166 -21.833 68.499 -41.5s46.5 -42.834 66.5 -69.501s33.333 -54.667 40 -84c2 -8 4 -19.333 6 -34
s3.16699 -28.834 3.5 -42.501s-1.16699 -22.5 -4.5 -26.5c-1.33301 -2.66699 -2.16602 -5.83398 -2.49902 -9.50098s0.833984 -6.16699 3.50098 -7.5c-0.666992 -2 -3 -9.5 -7 -22.5s-7.66699 -24.167 -11 -33.5c-1.33301 -17.333 -5.66602 -36.666 -12.999 -57.999
s-15.333 -41.5 -24 -60.5s-16.334 -34.167 -23.001 -45.5c-2.66699 0 -5.16699 -0.5 -7.5 -1.5s-2.16602 -1.83301 0.500977 -2.5c0 -3.33301 -3.66699 -9.66602 -11 -18.999c-2.66699 -2 -6.83398 -6.83301 -12.501 -14.5s-10.167 -12.834 -13.5 -15.501
c-0.666992 -4.66699 -2.66699 -8.5 -6 -11.5s-6.33301 -4.5 -9 -4.5h-1.5c-1 0 -1.5 -1.33301 -1.5 -4c-5.33301 -8 -14.166 -18 -26.499 -30s-26.166 -24.333 -41.499 -37s-30.833 -24.5 -46.5 -35.5s-30.167 -19.167 -43.5 -24.5
c-6.66699 -4.66699 -13.667 -8.5 -21 -11.5s-14.333 -6.16699 -21 -9.5c-3.33301 -2.66699 -12.166 -5.5 -26.499 -8.5s-29.666 -5.66699 -45.999 -8s-29.5 -4.5 -39.5 -6.5z" />
    <glyph glyph-name="E" unicode="E" horiz-adv-x="532" 
d="M236 -34c-20.667 1.33301 -40.5059 8.49902 -59.5059 21.499l-54.5 37.5c-11.333 11.333 -20.166 23.5 -26.499 36.5s-11.166 30.167 -14.499 51.5c-2.66699 12.667 -2.66699 29 0 49s7 40.333 13 61s11.667 37 17 49c8 18.667 18.167 38.834 30.5 60.501l37 62
l29.5 47.5c4.66699 4.66699 6.83398 7.16699 6.50098 7.5l-0.5 0.5c0 3.33301 3.5 11.833 10.5 25.5l18.5 36.5c10 10.667 15.667 19.334 17 26.001s0.333008 12 -3 16c-1.33301 2.66699 1.33398 8 8.00098 16s16.167 17.167 28.5 27.5s26.166 19.833 41.499 28.5
c16 12.667 31.5 19.5 46.5 20.5s23.833 -2.16699 26.5 -9.5c0 -2 3.83301 -2.5 11.5 -1.5s16.667 2.66699 27 5s19.5 4.16602 27.5 5.49902c3.33301 4 11.166 7.16699 23.499 9.5s26.833 4.5 43.5 6.5c8.66699 -0.666992 18 -0.833984 28 -0.500977s18.667 0.833008 26 1.5
l11 1c4.66699 1.33301 11 -0.833984 19 -6.50098s14.667 -14.5 20 -26.5c4.66699 -12 1.5 -21.833 -9.5 -29.5s-30.167 -13.167 -57.5 -16.5l-48.5 -6.5c-12.333 -1.66699 -25.166 -3.66699 -38.499 -6s-31.666 -6.16602 -54.999 -11.499
c-16.667 -3.33301 -30.5 -6.5 -41.5 -9.5s-20.667 -7.83301 -29 -14.5s-17.5 -17.667 -27.5 -33c-4.66699 -3.33301 -10.667 -12 -18 -26l-22 -42l-44 -61c-10.667 -14.667 -14.667 -23.667 -12 -27l13 -3c8.66699 -2 14.334 -3 17.001 -3
c6.66699 3.33301 14.834 5.66602 24.501 6.99902s17.5 2.66602 23.5 3.99902l93.5 24l46 11.5c9.66699 2.33301 17.834 3.83301 24.501 4.5c9.33301 7.33301 18.833 7.5 28.5 0.5s16.5 -15.833 20.5 -26.5c4.66699 -11.333 4.83398 -20.333 0.500977 -27
s-14 -12.5 -29 -17.5s-36.5 -10.833 -64.5 -17.5s-63.667 -16 -107 -28c-36.667 -10.667 -66.834 -17 -90.501 -19s-34.834 3.66699 -33.501 17c-4.66699 2.66699 -9.83398 0 -15.501 -8s-11 -19 -16 -33s-9.33301 -29 -13 -45s-5.83398 -31 -6.50098 -45
s0.333008 -24.667 3 -32c5.33301 -15.333 13.333 -28.166 24 -38.499s27.334 -18.833 50.001 -25.5c13.333 -0.666992 26.333 -1.66699 39 -3s27 1.33398 43 8.00098c39.333 6.66699 67.833 13.667 85.5 21s28.167 12.333 31.5 15c5.33301 2.66699 8.83301 5 10.5 7
s4.16699 3 7.5 3c-2 -3.33301 -1.16699 -3.5 2.5 -0.5s8.83398 7.83301 15.501 14.5c12 10 24.667 16.833 38 20.5s24.666 5.33398 33.999 5.00098s14.333 -2.16602 15 -5.49902c4 -6.66699 2.5 -16.667 -4.5 -30s-18.333 -27.666 -34 -42.999s-34.5 -29.333 -56.5 -42
c-35.333 -18.667 -73.666 -31.834 -114.999 -39.501s-78.333 -11.834 -111 -12.501z" />
    <glyph glyph-name="F" unicode="F" horiz-adv-x="462" 
d="M517 306c-3.33301 -3.33301 -11.3291 -6.67578 -23.9961 -10.0088s-33.667 -6.66602 -63 -9.99902c-8.66699 -0.666992 -21.167 -1.33398 -37.5 -2.00098s-33.833 -1.33398 -52.5 -2.00098s-35.667 -0.833984 -51 -0.500977s-26 1.16602 -32 2.49902l-4.5 -5
c-3 -3.33301 -4.5 -7.66602 -4.5 -12.999c-4.66699 -8 -10.334 -20 -17.001 -36l-22 -52.5c-8 -19 -15.5 -38 -22.5 -57s-12.667 -35.5 -17 -49.5s-6.5 -23.667 -6.5 -29c-6 -16 -9.66699 -29.667 -11 -41s-3.66602 -18 -6.99902 -20
c-1.33301 -7.33301 -6.83301 -10.833 -16.5 -10.5s-17.167 3.5 -22.5 9.5c-12.667 6.66699 -20.834 14.834 -24.501 24.501s-3.16699 21.834 1.5 36.501c2 8.66699 5.5 21.5 10.5 38.5l17 56.5c6.33301 20.667 13 40.834 20 60.501s13.833 35.834 20.5 48.501
c7.33301 12.667 12 24.167 14 34.5s4.66699 19.833 8 28.5c-0.666992 7.33301 -0.666992 12.166 0 14.499s3.33398 6.16602 8.00098 11.499c3.33301 3.33301 7.5 8.5 12.5 15.5s10.833 17.833 17.5 32.5c2 6.66699 5.16699 15.834 9.5 27.501s8.5 23.667 12.5 36
s7.66699 22.833 11 31.5s5 13.334 5 14.001c1.33301 2.66699 3.33301 7.83398 6 15.501s4.66699 13.834 6 18.501l6.5 23c1.66699 6 1.16699 9 -1.5 9c-5.33301 -1.33301 -16 -2.33301 -32 -3c-8 -1.33301 -13.833 -2.16602 -17.5 -2.49902
s-6.83398 -0.833008 -9.50098 -1.5c-6.66699 -0.666992 -12.667 0 -18 2s-8 6 -8 12c1.33301 10.667 5.16602 20.834 11.499 30.501s14.5 14.834 24.5 15.501c4.66699 1.33301 9.83398 2.5 15.501 3.5s13.5 2.83301 23.5 5.5c12.667 2.66699 23.334 4 32.001 4
s15 -0.666992 19 -2c3.33301 2 6.16602 4.16699 8.49902 6.5s3.83301 4.83301 4.5 7.5c2 9.33301 6.5 16.333 13.5 21s14.333 7.16699 22 7.5s14.167 -1.66699 19.5 -6s7.66602 -11.166 6.99902 -20.499c0.666992 -2 2.16699 -3.66699 4.5 -5s8.5 -1.16602 18.5 0.500977
s26.333 4.83398 49 9.50098c12 1.33301 27.167 2.66602 45.5 3.99902s32.833 0.333008 43.5 -3c11.333 2 21.5 2.83301 30.5 2.5s15.167 0.833984 18.5 3.50098c14 -2.66699 24.167 -4.5 30.5 -5.5s11.5 -3.16699 15.5 -6.5c2.66699 -2.66699 3.66699 -5.16699 3 -7.5
l-1 -3.5c-2.66699 1.33301 -2.83398 1.33301 -0.500977 0s4.83301 -3 7.5 -5c4.66699 -2 7.33398 -5.66699 8.00098 -11s0.666992 -10.5 0 -15.5s-1.33398 -8.5 -2.00098 -10.5c-0.666992 -6 -4 -9.5 -10 -10.5s-21 -1.16699 -45 -0.5c-28.667 4 -55.667 5.5 -81 4.5
s-56.333 -4.16699 -93 -9.5c-14.667 -0.666992 -27.167 -2.5 -37.5 -5.5l-15.5 -4.5c-2.66699 0 -7.33398 -4.5 -14.001 -13.5s-13 -22.167 -19 -39.5c-2.66699 -4.66699 -7.33398 -14.667 -14.001 -30l-20.5 -49.5l-18.5 -47
c-5.33301 -13.667 -8.66602 -21.167 -9.99902 -22.5c9.33301 -2.66699 24 -4 44 -4s42.333 0.833008 67 2.5s47.667 3.5 69 5.5c10 2 20.333 3.66699 31 5s18 1.66602 22 0.999023c6.66699 -1.33301 11.667 -6.16602 15 -14.499s4.83301 -16.833 4.5 -25.5
s-3.83301 -15.334 -10.5 -20.001z" />
    <glyph glyph-name="G" unicode="G" horiz-adv-x="492" 
d="M163 -41c-18 12.667 -31.8311 30.8369 -41.498 54.5039s-14.167 46.167 -13.5 67.5c-0.666992 41.333 2.83301 83.666 10.5 126.999s17.834 84.333 30.501 123c8.66699 24 18 48.5 28 73.5s20.333 48.833 31 71.5s20.667 41.334 30 56.001
c20.667 34.667 42 62.834 64 84.501s38.667 35.834 50 42.501c16 8 36.5 14.5 61.5 19.5s49.833 4.83301 74.5 -0.5c17.333 -4.66699 34.166 -11 50.499 -19s29.5 -17 39.5 -27c6.66699 -7.33301 12 -14.333 16 -21s6 -14 6 -22c0 -8.66699 -3.83301 -17.334 -11.5 -26.001
s-16.334 -14.667 -26.001 -18s-17.5 -1.33301 -23.5 6c-8.66699 13.333 -17.167 23.166 -25.5 29.499s-17.166 11.5 -26.499 15.5c-7.33301 4.66699 -17.166 7 -29.499 7s-25.5 -2 -39.5 -6s-26.667 -11 -38 -21c-5.33301 -4.66699 -12.333 -11.334 -21 -20.001
s-17.667 -18.834 -27 -30.501s-17.333 -23.5 -24 -35.5c-18 -31.333 -33.833 -62.833 -47.5 -94.5s-25.5 -66.167 -35.5 -103.5c-4 -13.333 -8.5 -30.333 -13.5 -51s-9.5 -41.334 -13.5 -62.001s-6.66699 -38.667 -8 -54c-3.33301 -26 -3.5 -47.667 -0.5 -65
s10.5 -29 22.5 -35s30.333 -5.33301 55 2c16.667 3.33301 33.834 10.166 51.501 20.499s35 23.333 52 39s31.833 33.5 44.5 53.5c12 22 22 42.667 30 62s12.167 35 12.5 47s-5.5 17.667 -17.5 17c-26.667 0 -48 0.833008 -64 2.5s-28 6.83398 -36 15.501
c-7.33301 4 -11 11.333 -11 22s5.33301 20 16 28c10 4.66699 24.667 7.66699 44 9s39.333 0.833008 60 -1.5s37.667 -7.16602 51 -14.499c13.333 -6.66699 22.666 -16.5 27.999 -29.5s8.16602 -27 8.49902 -42s-0.833984 -29.5 -3.50098 -43.5
c-5.33301 -20.667 -13.166 -41.667 -23.499 -63s-23.833 -43.333 -40.5 -66c-10 -14 -23.833 -28.833 -41.5 -44.5s-35.834 -29.834 -54.501 -42.501s-35.667 -22.334 -51 -29.001c-26.667 -12 -54.334 -20.333 -83.001 -25s-54 1 -76 17z" />
    <glyph glyph-name="H" unicode="H" horiz-adv-x="570" 
d="M145 -88l-7.50098 2.50195c-5 1.66699 -10.5 3.33398 -16.5 5.00098s-11 2.5 -15 2.5c-10.667 2.66699 -18.334 8.5 -23.001 17.5s-5.66699 18.833 -3 29.5c2.66699 2.66699 4.66699 8.33398 6 17.001s2 15.667 2 21c2.66699 5.33301 4.33398 9.16602 5.00098 11.499
s2.33398 8.83301 5.00098 19.5c2 11.333 5.5 27.166 10.5 47.499s10.667 42.166 17 65.499l18.5 67c6 21.333 11.5 39.333 16.5 54s8.5 23 10.5 25v3.5v7.5l1.5 9.5c1 6.33301 4.16699 13.5 9.5 21.5c2.66699 7.33301 5 15.333 7 24s3 14.334 3 17.001
c2.66699 3.33301 6.5 11.5 11.5 24.5l14.5 38.5c4 10.667 8.5 22 13.5 34l13 31l5.5 13v4.5v0.5c2.66699 2.66699 9.16699 16.167 19.5 40.5s24.5 55.833 42.5 94.5l11 23c4.66699 10 7 16.333 7 19c8 8.66699 16.167 11.834 24.5 9.50098s16.166 -7 23.499 -14
s12.666 -14.167 15.999 -21.5l10 -16l-36 -72c-11.333 -18.667 -20.666 -35.667 -27.999 -51s-11 -24.333 -11 -27l-5 -13.5c-3.33301 -9 -7.16602 -20 -11.499 -33l-12.5 -37.5c-7.33301 -20.667 -14.333 -37.834 -21 -51.501s-10 -21.834 -10 -24.501
c0 1.33301 7 2.33301 21 3s31.667 1 53 1s43.166 0.166992 65.499 0.5s42.333 0.666016 60 0.999023s29.834 1.16602 36.501 2.49902l52 5l30 94c5.33301 18.667 12.333 41.334 21 68.001s16.334 49.334 23.001 68.001c10.667 30.667 21 51.334 31 62.001s19 16 27 16
c2 0 5.5 -1.33301 10.5 -4s10.167 -6 15.5 -10s8.66602 -8 9.99902 -12c8 -7.33301 11.833 -15.666 11.5 -24.999s-5.83301 -21.666 -16.5 -36.999c-10.667 -18 -19.5 -37.5 -26.5 -58.5s-13.167 -38.167 -18.5 -51.5c0 -8 -1 -14.5 -3 -19.5s-4.33301 -8.83301 -7 -11.5
c-1.33301 -1.33301 -4 -6.33301 -8 -15s-7.66699 -17.334 -11 -26.001s-5 -14 -5 -16c0 -4.66699 -1 -10.334 -3 -17.001s-4.33301 -11.334 -7 -14.001c-1.33301 -4 -4.33301 -14 -9 -30l-16 -56.5c-6 -21.667 -12.333 -42.667 -19 -63s-12.667 -37.166 -18 -50.499
c0 -4.66699 -1.66699 -10.5 -5 -17.5s-5 -13.167 -5 -18.5l-10 -30c-4 -12 -6 -19.667 -6 -23c-3.33301 -15.333 -6.83301 -32.333 -10.5 -51s-6.66699 -35 -9 -49s-3.5 -22 -3.5 -24c-12.667 -2.66699 -22.834 -1.33398 -30.501 3.99902s-15.167 9.33301 -22.5 12
c-12.667 7.33301 -20.167 16 -22.5 26s0.166992 22.667 7.5 38c3.33301 5.33301 7.5 18.5 12.5 39.5l15.5 62.5c4 10 8.33301 23 13 39l14 47.5l12 40.5c3.33301 11.333 5.66602 17.666 6.99902 18.999v7v3c-1.33301 1.33301 -8.66602 2.5 -21.999 3.5
s-29.833 1.33301 -49.5 1s-40.667 -1 -63 -2s-43.166 -2.83301 -62.499 -5.5h-29.5h-26.5h-18.5h-7.5l-7 -20.5c-4 -11.667 -8.5 -25.667 -13.5 -42l-15.5 -50c-5.33301 -17 -9.83301 -32.5 -13.5 -46.5l-7.5 -29l-10.5 -45l-14 -55.5l-13 -49.5
c-3.66699 -14 -6.16699 -23 -7.5 -27z" />
    <glyph glyph-name="I" unicode="I" horiz-adv-x="406" 
d="M185 -38c-4.66699 7.33301 -13.4912 12.002 -26.4912 14.002s-31.167 2.33301 -54.5 1c-9.33301 -1.33301 -18.833 -0.666016 -28.5 2.00098s-17.334 6.5 -23.001 11.5s-7.83398 10.5 -6.50098 16.5c0.666992 8 9.16699 15.833 25.5 23.5s38.833 11.834 67.5 12.501l46 1
l10 20c2.66699 7.33301 5.16699 16.166 7.5 26.499s5.83301 23.166 10.5 38.499c2.66699 9.33301 6.66699 22.166 12 38.499l17 52.5l16 50.5c4.66699 15 7.66699 25.5 9 31.5c2.66699 6 6.33398 16.167 11.001 30.5s9.16699 29 13.5 44s7.16602 25.833 8.49902 32.5
c17.333 52.667 28.666 89.667 33.999 111s6.66602 32.333 3.99902 33c-2.66699 0 -9.16699 -0.333008 -19.5 -1s-21.5 -1.5 -33.5 -2.5s-22.667 -2.16699 -32 -3.5s-15 -2.66602 -17 -3.99902c-3.33301 -4.66699 -9 -4.33398 -17 0.999023s-13 11.333 -15 18
c-0.666992 6 -0.666992 11.333 0 16s2.66699 8 6 10c4.66699 4 14 8.5 28 13.5s30 9.5 48 13.5s34.667 7 50 9c11.333 1.33301 22.666 3.83301 33.999 7.5s20.333 8.16699 27 13.5c6 2 11.833 3.66699 17.5 5s11.5 1.66602 17.5 0.999023c5.33301 -3.33301 14.5 -5 27.5 -5
s26.833 0.333008 41.5 1c37.333 3.33301 63.166 2.83301 77.499 -1.5s23.833 -11.166 28.5 -20.499c3.33301 -12.667 3.16602 -23 -0.500977 -31s-11.167 -11.667 -22.5 -11c-6 -1.33301 -15.167 -2.5 -27.5 -3.5s-27.166 -1.83301 -44.499 -2.5
c-45.333 -4 -69.666 -8.66699 -72.999 -14c-2.66699 -2.66699 -4.83398 -5.33398 -6.50098 -8.00098s-3.83398 -5.66699 -6.50098 -9c0.666992 -2.66699 -0.833008 -10.667 -4.5 -24s-8.16699 -27.333 -13.5 -42c-2.66699 -8.66699 -6.66699 -21 -12 -37l-16.5 -49.5
l-15.5 -46c-4.66699 -13.667 -8 -22.834 -10 -27.501c-2.66699 -6 -4.83398 -12.5 -6.50098 -19.5s-2.83398 -12.167 -3.50098 -15.5l-24 -82.5l-17.5 -58c-5 -16.333 -9.5 -32.166 -13.5 -47.499s-8.66699 -32.333 -14 -51l16.5 1.5c11 1 25.167 2.16699 42.5 3.5
c31.333 3.33301 53 5.33301 65 6s19.5 -0.166016 22.5 -2.49902s5.5 -6.5 7.5 -12.5c13.333 -18 13.333 -32.167 0 -42.5s-38.666 -15.166 -75.999 -14.499c-34.667 -1.33301 -60.5 -2.5 -77.5 -3.5s-28.333 -2.5 -34 -4.5s-8.5 -5.33301 -8.5 -10
c0 -8.66699 -5.33301 -13.834 -16 -15.501s-21.334 2.16602 -32.001 11.499z" />
    <glyph glyph-name="J" unicode="J" horiz-adv-x="312" 
d="M91 -196c-14 -8 -29.3301 -11.498 -45.9971 -10.498s-32.834 5 -48.501 12s-28.834 16.167 -39.501 27.5c-4.66699 5.33301 -6.83398 13.666 -6.50098 24.999s1.83301 21.333 4.5 30c3.33301 12 7.66602 18 12.999 18c7.33301 0 15.666 -6.33301 24.999 -19
c18.667 -16.667 37.167 -21.334 55.5 -14.001s37.833 27 58.5 59c4 10 10.333 24.333 19 43l27.5 60l26.5 59.5c8 18.333 13.333 31.5 16 39.5l0.5 3.5c0.333008 2.33301 1.83301 4.83301 4.5 7.5c0.666992 2.66699 2.33398 8 5.00098 16s5.33398 17.333 8.00098 28l11.5 33
l16 46l14.5 40c3.33301 14 7.5 29.167 12.5 45.5s9.16699 28.833 12.5 37.5c2.66699 5.33301 6.66699 16.166 12 32.499l18 53.5l22 69.5c6.66699 20.333 11.667 36.833 15 49.5s4.33301 20 3 22l-17.5 -3c-11.667 -2 -24.5 -4.33301 -38.5 -7
c-11.333 -4.66699 -22.666 -7.16699 -33.999 -7.5s-16.333 2.83398 -15 9.50098v6.5v2.5c-2 -1.33301 -4.66699 -0.333008 -8 3s-6.33301 7.83301 -9 13.5s-4 10.167 -4 13.5c0 5.33301 7.5 11 22.5 17s32.833 10.333 53.5 13c13.333 2 28.5 3.83301 45.5 5.5
s29.833 3.16699 38.5 4.5c2.66699 2 8.16699 1.66699 16.5 -1s17.166 -6.16699 26.499 -10.5s15.666 -8.5 18.999 -12.5c4 -5.33301 6.5 -11 7.5 -17s0.166992 -14.333 -2.5 -25s-7.5 -25.834 -14.5 -45.501l-29.5 -80.5l-39 -112.5
c-11.333 -33.667 -21.666 -61.5 -30.999 -83.5c-2 -7.33301 -5.5 -18 -10.5 -32l-14.5 -42.5c-4.66699 -14.333 -8.33398 -26.166 -11.001 -35.499c-5.33301 -12.667 -10.333 -26.334 -15 -41.001l-11 -35c0 -5.33301 -1.33301 -11.333 -4 -18s-5.66699 -11.667 -9 -15
l-7 -17.5l-17 -41.5l-17.5 -44.5c-6.33301 -16.333 -12.166 -28.833 -17.499 -37.5c-3.33301 -8 -7.33301 -15.5 -12 -22.5s-7 -11.833 -7 -14.5l-0.5 -3c-0.333008 -2 -1.83301 -3 -4.5 -3l-3 -2.5c-2 -1.66699 -3 -4.16699 -3 -7.5c-1.33301 -4 -5.33301 -10 -12 -18
s-14.5 -16.667 -23.5 -26s-17.833 -17.666 -26.5 -24.999s-15.667 -12.333 -21 -15z" />
    <glyph glyph-name="K" unicode="K" horiz-adv-x="505" 
d="M104 -44c-8.66699 5.33301 -15.5 11.498 -20.5 18.498s-5.5 17.167 -1.5 30.5c-0.666992 8.66699 -0.166992 16.667 1.5 24s2.83398 12.333 3.50098 15c3.33301 0 5.33301 2 6 6s1 7 1 9c0 5.33301 2 14.333 6 27l12 40l15.5 36.5c5 12.333 7.5 19.833 7.5 22.5
c0 5.33301 1.33301 10.833 4 16.5s5.66699 11.167 9 16.5c3.33301 8 5.83301 16.833 7.5 26.5s2.5 17.167 2.5 22.5l13 28c4.66699 10 8.33398 20.333 11.001 31l17.5 50l24.5 67l18 40s11.333 25.833 16 35.5s8 14.5 10 14.5v3.5v7.5c0 3.33301 2.66699 9.83301 8 19.5
s10.333 19.834 15 30.501c6.66699 10 11.334 19.5 14.001 28.5l4 13.5l3.5 6c2.33301 4 4.83301 7.66699 7.5 11c14.667 8 27.334 11.833 38.001 11.5s18.667 -7.83301 24 -22.5c5.33301 -13.333 7.66602 -23 6.99902 -29s-3.33398 -13 -8.00098 -21l-21 -45.5l-27.5 -59
l-26.5 -60c-8 -19 -14.5 -35.167 -19.5 -48.5s-7.5 -21.666 -7.5 -24.999l-42 -102c-2 -4 -5.33301 -13.167 -10 -27.5l-17 -53l-21 -67.5l-22 -70l-18 -52.5c-4.66699 -13 -8.83398 -22.333 -12.501 -28s-7.83398 -8.5 -12.501 -8.5c-2.66699 0 -5.66699 1.16699 -9 3.5z
M458 -45.002c-6 -0.666992 -14.165 2.16895 -24.498 8.50195s-21.333 14.166 -33 23.499s-22.667 19 -33 29s-18.5 18.667 -24.5 26c-10.667 15.333 -24.167 35.833 -40.5 61.5s-28.5 52.834 -36.5 81.501c-4.66699 21.333 -9.5 38.333 -14.5 51s-7.5 23.667 -7.5 33l1 65
l65 -2c3.33301 -36 8.66602 -65.833 15.999 -89.5s16 -44.5 26 -62.5c8 -18 16.833 -35.333 26.5 -52s20.5 -30.667 32.5 -42c15.333 -16.667 29 -29 41 -37s21 -12 27 -12c9.33301 -4 17.166 -8.5 23.499 -13.5s11 -9.5 14 -13.5s4.5 -8 4.5 -12
c0.666992 -2 0.5 -6 -0.5 -12s-2.5 -12 -4.5 -18s-4.66699 -10 -8 -12c-4 -4.66699 -9.33301 -7.83398 -16 -9.50098s-18 1.16602 -34 8.49902zM228.002 333.001l73.001 53.999c2 2 8.33301 7.83301 19 17.5s30 25.167 58 46.5l129 105
c16.667 8.66699 32.667 18.834 48 30.501s27.666 20.5 36.999 26.5l33.5 23.5c11 7.66699 17.833 11.167 20.5 10.5c5.33301 2.66699 11.333 0.666992 18 -6s12.334 -14.5 17.001 -23.5s6.66699 -16.167 6 -21.5c1.33301 -6.66699 0.166016 -12.334 -3.50098 -17.001
s-12.834 -11.334 -27.501 -20.001c-15.333 -6.66699 -27.833 -13.167 -37.5 -19.5s-15.167 -11.5 -16.5 -15.5l-20 -15.5c-13.333 -10.333 -29.666 -22.166 -48.999 -35.499c-26.667 -17.333 -48.834 -33.166 -66.501 -47.499s-29.167 -25.5 -34.5 -33.5
c-2.66699 0 -5.16699 -1 -7.5 -3s-4.83301 -2.66699 -7.5 -2l-8 -5.5c-5.33301 -3.66699 -9.33301 -7.16699 -12 -10.5c-1.33301 -3.33301 -4.16602 -7.83301 -8.49902 -13.5s-9.83301 -8.16699 -16.5 -7.5l-24 -16.5c-12 -8.33301 -24.5 -17.5 -37.5 -27.5
s-24.167 -19 -33.5 -27s-14.333 -12.667 -15 -14z" />
    <glyph glyph-name="L" unicode="L" horiz-adv-x="426" 
d="M202 -53c-26.667 6.66699 -49.002 20.3379 -67.002 41.0049s-31.333 44.334 -40 71.001c-0.666992 8.66699 -1 20.334 -1 35.001s0.5 28.5 1.5 41.5s2.16699 20.5 3.5 22.5c2 1.33301 3 5.33301 3 12c-0.666992 2.66699 -0.166992 7.16699 1.5 13.5s3.5 12.833 5.5 19.5
c3.33301 8 5 14.5 5 19.5s-0.333008 8.83301 -1 11.5l3 6.5c2 4.33301 4.33301 7.83301 7 10.5c4 4 5.83301 8 5.5 12l-0.5 6c-0.666992 2.66699 0 6.33398 2 11.001s4 8.33398 6 11.001c1.33301 1.33301 3.16602 4.16602 5.49902 8.49902l3.5 6.5c0 2 1.5 7.33301 4.5 16
s6.5 18.167 10.5 28.5l11.5 28.5c3.66699 8.66699 6.5 14.334 8.5 17.001v2c2.66699 6.66699 6.33398 13.667 11.001 21c0.666992 3.33301 2.33398 8.83301 5.00098 16.5s5.66699 15.167 9 22.5c7.33301 16 16.5 34.167 27.5 54.5s22.833 40.666 35.5 60.999
s24.834 38.666 36.501 54.999s21.834 28.5 30.501 36.5c11.333 12.667 22 21 32 25s20 1 30 -9c4.66699 -4.66699 8.33398 -11.167 11.001 -19.5s3.83398 -15.833 3.50098 -22.5s-2.5 -10.334 -6.5 -11.001c-4.66699 -2.66699 -11.167 -10.167 -19.5 -22.5l-28.5 -43.5
c-10.667 -16.667 -20.834 -33.834 -30.501 -51.501l-26.5 -47.5c-8.66699 -19.333 -16.667 -36.166 -24 -50.499l-11 -21.5c-0.666992 -2 -1.33398 -3.66699 -2.00098 -5l-2 -4c-10 -20.667 -18.333 -39.5 -25 -56.5l-20 -53.5c-4 -4.66699 -6.33301 -9.33398 -7 -14.001
l-1 -7c-1.33301 0.666992 -2.33301 -0.833008 -3 -4.5s-2 -7.83398 -4 -12.501c-3.33301 -2.66699 -5.33301 -6.83398 -6 -12.501s-1 -11.167 -1 -16.5c-4.66699 -12 -9 -26.5 -13 -43.5s-6.83301 -33.333 -8.5 -49s-2.16699 -27.834 -1.5 -36.501
c1.33301 -11.333 5.33301 -21 12 -29s15.667 -14.667 27 -20c7.33301 -3.33301 13.833 -6 19.5 -8s10.834 -3 15.501 -3c5.33301 -0.666992 12.166 -0.5 20.499 0.5s19.833 2.83301 34.5 5.5h-1c8.66699 1.33301 17.834 3.16602 27.501 5.49902l27.5 6.5
c8 1.33301 15.667 2.83301 23 4.5s13 3.16699 17 4.5l34.5 9.5c8.33301 2.33301 14.166 2.16602 17.499 -0.500977s6.5 -7 9.5 -13s3.5 -12 1.5 -18c-1.33301 -3.33301 -7.5 -9.5 -18.5 -18.5s-23.833 -18 -38.5 -27s-28.334 -15.5 -41.001 -19.5
c-13.333 -6 -30.5 -10.333 -51.5 -13s-41.167 -3.5 -60.5 -2.5s-34.333 3.16699 -45 6.5z" />
    <glyph glyph-name="M" unicode="M" horiz-adv-x="726" 
d="M670 -48c-2 -3.33301 -7.50391 -4.33594 -16.5039 -3.00293s-16.167 6.33301 -21.5 15c-5.33301 10 -8.16602 20.833 -8.49902 32.5s-0.166016 28.167 0.500977 49.5c4 23.333 10.333 54 19 92l29.5 127.5l33.5 145.5c6.66699 24 12.167 45.167 16.5 63.5
s7.5 32.5 9.5 42.5l3 15c-0.666992 0 -2 -1 -4 -3s-3.66699 -4.33301 -5 -7l-3 -6l-4.5 -8c-3 -5.33301 -8.16699 -13.666 -15.5 -24.999c-6 -8 -12 -18.833 -18 -32.5s-14.667 -29.167 -26 -46.5l-35.5 -67.5c-13 -25 -24.167 -45.167 -33.5 -60.5
c-5.33301 -8 -10.166 -15.667 -14.499 -23s-7.16602 -12.666 -8.49902 -15.999c-2.66699 -7.33301 -7.16699 -16.166 -13.5 -26.499s-13.5 -20.5 -21.5 -30.5l-14 -20.5l-14 -20l-6 -8.5c-0.666992 -3.33301 -4.5 -9.5 -11.5 -18.5s-15.5 -19 -25.5 -30
s-20 -20.833 -30 -29.5c-23.333 -20.667 -42.333 -33.167 -57 -37.5s-31.334 1.5 -50.001 17.5c-8.66699 10.667 -15.334 21.834 -20.001 33.501s-7 27.334 -7 47.001s3 46.167 9 79.5l14.5 70.5c5 24.333 10.167 47.666 15.5 69.999s10.166 41.666 14.499 57.999
s7.5 27.5 9.5 33.5c2 15.333 2.16699 23.5 0.5 24.5s-5.16699 -2.83301 -10.5 -11.5l-24.5 -42.5c-12.333 -21.667 -26.166 -47.334 -41.499 -77.001s-30.333 -60.167 -45 -91.5l-68.5 -126.5l-45 -80.5l-26 -45c-5.66699 -10 -9.83398 -17 -12.501 -21
s-4.66699 -6.66699 -6 -8c-8.66699 0.666992 -16.5 4.66699 -23.5 12s-13.167 16 -18.5 26c-1.33301 6 -2.16602 12.333 -2.49902 19s0.833984 14.5 3.50098 23.5s7.33398 20.167 14.001 33.5c8.66699 17.333 16.834 32.166 24.501 44.499s12.834 19.833 15.501 22.5
c3.33301 4.66699 6.16602 9.66699 8.49902 15s3.83301 10.666 4.5 15.999c3.33301 4 8.5 12.333 15.5 25s14.167 26.334 21.5 41.001l21.5 35.5l28.5 49.5l27 50l73 129c18.667 33.333 32 54.333 40 63c4.66699 3.33301 8.83398 9.33301 12.501 18
s6.16699 15.334 7.5 20.001c6.66699 16.667 14.167 31.167 22.5 43.5s15.833 18.166 22.5 17.499c6 0 12.667 -1.5 20 -4.5s14.666 -8.16699 21.999 -15.5c6.66699 -8.66699 12.667 -19.167 18 -31.5s6 -30.166 2 -53.499c-0.666992 -10 -2.16699 -22 -4.5 -36l-7 -40.5
c-2.33301 -13 -4.5 -23.833 -6.5 -32.5l-20 -86c-6.66699 -28.667 -12.667 -56 -18 -82s-9.83301 -49.5 -13.5 -70.5s-6 -38 -7 -51s-0.166992 -21.167 2.5 -24.5c3.33301 -1.33301 6.66602 -0.833008 9.99902 1.5s7 6.83301 11 13.5c4.66699 6 9.5 12.833 14.5 20.5
l16.5 24.5l30.5 46l42.5 68l60.5 101l83.5 146l44 69.5c14 23 26.333 39.833 37 50.5c9.33301 10 20.666 13.167 33.999 9.5s25.5 -12.167 36.5 -25.5s17.167 -29.666 18.5 -48.999c0.666992 -9.33301 -1 -25.333 -5 -48s-9.33301 -48.167 -16 -76.5
s-14.667 -56.5 -24 -84.5c-2 -11.333 -5.33301 -26 -10 -44l-15 -55.5l-15 -51.5l-12 -58c-3.33301 -16 -4.66602 -31 -3.99902 -45c-6 -10.667 -10 -26 -12 -46s-3 -40.667 -3 -62c-2.66699 -26 -7 -44.333 -13 -55s-10.667 -15.667 -14 -15c-6 2 -10.333 0.333008 -13 -5z
" />
    <glyph glyph-name="N" unicode="N" horiz-adv-x="612" 
d="M106 -77c-11.333 7.33301 -18.833 15.166 -22.5 23.499s-5 17.666 -4 27.999s3.16699 21.833 6.5 34.5c5.33301 21.333 11.166 39.166 17.499 53.499l19 45c6.33301 15.667 11.833 35.834 16.5 60.501c10.667 24.667 20.167 48 28.5 70s14.833 40 19.5 54l7 21
c0.666992 2.66699 3.66699 9.66699 9 21l19.5 41.5l22.5 49.5c11.333 32 21.5 59.167 30.5 81.5s18.167 42.666 27.5 60.999s20 36.5 32 54.5c8 14 18.667 22.5 32 25.5s26.166 2 38.499 -3s20.5 -14.167 24.5 -27.5c3.33301 -6.66699 6.16602 -14.5 8.49902 -23.5
s4.5 -22.167 6.5 -39.5s3.33301 -42 4 -74c1.33301 -38 2 -73.667 2 -107s1 -64.166 3 -92.499s6 -53.5 12 -75.5l7 -43.5c2.66699 -17 5.5 -33.833 8.5 -50.5s6 -30.5 9 -41.5s5.83301 -16.5 8.5 -16.5c3.33301 0 7.5 3.33301 12.5 10s11.333 20 19 40
s17.5 49.833 29.5 89.5s26 92.167 42 157.5c3.33301 11.333 7.83301 29.666 13.5 54.999s9.83398 51 12.501 77c4.66699 16.667 9.33398 35 14.001 55l12.5 53c3.66699 15.333 5.5 24 5.5 26c0 4.66699 0.166992 8.66699 0.5 12s0.166016 6.66602 -0.500977 9.99902
c3.33301 0 6.33301 4.5 9 13.5s4 16.833 4 23.5c0 11.333 1.5 20.5 4.5 27.5s6.16699 12.167 9.5 15.5c5.33301 10.667 13.166 16 23.499 16s20.166 -3 29.499 -9s15 -13.333 17 -22c1.33301 -7.33301 -0.5 -23.833 -5.5 -49.5s-12.5 -60.167 -22.5 -103.5
c0 -7.33301 -2 -19.333 -6 -36l-12.5 -53c-4.33301 -18.667 -7.5 -34.667 -9.5 -48c-2.66699 -17.333 -5.66699 -33.5 -9 -48.5s-6.66602 -22.167 -9.99902 -21.5c-17.333 -75.333 -35.5 -139.5 -54.5 -192.5s-35.833 -96.167 -50.5 -129.5
c-16 -36.667 -35.5 -59.667 -58.5 -69s-45.167 -0.333008 -66.5 27c-12.667 17.333 -23 34.333 -31 51s-14.667 36.334 -20 59.001s-10.333 51.334 -15 86.001c-6 28 -10.167 55.667 -12.5 83s-3.5 55.333 -3.5 84s0.333008 59 1 91c0.666992 36 -0.666016 58 -3.99902 66
s-8.16602 5.33301 -14.499 -8s-14.5 -33.666 -24.5 -60.999c-4.66699 -13.333 -10.334 -28.666 -17.001 -45.999l-20.5 -51.5c-7 -17 -12.833 -31.667 -17.5 -44l-9 -23.5c-4 -8 -8.66699 -18.5 -14 -31.5s-9.66602 -26.833 -12.999 -41.5
c-24 -62.667 -41.833 -115.167 -53.5 -157.5s-20.167 -70.833 -25.5 -85.5c-6.66699 -18.667 -13.167 -30.5 -19.5 -35.5s-17.166 -1.83301 -32.499 9.5z" />
    <glyph glyph-name="O" unicode="O" horiz-adv-x="502" 
d="M183 -30c-24.667 18 -42.8311 34 -54.498 48s-18.167 28.333 -19.5 43c-1.33301 12 -1.16602 28.333 0.500977 49s3.83398 41 6.50098 61s5 35 7 45c3.33301 3.33301 4.83301 7.83301 4.5 13.5l-0.5 8.5c-0.666992 3.33301 1.66602 12.166 6.99902 26.499
s10.333 32.833 15 55.5c13.333 40 26.166 73.5 38.499 100.5s24.5 50.167 36.5 69.5s24 37 36 53c27.333 28 51.833 50 73.5 66s42.834 28.667 63.501 38c13.333 8 25.666 14.333 36.999 19s20.666 5.33398 27.999 2.00098c37.333 -8 67.833 -24 91.5 -48
s39.834 -59.333 48.501 -106c4.66699 -29.333 7.5 -55.833 8.5 -79.5s-0.833008 -47 -5.5 -70s-13.167 -48.167 -25.5 -75.5s-29.5 -59.333 -51.5 -96c-26 -51.333 -54.667 -94.833 -86 -130.5s-62.833 -63 -94.5 -82s-61.834 -29.5 -90.501 -31.5s-53.334 5 -74.001 21z
M258.003 24c15.333 2 28.502 5.5 39.502 10.5s22.667 13.667 35 26s28.166 29.5 47.499 51.5l43 51c11.333 14 21 28.167 29 42.5s15.833 31.666 23.5 51.999s16.167 46.5 25.5 78.5c5.33301 20 9.16602 35.333 11.499 46s3.83301 20.167 4.5 28.5s0.833984 19 0.500977 32
s-0.5 31.5 -0.5 55.5c-0.666992 11.333 -3 23.833 -7 37.5s-8.66699 23.5 -14 29.5c-6.66699 7.33301 -16.5 13.333 -29.5 18s-26.833 3.66699 -41.5 -3c-8 -3.33301 -18 -10.5 -30 -21.5s-24.667 -23.667 -38 -38s-25.833 -28.833 -37.5 -43.5s-21 -27.834 -28 -39.501
s-10.5 -19.834 -10.5 -24.501l-0.5 -5c-0.333008 -3.33301 -1.83301 -6.66602 -4.5 -9.99902c-8.66699 -9.33301 -17.834 -25.166 -27.501 -47.499s-18.667 -47.666 -27 -75.999s-15.333 -56.5 -21 -84.5s-9.16699 -53 -10.5 -75c-0.666992 -13.333 -1 -23.5 -1 -30.5
s1 -13 3 -18s5.33301 -11.5 10 -19.5c4 -6.66699 11.833 -12.667 23.5 -18s22.5 -7 32.5 -5z" />
    <glyph glyph-name="P" unicode="P" horiz-adv-x="467" 
d="M113 -54c-8 0 -14.666 4.33301 -19.999 13c-4 4 -7.66699 10 -11 18s-3.5 21.667 -0.5 41s10.833 48 23.5 86c6.66699 25.333 12 43.833 16 55.5s6 20.167 6 25.5c0 7.33301 0.833008 13.5 2.5 18.5s2.5 9.83301 2.5 14.5c4 0 8 3.66699 12 11s7.33301 17.333 10 30
c2.66699 11.333 5.16699 20.5 7.5 27.5s3.5 11.833 3.5 14.5c3.33301 5.33301 6.83301 13.666 10.5 24.999s9.5 25 17.5 41c5.33301 20 11.333 40.833 18 62.5s13.5 42 20.5 61s12.833 33.833 17.5 44.5c7.33301 20.667 13 35.167 17 43.5s4 13.833 0 16.5
c-4.66699 3.33301 -6.5 10.833 -5.5 22.5s7.5 22.5 19.5 32.5c7.33301 8.66699 15.666 14.834 24.999 18.501s20.333 5.5 33 5.5s27 -0.666992 43 -2c12 -0.666992 24.833 -1 38.5 -1h25.5c6 -2.66699 13.333 -5.5 22 -8.5s16.5 -6 23.5 -9s10.5 -5.5 10.5 -7.5
c0 -4 1.5 -6.5 4.5 -7.5s6.16699 -1.83301 9.5 -2.5c4.66699 0 11.834 -4 21.501 -12s19.667 -17.5 30 -28.5s17.833 -22.167 22.5 -33.5c5.33301 -11.333 9.66602 -22 12.999 -32s3.33301 -24.333 0 -43c-0.666992 -10 -2.16699 -20 -4.5 -30s-4.83301 -16.667 -7.5 -20
c-4 -2.66699 -7.66699 -6 -11 -10s-5 -7.66699 -5 -11c0 -2.66699 -2.5 -8.83398 -7.5 -18.501s-11.5 -20.5 -19.5 -32.5s-16.5 -23.833 -25.5 -35.5s-17.5 -21.167 -25.5 -28.5c-8.66699 -10.667 -18.834 -20.667 -30.501 -30s-22.167 -17 -31.5 -23
c-17.333 -8 -37 -15.833 -59 -23.5s-43 -13.834 -63 -18.501s-36.333 -6.66699 -49 -6c-19.333 -2.66699 -31.833 -5.16699 -37.5 -7.5s-10.167 -8.16602 -13.5 -17.499c-3.33301 -8.66699 -6.5 -17.667 -9.5 -27s-4.5 -15.666 -4.5 -18.999
c-1.33301 -2.66699 -4.16602 -10.334 -8.49902 -23.001l-15 -44c-5.66699 -16.667 -11 -33.167 -16 -49.5s-8.83301 -30.166 -11.5 -41.499c-2.66699 -9.33301 -7.5 -15.833 -14.5 -19.5s-13.5 -5.5 -19.5 -5.5zM249.001 272
c2.66699 -2.66699 11.999 -3.00391 27.999 -1.00391s34.333 7 55 15c13.333 4.66699 26.833 10.334 40.5 17.001s26.834 14 39.501 22c6.66699 4.66699 14.667 11.334 24 20.001s20.666 21.334 33.999 38.001c2 3.33301 5.5 9.83301 10.5 19.5s9.5 18.834 13.5 27.501
c6 9.33301 12 23.166 18 41.499s7.33301 33.5 4 45.5c-3.33301 17.333 -10.666 32.333 -21.999 45s-25.333 21.667 -42 27c-14.667 2.66699 -26.834 4.33398 -36.501 5.00098s-20.167 0 -31.5 -2c-10.667 -3.33301 -18.334 -8 -23.001 -14s-11 -18.667 -19 -38l-20 -40
c-8.66699 -17.333 -16 -34.333 -22 -51c-12 -44 -23 -78.5 -33 -103.5s-16.333 -41.167 -19 -48.5c0.666992 -7.33301 0.333984 -12.5 -0.999023 -15.5s-0.666016 -6.16699 2.00098 -9.5z" />
    <glyph glyph-name="Q" unicode="Q" horiz-adv-x="495" 
d="M234 -81c-10 2 -21.998 6.83301 -35.998 14.5s-26.667 16.834 -38 27.501s-19.333 20.667 -24 30c-16.667 34 -25.834 70.167 -27.501 108.5s3.16602 84.833 14.499 139.5l13.5 46c5.66699 19.333 11.834 38.666 18.501 57.999s12.667 35.666 18 48.999
s8.66602 20 9.99902 20c2 2 3 7.66699 3 17c0 3.33301 2.83301 10.5 8.5 21.5s13 23.5 22 37.5s18.333 27.5 28 40.5s18.834 23.167 27.501 30.5c13.333 17.333 28.5 33.666 45.5 48.999s33.833 27.333 50.5 36c4 2.66699 10.667 5.66699 20 9s19.5 6.33301 30.5 9
s20.167 4.33398 27.5 5.00098c33.333 2 60 -2.66699 80 -14s36.333 -30 49 -56c13.333 -14.667 20.666 -29.5 21.999 -44.5s3.33301 -32.167 6 -51.5c0 -18 -1.83301 -39.167 -5.5 -63.5s-8.5 -48.333 -14.5 -72s-12.667 -43.334 -20 -59.001s-14.333 -23.5 -21 -23.5
l-3 -0.5c-2 -0.333008 -3 -2.16602 -3 -5.49902c1.33301 -4.66699 0 -15.167 -4 -31.5s-11 -34.166 -21 -53.499c-21.333 -60 -47.5 -111 -78.5 -153s-63.5 -73.5 -97.5 -94.5s-67.667 -29.5 -101 -25.5zM440.002 -126c-10.667 -0.666992 -22.5029 2.16504 -35.5029 8.49805
s-20.833 13.833 -23.5 22.5c-4.66699 4 -7 7.83301 -7 11.5s-0.666992 6.16699 -2 7.5c-2.66699 1.33301 -6.33398 4.83301 -11.001 10.5s-8 12.167 -10 19.5l-20.5 40.5l-28.5 55l-26.5 50c-7.66699 14.333 -12.167 22.5 -13.5 24.5
c-5.33301 5.33301 -4.66602 12 2.00098 20c3.33301 8 9.33301 14.5 18 19.5s19.334 5.83301 32.001 2.5c15.333 0 29.333 -16 42 -48c0.666992 -3.33301 3.66699 -11.333 9 -24s11.333 -25.167 18 -37.5s12 -20.166 16 -23.499l11 -25c4 -9.33301 8.33301 -17 13 -23
c2 -7.33301 6.33301 -15.333 13 -24s11.334 -17.667 14.001 -27c15.333 -24 21.833 -40.167 19.5 -48.5s-12.166 -12.166 -29.499 -11.499zM245.999 -4.00098c28 3.33301 54.834 18.332 80.501 44.999s50 62.334 73 107.001s44.5 95.334 64.5 152.001
c6 16.667 13.333 35.167 22 55.5s16.667 42.666 24 66.999s11 50.166 11 77.499c4 29.333 2.66699 50 -4 62s-18 21.667 -34 29c-21.333 8 -44 6.83301 -68 -3.5s-47.5 -29.5 -70.5 -57.5s-44.167 -65.333 -63.5 -112c-27.333 -58 -48.5 -109 -63.5 -153
s-24.333 -83.167 -28 -117.5s-2.16699 -66.5 4.5 -96.5c1.33301 -20.667 6.16602 -36.167 14.499 -46.5s20.833 -13.166 37.5 -8.49902z" />
    <glyph glyph-name="R" unicode="R" horiz-adv-x="542" 
d="M153 -60c-2.66699 -6.66699 -10.166 -10.1641 -22.499 -10.4971s-24.166 3.83398 -35.499 12.501c-8 8 -13.167 14.167 -15.5 18.5s-1.16602 11.666 3.50098 21.999l24 54.5c2.66699 16 7.33398 32.167 14.001 48.5s11.667 27.833 15 34.5
c2.66699 9.33301 8.16699 24.833 16.5 46.5l29 72.5l31.5 75.5c10 23.667 17.333 41.5 22 53.5l35 84c12 29.333 28.333 66.333 49 111c2.66699 6.66699 2.5 13.667 -0.5 21s-10.167 11 -21.5 11c-6.66699 7.33301 -10.334 15 -11.001 23s2.66602 14 9.99902 18l78 27
c31.333 7.33301 63.5 9.5 96.5 6.5s64.167 -12.167 93.5 -27.5c32 -18.667 55.167 -38.667 69.5 -60s22.166 -42.833 23.499 -64.5s-1.66699 -41.834 -9 -60.501c-5.33301 -14 -15.5 -29.333 -30.5 -46s-32.333 -33.334 -52 -50.001s-40 -31.834 -61 -45.501
s-40.5 -24.167 -58.5 -31.5c-16.667 -8 -35 -15.833 -55 -23.5s-39.667 -14.5 -59 -20.5c-10.667 -2.66699 -23.334 -4 -38.001 -4s-25.667 1.33301 -33 4l-17 -37c-6.66699 -24 -18.167 -59.667 -34.5 -107zM550.001 -75.9971c-5.33301 -2 -13.168 -2.66699 -23.501 -2
s-23.166 6 -38.499 16c-29.333 17.333 -58.666 38.333 -87.999 63s-62.333 58 -99 100c-14 16.667 -25 32.834 -33 48.501s-17.333 36.167 -28 61.5l-14 54l34 22l42 -36c10.667 -23.333 23.5 -45.666 38.5 -66.999s29.833 -40.333 44.5 -57c12 -14 28.333 -30.833 49 -50.5
s42.667 -38.5 66 -56.5s44.333 -31.667 63 -41c4 -3.33301 5.33301 -9.33301 4 -18s-3.83301 -16.834 -7.5 -24.501s-6.83398 -11.834 -9.50098 -12.501zM295.999 309.003c15.333 1.33301 32.666 5.33203 51.999 11.999s39.333 14.334 60 23.001
c19.333 9.33301 38.833 19.833 58.5 31.5s37.834 24.667 54.501 39s30 29.5 40 45.5s14.333 32.667 13 50c0 8.66699 -2.83301 18.167 -8.5 28.5s-12.834 19.5 -21.501 27.5s-17.334 13.333 -26.001 16c-26.667 6.66699 -47.667 10.834 -63 12.501s-26.666 0 -33.999 -5
s-12.666 -14.167 -15.999 -27.5c0 -2 -2.66699 -8.5 -8 -19.5l-19.5 -41c-7.66699 -16.333 -15.167 -33.833 -22.5 -52.5l-43 -87.5c-9.33301 -19 -15 -31.833 -17 -38.5s-1.66699 -11.334 1 -14.001z" />
    <glyph glyph-name="S" unicode="S" horiz-adv-x="492" 
d="M262 -60c-12 3.33301 -21.6621 6.17773 -28.9951 8.51074l-11 3.5c1.33301 3.33301 0.833008 6.33301 -1.5 9s-7.16602 4.33398 -14.499 5.00098c-10 6.66699 -20 15.5 -30 26.5s-18.5 22.167 -25.5 33.5s-11.833 20 -14.5 26c-4.66699 10 -5.16699 16.167 -1.5 18.5
s9.16699 5.16602 16.5 8.49902c7.33301 5.33301 14.333 8.5 21 9.5s12.667 -4.16699 18 -15.5c8.66699 -15.333 22.667 -27.833 42 -37.5s41.333 -15 66 -16s49 3.5 73 13.5c18.667 8 29.5 18.167 32.5 30.5s-1.16699 27.166 -12.5 44.499
c-2 5.33301 -4.66699 9.66602 -8 12.999s-8.33301 7.66602 -15 12.999s-16.334 14 -29.001 26l-27.5 13l-26.5 13c-10.667 5.33301 -22.834 13 -36.501 23s-26.5 21 -38.5 33s-21 23.333 -27 34c-10.667 10 -17.834 23.833 -21.501 41.5s-4 36.5 -1 56.5s8.83301 38 17.5 54
c4 9.33301 11.167 21.333 21.5 36s21.833 29.667 34.5 45s25 29.166 37 41.499s21.667 20.833 29 25.5l17 16.5l9 8.5c0.666992 3.33301 1.83398 5 3.50098 5h2.5c3.33301 2 10.666 5.33301 21.999 10s23.666 13.334 36.999 26.001
c44.667 21.333 82.167 36.166 112.5 44.499s54.5 12.5 72.5 12.5v0v0c16.667 -0.666992 32.667 -4.83398 48 -12.501s28.333 -17.667 39 -30s17 -26.5 19 -42.5c4.66699 -16 2.83398 -35 -5.49902 -57s-20.166 -42.5 -35.499 -61.5s-31.333 -33.167 -48 -42.5
c-18.667 -8 -33.334 -9.83301 -44.001 -5.5s-15.667 12.833 -15 25.5c0 5.33301 1.83301 11.666 5.5 18.999s13.834 20.333 30.501 39c21.333 31.333 33.166 54.5 35.499 69.5s-3.16699 23.5 -16.5 25.5c-4 1.33301 -11.5 1.16602 -22.5 -0.500977s-22.833 -4 -35.5 -7
s-23.667 -6 -33 -9s-14 -5.16699 -14 -6.5v-3c0 -2 -1.33301 -2.66699 -4 -2c-1.33301 0 -6.33301 -2.16699 -15 -6.5s-18.834 -10.333 -30.501 -18l-35 -22.5c-11.667 -7.33301 -21.5 -14 -29.5 -20s-12.333 -9.33301 -13 -10c-1.33301 -7.33301 -9 -14 -23 -20
c-13.333 -8 -25.166 -19.5 -35.499 -34.5s-22.166 -33.833 -35.499 -56.5c-11.333 -15.333 -19.333 -31.833 -24 -49.5s-4.66699 -31.834 0 -42.501c3.33301 -10.667 12.833 -22.167 28.5 -34.5s36.5 -26.166 62.5 -41.499c22.667 -12.667 43.667 -25.834 63 -39.501
s35.666 -26.667 48.999 -39s22 -22.833 26 -31.5c8 -11.333 13.167 -23.833 15.5 -37.5s3 -26.834 2 -39.501s-2.83301 -23.334 -5.5 -32.001c-4.66699 -10.667 -12.167 -21.834 -22.5 -33.501s-19.5 -17.167 -27.5 -16.5c-7.33301 -2 -12.833 -4.33301 -16.5 -7
s-7.83398 -5 -12.501 -7c-4.66699 -2.66699 -15.334 -5.66699 -32.001 -9s-34.834 -6 -54.501 -8s-37.167 -2.66699 -52.5 -2z" />
    <glyph glyph-name="T" unicode="T" horiz-adv-x="458" 
d="M221 -50c-10 -0.666992 -18.6709 4.49902 -26.0039 15.499s-10.666 20.5 -9.99902 28.5c0.666992 10.667 3.66699 26 9 46s11.333 40.333 18 61s12.667 37 18 49c2.66699 10.667 5.16699 20.167 7.5 28.5s3.83301 13.833 4.5 16.5c2 2.66699 5.16699 9.66699 9.5 21
s7.83301 22.333 10.5 33c1.33301 5.33301 4.16602 15.5 8.49902 30.5s9.66602 32.5 15.999 52.5l19 59l16.5 51c4.66699 14.667 7.66699 24.334 9 29.001c5.33301 8 9.33301 15.667 12 23s4.33398 12.333 5.00098 15c4 2.66699 6.33301 6.16699 7 10.5s1 7.83301 1 10.5
c0 3.33301 1.16699 6 3.5 8s3.5 4.33301 3.5 7c2.66699 2 4.33398 3.33301 5.00098 4l6 6l5 28l79 1c-1.33301 -8 -3.33301 -17.833 -6 -29.5s-9 -27.167 -19 -46.5c-3.33301 -13.333 -7.16602 -25.333 -11.499 -36s-6.16602 -17.667 -5.49902 -21
c-1.33301 -1.33301 -4.16602 -8 -8.49902 -20s-9.33301 -26.667 -15 -44l-17 -52l-15 -45.5c-4.33301 -13 -7.16602 -21.167 -8.49902 -24.5c-5.33301 -10.667 -11.333 -26.334 -18 -47.001s-16.667 -48.667 -30 -84c-5.33301 -10.667 -11.833 -26.667 -19.5 -48
s-13.834 -40.666 -18.501 -57.999c-7.33301 -26 -13.5 -44.5 -18.5 -55.5s-9.33301 -17.5 -13 -19.5s-8.16699 -3 -13.5 -3zM229.996 540.999c-24.667 -2 -41.667 0.5 -51 7.5s-12.666 15.833 -9.99902 26.5c2 8 6.66699 14.5 14 19.5s20 9.16699 38 12.5l28.5 5l33.5 6
c22 2.66699 40.167 5 54.5 7s29.166 3.66699 44.499 5s34.666 2.66602 57.999 3.99902l49.5 3.5l20.5 1.5c2 0 9 -0.666992 21 -2s25 -3 39 -5s24.333 -4.33301 31 -7c15.333 -3.33301 27.166 -8.83301 35.499 -16.5s13.833 -17.167 16.5 -28.5c2 -8 2 -13.667 0 -17
s-5.66699 -6.33301 -11 -9c-15.333 -4.66699 -27.333 -8 -36 -10s-17.667 -1.33301 -27 2c-3.33301 3.33301 -7.16602 6.33301 -11.499 9s-11.666 4.83398 -21.999 6.50098s-26.5 3.16699 -48.5 4.5c-18.667 -2 -35 -3 -49 -3s-21 -1.66699 -21 -5l-59 -3l-49 -5
c-6.66699 -0.666992 -16 -1.5 -28 -2.5l-35 -3c-11.333 -1 -20 -2.16699 -26 -3.5z" />
    <glyph glyph-name="U" unicode="U" horiz-adv-x="482" 
d="M226 -57c-33.333 10 -58.8291 27.6611 -76.4961 52.9941s-27.167 60.833 -28.5 106.5s5 103.167 19 172.5c4.66699 23.333 11.334 50 20.001 80s18.834 60.833 30.501 92.5s24 62.334 37 92.001s25.833 55.834 38.5 78.501c15.333 27.333 28.166 45.333 38.499 54
s20.166 12.334 29.499 11.001c14.667 -3.33301 25.834 -9.83301 33.501 -19.5s11 -20.167 10 -31.5s-7.16699 -20.666 -18.5 -27.999c-7.33301 -8.66699 -16.833 -24.5 -28.5 -47.5s-23.5 -45.167 -35.5 -66.5l-35 -102.5c-10 -29.667 -18.333 -57.5 -25 -83.5
s-12.667 -53.333 -18 -82c-6 -28 -10.5 -50 -13.5 -66s-5 -28.5 -6 -37.5s-1.66699 -16.833 -2 -23.5s-0.5 -14.667 -0.5 -24c5.33301 -8.66699 9.66602 -16.334 12.999 -23.001s7.66602 -10.667 12.999 -12c11.333 -5.33301 23.333 -7.5 36 -6.5s26 5.5 40 13.5
c3.33301 6.66699 7.66602 11.334 12.999 14.001l8 4c1.33301 -3.33301 2.83301 -4.16602 4.5 -2.49902s2.83398 3.83398 3.50098 6.50098c-0.666992 2.66699 0 5.16699 2 7.5s4.33301 4.83301 7 7.5c5.33301 2 12.5 8 21.5 18s18 21.333 27 34s16.667 24.334 23 35.001
s9.5 17.334 9.5 20.001c0 3.33301 1.33301 6.33301 4 9s5.66699 6 9 10c3.33301 3.33301 10.166 14.166 20.499 32.499s21.666 39.833 33.999 64.5l33.5 68c2 7.33301 5.66699 19.166 11 35.499s11.166 35.166 17.499 56.499l18.5 64.5l16.5 58c5 17 8.16699 29.5 9.5 37.5
c1.33301 8.66699 3.33301 15.834 6 21.501s4.33398 9.83398 5.00098 12.501c6 4.66699 12.833 5.66699 20.5 3s15.167 -6 22.5 -10s13 -7 17 -9c4 -5.33301 5.66699 -12 5 -20s-2.83398 -20.167 -6.50098 -36.5l-15.5 -70.5c-14 -54.667 -30.833 -105 -50.5 -151l-63.5 -146
v-0.5v-5.5c-8 -4.66699 -14.333 -11.667 -19 -21l-8.5 -15.5c-2.33301 -4.33301 -5.16602 -7.5 -8.49902 -9.5c-2 -6 -4 -11.333 -6 -16l-3 -7c-0.666992 -3.33301 -3 -6.33301 -7 -9l-12 -8c-3.33301 -1.33301 -5.33301 -4 -6 -8s-2 -7.33301 -4 -10
c-14.667 -22 -32.334 -44 -53.001 -66s-41.667 -41.167 -63 -57.5s-41 -27.833 -59 -34.5c-12 -4.66699 -21.833 -7.33398 -29.5 -8.00098s-16.167 0 -25.5 2z" />
    <glyph glyph-name="V" unicode="V" horiz-adv-x="490" 
d="M263 -59c-3.33301 1.33301 -5.67188 3.33105 -7.00488 5.99805s-2.66602 8 -3.99902 16c0 7.33301 -2 12.666 -6 15.999s-11.667 6.33301 -23 9c-7.33301 7.33301 -13.166 15.666 -17.499 24.999s-7.66602 24.833 -9.99902 46.5s-4.83301 53.834 -7.5 96.501
c1.33301 23.333 2.5 43 3.5 59s2.16699 31 3.5 45l4.5 45c1.66699 16 4.16699 36 7.5 60c-1.33301 15.333 -0.5 32 2.5 50s3.5 32.333 1.5 43c4.66699 14.667 7.66699 31.5 9 50.5s4.33301 35.833 9 50.5c1.33301 11.333 2.83301 22 4.5 32s2.5 18.333 2.5 25
c-1.33301 13.333 -0.166016 26.833 3.50098 40.5s11.834 23.167 24.501 28.5c4 1.33301 9.5 2.16602 16.5 2.49902s12.5 -0.5 16.5 -2.5c8.66699 -4 14 -10.333 16 -19s2.66699 -16.667 2 -24c1.33301 -7.33301 1.83301 -20 1.5 -38s-1.5 -37.833 -3.5 -59.5
s-5.33301 -42.834 -10 -63.501c-5.33301 -27.333 -9.5 -55.166 -12.5 -83.499s-5.16699 -56.166 -6.5 -83.499c-2.66699 -54.667 -5.33398 -100 -8.00098 -136s-3 -62 -1 -78c0 -2 0.333008 -5.66699 1 -11s1.83398 -10 3.50098 -14s3.5 -6 5.5 -6
c3.33301 0.666992 6.5 3.5 9.5 8.5s6 11.667 9 20s6.5 16.833 10.5 25.5c8.66699 16.667 17.5 34.834 26.5 54.501s16.833 38.5 23.5 56.5c12 28 24 52 36 72s23.333 42.333 34 67c4 10.667 11.167 26.167 21.5 46.5l29.5 56.5l32.5 50c10.333 16 22.5 37.333 36.5 64
c19.333 32 35.333 55 48 69s24.334 21 35.001 21c7.33301 1.33301 13 1.5 17 0.5s8.33301 -4.83301 13 -11.5c5.33301 -7.33301 8.5 -15.333 9.5 -24s-1.5 -20.167 -7.5 -34.5s-17.667 -33.833 -35 -58.5l-44.5 -70l-45 -75.5c-13.667 -23.667 -23.5 -41.167 -29.5 -52.5
c-3.33301 -7.33301 -6.33301 -15 -9 -23s-6.66699 -15.333 -12 -22c-6.66699 -6.66699 -15.667 -21 -27 -43l-33 -65l-28.5 -65.5l-17 -38.5l-12.5 -29l-15 -35c-3.33301 -11.333 -7.83301 -21.666 -13.5 -30.999s-8.83398 -16 -9.50098 -20
c-4.66699 -7.33301 -12.167 -14.666 -22.5 -21.999s-20.5 -12.833 -30.5 -16.5s-17.333 -4.5 -22 -2.5z" />
    <glyph glyph-name="W" unicode="W" horiz-adv-x="720" 
d="M501 -59c-8.66699 -0.666992 -16.4932 1.17285 -23.4932 5.50586s-11.833 9.83301 -14.5 16.5c-2.66699 3.33301 -6.83398 10 -12.501 20s-9.16699 19 -10.5 27c-2 21.333 -3.16699 42 -3.5 62s0.5 48 2.5 84c2 29.333 6 56.333 12 81s11.833 46 17.5 64l13.5 42
c3.33301 10 4 15 2 15c-2.66699 0 -5.83398 -3.33301 -9.50098 -10s-7.83398 -15 -12.501 -25l-14.5 -31c-5 -10.667 -9.83301 -20.334 -14.5 -29.001c-9.33301 -20.667 -20.166 -42.5 -32.499 -65.5s-24.833 -45.167 -37.5 -66.5l-33 -56
c-6 -6.66699 -13 -16.167 -21 -28.5l-26 -38.5c-9.33301 -13.333 -19 -24.333 -29 -33c-14.667 -14 -29.5 -22.167 -44.5 -24.5s-28.833 0.166992 -41.5 7.5c-4.66699 1.33301 -9.83398 4.66602 -15.501 9.99902s-10.167 12.166 -13.5 20.499s-4 16.5 -2 24.5
c-0.666992 9.33301 -0.5 23.833 0.5 43.5s2.83301 41.334 5.5 65.001s5.5 46.5 8.5 68.5s5.83301 40.333 8.5 55c6 42.667 14.167 86.334 24.5 131.001s19.833 89.667 28.5 135c5.33301 13.333 10.166 28.5 14.499 45.5s8.83301 32.833 13.5 47.5
c0.666992 14.667 5.33398 24 14.001 28s18.167 4.83301 28.5 2.5s17.833 -6.83301 22.5 -13.5c6.66699 -6.66699 12.5 -17 17.5 -31s2.83301 -31.667 -6.5 -53c-13.333 -32.667 -26.166 -72.5 -38.499 -119.5s-23.5 -103.833 -33.5 -170.5
c-2.66699 -16 -5.5 -34.167 -8.5 -54.5s-5.66699 -40 -8 -59s-4 -34.833 -5 -47.5s-0.833008 -19.334 0.5 -20.001c5.33301 -0.666992 11.666 3 18.999 11s14.666 20 21.999 36c27.333 45.333 53.5 91.166 78.5 137.499l74.5 142.5c11.333 19.333 22.833 40.5 34.5 63.5
l33.5 63.5l32.5 57c10.333 18 19.333 33 27 45s13.5 18.667 17.5 20c15.333 0 27.333 -3.83301 36 -11.5s15.667 -18.167 21 -31.5c1.33301 -3.33301 1.66602 -9 0.999023 -17s-2.33398 -15 -5.00098 -21c-0.666992 -4.66699 -3.5 -14.334 -8.5 -29.001s-9.5 -31 -13.5 -49
c-6.66699 -18 -12.5 -35.833 -17.5 -53.5s-8.5 -32.167 -10.5 -43.5c-5.33301 -28.667 -12 -60 -20 -94s-14.833 -67.833 -20.5 -101.5s-8.83398 -63.834 -9.50098 -90.501c-0.666992 -18.667 -0.5 -31.667 0.5 -39s2.83301 -14 5.5 -20
c1.33301 -5.33301 4.83301 -7.33301 10.5 -6s10.834 5.33301 15.501 12c10.667 14.667 19.167 27.667 25.5 39l19.5 36l24 46c16.667 30.667 33.834 64.5 51.501 101.5l51 110l42.5 96.5l31.5 87c8.33301 22 15.833 38.833 22.5 50.5s13.334 19.5 20.001 23.5
c3.33301 2.66699 9.66602 4 18.999 4s17 -2.66699 23 -8c2.66699 -2.66699 6.66699 -7 12 -13s7.66602 -13 6.99902 -21c-3.33301 -10.667 -9.33301 -27.834 -18 -51.501l-30 -78.5l-33 -82c-10.667 -26 -19.667 -46.667 -27 -62c-7.33301 -14 -14.333 -26 -21 -36
s-10 -17.667 -10 -23c0 -2.66699 -3.33301 -10.834 -10 -24.501s-15.167 -30.167 -25.5 -49.5l-33.5 -60l-34 -57c-10.667 -17.333 -19.667 -30.666 -27 -39.999c-16.667 -20.667 -34 -38 -52 -52s-33.833 -24.5 -47.5 -31.5s-22.834 -10.5 -27.501 -10.5z" />
    <glyph glyph-name="X" unicode="X" horiz-adv-x="524" 
d="M634 648c13.333 -0.666992 22.4922 -7.16504 27.4922 -19.498s5.5 -28.333 1.5 -48s-14 -40.834 -30 -63.501c-15.333 -15.333 -24 -28.333 -26 -39c-4.66699 -6 -11.834 -14.5 -21.501 -25.5l-31 -35l-29 -32.5c-8.33301 -9.33301 -13.833 -15 -16.5 -17l-31.5 -28
c-11.667 -10.667 -22 -20.5 -31 -29.5s-14.833 -15.167 -17.5 -18.5c-4.66699 -4.66699 -9 -9.5 -13 -14.5s-7.66699 -8.16699 -11 -9.5c-0.666992 -2.66699 -2.66699 -5.83398 -6 -9.50098s-5.66602 -7.16699 -6.99902 -10.5
c-1.33301 -0.666992 -5.66602 -4.33398 -12.999 -11.001l-24.5 -22.5l-24 -22.5c-7 -6.66699 -10.833 -10.667 -11.5 -12c-7.33301 -6.66699 -18.666 -18.167 -33.999 -34.5l-51 -54.5l-54 -58.5l-43.5 -49c-11.667 -13.667 -18.167 -22.167 -19.5 -25.5
c-2.66699 -5.33301 -6.83398 -8.83301 -12.501 -10.5s-11.167 -1.83398 -16.5 -0.500977c-2.66699 -1.33301 -7.66699 -1.66602 -15 -0.999023s-11.666 1.33398 -12.999 2.00098l-2 5c-1.33301 3.33301 -2.66602 8.66602 -3.99902 15.999c-4 6.66699 -4.33301 15.667 -1 27
s6.33301 20.666 9 27.999c4.66699 8.66699 9.33398 16 14.001 22s12.667 14.167 24 24.5l52 48.5c10.667 10.667 21.5 20.834 32.5 30.501s16.833 15.5 17.5 17.5c0.666992 2.66699 3.33398 6.33398 8.00098 11.001s9.33398 10.334 14.001 17.001
c4.66699 3.33301 12.5 10.166 23.5 20.499l36.5 35l39.5 38.5l32.5 31c4 5.33301 8.83301 10.833 14.5 16.5s11.834 12.5 18.501 20.5c0.666992 1.33301 5.16699 6.16602 13.5 14.499l29.5 30l32.5 34l23.5 25.5c26.667 31.333 50.834 61.333 72.501 90
s36.834 52.334 45.501 71.001c6.66699 14 11.667 21.667 15 23s7.66602 2.33301 12.999 3zM492.992 -29.998c-12.667 1.33301 -26.6641 8.16797 -41.9971 20.501s-30.666 32.166 -45.999 59.499c-24.667 34 -46.334 75.167 -65.001 123.5s-31.667 100.5 -39 156.5
c-3.33301 23.333 -7 43.5 -11 60.5s-6.66699 26.167 -8 27.5c-0.666992 2.66699 -0.166992 4.5 1.5 5.5l2.5 1.5c2 2 2.33301 4.16699 1 6.5s-2.66602 5.16602 -3.99902 8.49902l-5 23c-3.33301 15.333 -6 34.333 -8 57c-2.66699 24 -4.83398 44.833 -6.50098 62.5
s-3.16699 29.167 -4.5 34.5c-2 1.33301 -3 3.33301 -3 6v4c1.33301 4 4.66602 8.5 9.99902 13.5l11 10.5c10 7.33301 20.5 9.16602 31.5 5.49902s20.5 -11.167 28.5 -22.5s12 -25.333 12 -42c0 -17.333 2 -28 6 -32c-0.666992 -1.33301 -0.833984 -6.33301 -0.500977 -15
s1 -18.5 2 -29.5s2.16699 -21.167 3.5 -30.5s2.33301 -15.666 3 -18.999c-2.66699 -8 -2.66699 -13.667 0 -17c0.666992 -5.33301 1.66699 -12.5 3 -21.5s1.66602 -15.167 0.999023 -18.5s0.166016 -9.16602 2.49902 -17.499s4.5 -16.833 6.5 -25.5l26 -90
c5.33301 -21.333 10.333 -40.166 15 -56.499s10.334 -32.333 17.001 -48s14.667 -33.167 24 -52.5c7.33301 -16 16 -30.833 26 -44.5s19 -22.834 27 -27.501c1.33301 -1.33301 4.83301 -2.16602 10.5 -2.49902s9.16699 0.5 10.5 2.5c7.33301 2 12.5 0 15.5 -6
s4.83301 -13 5.5 -21s1 -15.333 1 -22c1.33301 -4.66699 -1.16699 -9.33398 -7.5 -14.001s-14.333 -8.5 -24 -11.5s-19.5 -3.83301 -29.5 -2.5z" />
    <glyph glyph-name="Y" unicode="Y" horiz-adv-x="504" 
d="M319 262l-35.0039 43.998c-13.333 20 -24 38.667 -32 56s-13.667 38.666 -17 63.999c-4.66699 16 -7.66699 31 -9 45s-1.83301 30.167 -1.5 48.5s0.833008 41.166 1.5 68.499c0.666992 25.333 4.33398 45.333 11.001 60s11.334 24.667 14.001 30
c11.333 10.667 21 12.5 29 5.5s14 -18.667 18 -35s5.66699 -34.166 5 -53.499c2 -71.333 6.83301 -126.166 14.5 -164.499s17.5 -62.166 29.5 -71.499c7.33301 -2 14.166 -1.16699 20.499 2.5s14.833 11.334 25.5 23.001l45 48.5c18.667 19.333 37.334 39.833 56.001 61.5
l53.5 62.5c17 20 32.333 37.333 46 52s24.5 24.334 32.5 29.001c2.66699 4 6.83398 7.33301 12.501 10s11 4.66699 16 6l7.5 2c5.33301 -1.33301 8.33301 -5.5 9 -12.5s3.33398 -13.833 8.00098 -20.5c1.33301 -2.66699 3.66602 -6.33398 6.99902 -11.001
s4.66602 -8.66699 3.99902 -12c0 -2 -2.5 -5.83301 -7.5 -11.5s-10.167 -11.167 -15.5 -16.5l-13 -13c-8.66699 -7.33301 -22.167 -20.166 -40.5 -38.499l-56.5 -59c-19.333 -21 -35.666 -39.833 -48.999 -56.5l-78.5 -88c-23 -24.667 -37.167 -39.334 -42.5 -44.001
c-0.666992 -1.33301 -5.16699 -3.5 -13.5 -6.5s-14.166 -7.16699 -17.499 -12.5zM257.996 -73.002c-2.66699 0.666992 -7.66895 3.33203 -15.002 7.99902l-21 14c-4.66699 5.33301 -7.5 10.833 -8.5 16.5s-0.166992 13.167 2.5 22.5s6.33398 23 11.001 41
c0.666992 15.333 3.83398 34 9.50098 56s12.5 40.333 20.5 55c0 7.33301 1.66699 17.333 5 30s7.5 25.834 12.5 39.501l13.5 35.5l18 52l40 34l44 -34c-2.66699 -4 -5 -8.66699 -7 -14s-4.66699 -14.333 -8 -27l-15 -59l-17.5 -58l-17.5 -58
c-5.33301 -18 -10 -32.667 -14 -44c-8 -30 -14.667 -53.5 -20 -70.5s-10.5 -28.333 -15.5 -34s-10.833 -7.5 -17.5 -5.5z" />
    <glyph glyph-name="Z" unicode="Z" horiz-adv-x="522" 
d="M119 -50c-14 1.33301 -27.001 3.32812 -39.001 5.99512s-20.333 10.334 -25 23.001s-4.33398 26.167 0.999023 40.5s11.333 24.833 18 31.5l36.5 39l46.5 48l66.5 65c26.333 25.333 58.833 55 97.5 89c26.667 22.667 48 41.5 64 56.5l43 41.5l42 43
c23.333 24 43.333 45.667 60 65s26.667 35.666 30 48.999c4 13.333 4.5 22.833 1.5 28.5s-10.5 9.66699 -22.5 12s-29.667 4.16602 -53 5.49902c-41.333 3.33301 -78.666 3.16602 -111.999 -0.500977s-64.666 -8.16699 -93.999 -13.5
c-4.66699 -1.33301 -10.167 0.666992 -16.5 6s-9.5 9.33301 -9.5 12c2.66699 3.33301 4 7.5 4 12.5s-2.66699 9.5 -8 13.5c-2.66699 6.66699 -2.66699 12.834 0 18.501s5.33398 9.83398 8.00098 12.501c5.33301 2.66699 14.833 4.83398 28.5 6.50098
s28.167 3.83398 43.5 6.50098c10 2 24.833 3.33301 44.5 4s39.667 1 60 1s36.5 -0.666992 48.5 -2c24 -2 48.333 -4.66699 73 -8s46.167 -8.5 64.5 -15.5s30.5 -17.833 36.5 -32.5c7.33301 -15.333 8.83301 -29 4.5 -41l-17.5 -48c-8 -14.667 -21.5 -34.167 -40.5 -58.5
s-40.667 -49.666 -65 -75.999s-49.166 -51.166 -74.499 -74.499l-100.5 -92.5l-88.5 -78.5l-53.5 -47l-53.5 -49c-6.66699 -8.66699 -7.83398 -15.5 -3.50098 -20.5s20.166 -6.83301 47.499 -5.5c15.333 0.666992 27.333 2 36 4s18 4 28 6s24 3.33301 42 4
c34.667 2 64.834 3.83301 90.501 5.5s47.834 2.5 66.501 2.5c5.33301 0 9.83301 -0.666992 13.5 -2s8.83398 -6.66602 15.501 -15.999c6 -2 9.5 -6.16699 10.5 -12.5s0 -13 -3 -20s-7.5 -12.833 -13.5 -17.5c-4.66699 0 -12.834 -1.16699 -24.501 -3.5
s-24.334 -4.33301 -38.001 -6s-25.834 -2.16699 -36.501 -1.5c-8.66699 0.666992 -25.167 0.166992 -49.5 -1.5s-50.5 -4.16699 -78.5 -7.5c-24.667 -4 -51.667 -6.33301 -81 -7s-53 -0.666992 -71 0z" />
    <glyph glyph-name="bracketleft" unicode="[" horiz-adv-x="330" 
d="M71 -139c-11.333 5.33301 -18.333 13.8369 -21 25.5039s0 23.167 8 34.5c3.33301 2 6.33301 5.66699 9 11s4 10.333 4 15s1.83301 15 5.5 31s8.33398 34.667 14.001 56l17.5 63c6 20.667 11.5 38.5 16.5 53.5s8.5 23.833 10.5 26.5c0 3.33301 2.33301 10.666 7 21.999
s12.667 25.666 24 42.999c10.667 34 23.167 70.833 37.5 110.5s29.166 78.167 44.499 115.5l42.5 99.5c13 29 23.5 49.5 31.5 61.5l5.5 24.5c1.66699 7.66699 2.5 12.834 2.5 15.501c0 13.333 3.33301 23.166 10 29.499s19.667 9.5 39 9.5
c19.333 2.66699 36.666 4.33398 51.999 5.00098s31 2.5 47 5.5s35.333 8.16699 58 15.5c10 2 20.833 6.16699 32.5 12.5s18.834 9.5 21.501 9.5c8 2 14 1.33301 18 -2s8.66699 -9.33301 14 -18c9.33301 -10.667 13.5 -19.167 12.5 -25.5s-8.83301 -12.5 -23.5 -18.5
l-45 -13.5c-18.667 -5.66699 -38 -10.834 -58 -15.501s-37.667 -8 -53 -10c-12.667 -3.33301 -23.5 -6.33301 -32.5 -9s-14.5 -5.33398 -16.5 -8.00098c-1.33301 -2 -4 -7.16699 -8 -15.5l-13 -27.5l-12.5 -27c-3.66699 -8 -5.5 -12.667 -5.5 -14
c-1.33301 -1.33301 -4.66602 -7.16602 -9.99902 -17.499l-18 -36c-6.66699 -13.667 -12.667 -26.667 -18 -39s-8.66602 -21.5 -9.99902 -27.5c-1.33301 -4 -4.83301 -12.833 -10.5 -26.5l-17.5 -42.5c-6 -14.667 -10.333 -26 -13 -34
c-2.66699 -6.66699 -5.83398 -15.834 -9.50098 -27.501l-11 -34c-3.66699 -11 -6.83398 -19.5 -9.50098 -25.5c0 -2 -0.833008 -7 -2.5 -15s-4.16699 -14.667 -7.5 -20c-2.66699 -4.66699 -5.83398 -11.5 -9.50098 -20.5s-6.5 -17.167 -8.5 -24.5l-8 -13.5
c-2.66699 -4.33301 -4 -7.83301 -4 -10.5c0 -2 -0.166992 -5 -0.5 -9s-1.83301 -9.66699 -4.5 -17c-2 -2.66699 -3.16699 -5.66699 -3.5 -9l-0.5 -5c-2.66699 -2.66699 -5.33398 -10 -8.00098 -22s-7 -25.333 -13 -40l-14 -44c-4 -12.667 -6 -21.667 -6 -27l-5 -28l30 6
c12 2 27.5 4.16699 46.5 6.5s37.667 4.33301 56 6s32.5 2.5 42.5 2.5c12 2.66699 20.5 3.33398 25.5 2.00098s9.16699 -3.83301 12.5 -7.5l13 -14.5c2.66699 -5.33301 4.66699 -9.83301 6 -13.5s1 -6.5 -1 -8.5c-1.33301 -2 -9.16602 -4.83301 -23.499 -8.5
s-30.666 -7.33398 -48.999 -11.001s-34.5 -6.5 -48.5 -8.5h-26.5h-10.5c0 -6 -11 -9 -33 -9c-7.33301 -4 -17 -7.33301 -29 -10s-20.333 -5.33398 -25 -8.00098c-14.667 -6 -26.5 -9 -35.5 -9s-17.167 3 -24.5 9z" />
    <glyph glyph-name="backslash" unicode="\" horiz-adv-x="330" 
d="M335 -115c-2.66699 0 -5.32617 0.495117 -7.99316 1.49512s-4.66699 2.5 -6 4.5c-12 2.66699 -16.667 9 -14 19c0 2.66699 -1.33301 10.834 -4 24.501s-6.16699 30.5 -10.5 50.5l-14.5 64.5l-16 67.5c-5.33301 22 -10.333 41.5 -15 58.5s-8.33398 29.167 -11.001 36.5
c0.666992 2.66699 0.5 5.33398 -0.5 8.00098s-1.16699 5.33398 -0.5 8.00098l-2.5 12c-1 4.66699 -1.16699 8.33398 -0.5 11.001c-2.66699 2.66699 -4.5 7.16699 -5.5 13.5s-1.16699 12.166 -0.5 17.499c0 5.33301 -0.666992 10.5 -2 15.5s-3.33301 7.5 -6 7.5
c-0.666992 2 -2.33398 9.5 -5.00098 22.5l-9.5 48l-12 60.5c-4.33301 21.333 -8.16602 42 -11.499 62l-8.5 51.5c-2.33301 14.333 -3.5 23.833 -3.5 28.5c1.33301 5.33301 1.16602 11.666 -0.500977 18.999s-3.16699 15 -4.5 23c-2 30.667 -0.333008 55 5 73
s13.166 30.333 23.499 37s21.5 7.33398 33.5 2.00098c4 -3.33301 7 -10 9 -20s1.66699 -22.667 -1 -38c-0.666992 -7.33301 0.166016 -20.5 2.49902 -39.5s5.33301 -41 9 -66l12 -78l12 -75.5c3.66699 -23.333 6.5 -42.666 8.5 -57.999c4.66699 -14.667 7.5 -27 8.5 -37
s0.833008 -16.333 -0.5 -19v-5c0 -3.33301 1.33301 -5.33301 4 -6c2.66699 -2.66699 4 -5.5 4 -8.5s0.333008 -5.5 1 -7.5c-0.666992 -1.33301 0 -6.33301 2 -15s4.66699 -19 8 -31l10 -34.5c3.33301 -11 6.33301 -19.167 9 -24.5c0 -8.66699 0.833008 -16 2.5 -22
s2.16699 -10.333 1.5 -13c0 -1.33301 1 -5.83301 3 -13.5s4.66699 -17 8 -28s6.33301 -21.667 9 -32l7 -26.5c7.33301 -21.333 13.166 -37.666 17.499 -48.999s7.33301 -20.166 9 -26.499s1.5 -13.5 -0.5 -21.5c0 -7.33301 -0.833008 -13.833 -2.5 -19.5
s-5.83398 -10.834 -12.501 -15.501s-13.334 -8.66699 -20.001 -12z" />
    <glyph glyph-name="bracketright" unicode="]" horiz-adv-x="330" 
d="M120 -121l-13.4941 -0.00585938c-6.33301 0 -12.833 0.666992 -19.5 2c-4.66699 -0.666992 -12.5 -1.16699 -23.5 -1.5s-22.167 0.5 -33.5 2.5c-10 -0.666992 -20.5 0.833008 -31.5 4.5s-18.167 5.16699 -21.5 4.5l-5 5.5l-10 11.5l-14 10l12 5
c2.66699 3.33301 9.83398 6.83301 21.501 10.5s24.834 7 39.501 10s28.167 5.5 40.5 7.5s20.166 2.33301 23.499 1c2 0 6.33301 -0.5 13 -1.5s13.667 -1.16699 21 -0.5l30 3l10 27c1.33301 8 2.5 16.167 3.5 24.5s1.5 13.833 1.5 16.5c4 3.33301 7.16699 7.66602 9.5 12.999
s3.16602 10 2.49902 14c2 5.33301 4.83301 13.333 8.5 24l11.5 35c1.33301 10.667 5.33301 25.167 12 43.5s11.334 35.833 14.001 52.5c4 13.333 8.83301 27.833 14.5 43.5s9.16699 27.5 10.5 35.5c1.33301 10 4.33301 20.333 9 31s7.33398 21 8.00098 31l24 73.5l32.5 97
c11.667 34.333 22.167 66.833 31.5 97.5c7.33301 14.667 12.833 28.834 16.5 42.501l5.5 20.5l-19.5 -1.5c-13 -1 -29.167 -2.16699 -48.5 -3.5c-42 -2.66699 -72 -4.5 -90 -5.5s-28.667 -1.33301 -32 -1s-5.33301 1.16602 -6 2.49902c-2 2 -3.16699 4 -3.5 6s-1.5 3 -3.5 3
c-2.66699 -0.666992 -5.33398 1.33301 -8.00098 6s-4.33398 9.33398 -5.00098 14.001c0 6 5.83301 11.667 17.5 17s27.5 10.333 47.5 15s42 8.33398 66 11.001c29.333 3.33301 48.166 4.5 56.499 3.5s13.5 -1.5 15.5 -1.5c7.33301 2 17.666 4 30.999 6s26.5 3.33301 39.5 4
s21.833 -0.666016 26.5 -3.99902c2 0 5.16699 -3.5 9.5 -10.5s6.5 -13.833 6.5 -20.5c5.33301 -9.33301 8 -15.166 8 -17.499s-2 -6.16602 -6 -11.499c-2.66699 -4 -6.83398 -11.167 -12.501 -21.5s-11.334 -21.5 -17.001 -33.5s-10.334 -22.667 -14.001 -32
s-5.16699 -15 -4.5 -17c0 -2 -0.333008 -3.83301 -1 -5.5s-2.66699 -2.83398 -6 -3.50098l-2.5 -1c-1.66699 -0.666992 -2.5 -2.66699 -2.5 -6c1.33301 -5.33301 0.333008 -12.833 -3 -22.5s-6.33301 -14.5 -9 -14.5l-2.5 -1c-1.66699 -0.666992 -2.5 -2.66699 -2.5 -6
c0 -2.66699 -0.833008 -7.33398 -2.5 -14.001s-4.16699 -14.667 -7.5 -24c-6.66699 -23.333 -13.334 -42.666 -20.001 -57.999s-10 -24 -10 -26l-3 -7c-2 -4.66699 -3.66699 -9.33398 -5 -14.001c-2.66699 -5.33301 -5.33398 -14.166 -8.00098 -26.499
s-4.66699 -23.833 -6 -34.5c-6 -8.66699 -11.333 -19.167 -16 -31.5s-7.66699 -20.5 -9 -24.5c-2 -6.66699 -3.5 -13 -4.5 -19l-1.5 -9c0 -2 -1.5 -9.16699 -4.5 -21.5s-6.66699 -25.166 -11 -38.499s-8.16602 -23.333 -11.499 -30c0 -2.66699 -1.66699 -10.667 -5 -24
s-7.66602 -28.666 -12.999 -45.999c-2.66699 -15.333 -5.66699 -30 -9 -44s-5.66602 -22.667 -6.99902 -26c0 -2 -1.5 -4.16699 -4.5 -6.5s-4.5 -5.16602 -4.5 -8.49902v-10.5c0 -4.33301 -1.66699 -7.83301 -5 -10.5c-2 -3.33301 -3 -6.83301 -3 -10.5v-5.5
c2 0 2.66699 -0.666992 2 -2l-1 -2c-2 0 -3.16699 -2.33301 -3.5 -7s-0.5 -9 -0.5 -13c0 -14 -2.16699 -24.833 -6.5 -32.5s-11.5 -12.667 -21.5 -15s-24 -2.83301 -42 -1.5c-16 2 -26 2.83301 -30 2.5s-5.33301 -1 -4 -2s2.66602 -1.66699 3.99902 -2
s-0.333984 0.166992 -5.00098 1.5z" />
    <glyph glyph-name="asciicircum" unicode="^" horiz-adv-x="446" 
d="M134 292c-3.33301 2.66699 -6.49609 6.66797 -9.49609 12.001s-4 13.5 -3 24.5s5.16699 26.167 12.5 45.5l24.5 50c5 10.667 11.167 20.334 18.5 29.001c6 10.667 14.833 22.5 26.5 35.5s24.667 25.167 39 36.5s28.5 20.666 42.5 27.999s26 10.333 36 9
c6 -0.666992 13.5 -7.16699 22.5 -19.5s18.667 -28.166 29 -47.499s20.5 -39.666 30.5 -60.999l27.5 -60c8.33301 -18.667 14.833 -33.667 19.5 -45c3.33301 -8 3.16602 -16.667 -0.500977 -26s-9.33398 -17.166 -17.001 -23.499s-15.5 -8.83301 -23.5 -7.5
s-14 9.33301 -18 24l-8.5 25c-2.33301 6.66699 -6.33301 16.5 -12 29.5l-27.5 60.5c-10.667 18 -18.5 32.167 -23.5 42.5s-9.33301 17.5 -13 21.5s-8.83398 5 -15.501 3c-8.66699 -2.66699 -17.834 -8.33398 -27.501 -17.001s-20 -21.834 -31 -39.501
s-23.5 -41.834 -37.5 -72.501c-7.33301 -22 -16.833 -38.333 -28.5 -49s-22.5 -13.334 -32.5 -8.00098z" />
    <glyph glyph-name="underscore" unicode="_" horiz-adv-x="446" 
d="M115 -12c-4 0 -9.00195 0.166992 -15.002 0.5s-12.667 1.83301 -20 4.5c-10 0 -17.5 1.83301 -22.5 5.5s-8.83301 7.83398 -11.5 12.501c-7.33301 10 -7.16602 17.167 0.500977 21.5s23.834 7.83301 48.501 10.5c11.333 2.66699 28.166 4.83398 50.499 6.50098
s46.666 3 72.999 4s51.333 1.83301 75 2.5s42.167 1 55.5 1c17.333 0 29.833 -1 37.5 -3s15.167 -6.66699 22.5 -14c10 -10 12.833 -20.167 8.5 -30.5s-14.166 -14.166 -29.499 -11.499c-3.33301 0 -9.33301 -0.333008 -18 -1s-18 -1.33398 -28 -2.00098
s-19 -1.33398 -27 -2.00098c-4 0 -14.5 -0.333008 -31.5 -1s-36.833 -1.33398 -59.5 -2.00098s-44.167 -1.16699 -64.5 -1.5s-35.166 -0.5 -44.499 -0.5z" />
    <glyph glyph-name="grave" unicode="`" horiz-adv-x="353" 
d="M342 431c-8 -6.66699 -14.1689 -8.83301 -18.502 -6.5s-8.16602 10.833 -11.499 25.5c-3.33301 9.33301 -8.66602 20 -15.999 32l-21.5 36c-7 12 -12 23.167 -15 33.5s-2.16699 18.833 2.5 25.5c5.33301 6 11.833 12.167 19.5 18.5s16.167 7.16602 25.5 2.49902
c5.33301 -2 11.333 -8.16699 18 -18.5s13.167 -22.666 19.5 -36.999s11.833 -28.333 16.5 -42s8.33398 -25.167 11.001 -34.5c0.666992 -2 -0.833008 -5.5 -4.5 -10.5s-7.83398 -9.83301 -12.501 -14.5s-9 -8 -13 -10z" />
    <glyph glyph-name="a" unicode="a" horiz-adv-x="443" 
d="M118 26c-2.66699 5.33301 -7.66309 10.3301 -14.9961 14.9971s-11 8.33398 -11 11.001s-1 6.33398 -3 11.001s-4.33301 8.33398 -7 11.001c-3.33301 4 -2.5 13.667 2.5 29s12.5 34 22.5 56s21.333 44.667 34 68c5.33301 5.33301 10.666 12.333 15.999 21
s9.33301 14.334 12 17.001c0 2.66699 1 5.16699 3 7.5s4.33301 3.5 7 3.5l6 13c0.666992 2.66699 4.33398 8 11.001 16s15 16.833 25 26.5s20 18.834 30 27.501s18.333 15 25 19c14 9.33301 28.5 14.166 43.5 14.499s27.833 -3.83398 38.5 -12.501
c2 -2 6.16699 -5.83301 12.5 -11.5l21.5 -18.5l22 -19l37 -33l-17 -50c-8.66699 -26.667 -10.834 -50 -6.50098 -70s10.5 -37.333 18.5 -52c3.33301 -7.33301 8.66602 -13.5 15.999 -18.5s15.666 -8.16699 24.999 -9.5c5.33301 -0.666992 10.333 -2.66699 15 -6
s7 -8.66602 7 -15.999c0 -12.667 -2.33301 -22 -7 -28s-10.334 -9.66699 -17.001 -11c-22 -2.66699 -42.833 0.666016 -62.5 9.99902s-37.5 29.333 -53.5 60c-2.66699 4 -6.16699 11.5 -10.5 22.5s-6.83301 18.167 -7.5 21.5l-12 -14.5
c-5.33301 -6.33301 -10 -11.5 -14 -15.5c-47.333 -48 -88 -79.5 -122 -94.5s-62.333 -15.167 -85 -0.5zM167.004 99.9971c3.33301 -2 10.668 -0.331055 22.001 5.00195s25.333 14.666 42 27.999c22.667 19.333 42.667 37.166 60 53.499s33 34.5 47 54.5l22 36
c-6.66699 15.333 -13 25.5 -19 30.5s-11.667 7.5 -17 7.5c-8.66699 0 -19.834 -6.33301 -33.501 -19s-28.667 -30.5 -45 -53.5s-33.833 -50.167 -52.5 -81.5c-8 -14 -14.333 -27.667 -19 -41z" />
    <glyph glyph-name="b" unicode="b" horiz-adv-x="441" 
d="M223 10c-13.333 1.33301 -23.002 4.16504 -29.002 8.49805s-11 10.833 -15 19.5c-5.33301 6 -8.5 10.667 -9.5 14s-1.16699 6.33301 -0.5 9c3.33301 0 6.33301 0.166992 9 0.5s4.33398 1.5 5.00098 3.5c0 2 1.16699 3.33301 3.5 4s4.83301 0.666992 7.5 0
c12.667 -0.666992 28.334 3.66602 47.001 12.999s39.167 22.333 61.5 39s44.5 35 66.5 55c17.333 22.667 29.666 39.667 36.999 51s11.333 20.333 12 27s-0.666016 13 -3.99902 19c-2.66699 5.33301 -10.167 7.83301 -22.5 7.5s-28.833 -7.16602 -49.5 -20.499
c-28.667 -18 -51.667 -34.667 -69 -50s-33.333 -32.666 -48 -51.999c-5.33301 -6.66699 -10.833 -14.167 -16.5 -22.5l-14.5 -21l-6 -8.5c0 -2.66699 -3.83301 -6 -11.5 -10s-14.167 -6 -19.5 -6c-2.66699 1.33301 -6.16699 3.83301 -10.5 7.5s-7.16602 8.5 -8.49902 14.5
c-6 4 -10.667 7.66699 -14 11s-5 8.33301 -5 15c0 4.66699 1 11.167 3 19.5l8 34.5c4 17.333 8.5 35.333 13.5 54s9.66699 34.834 14 48.501s7.5 21.167 9.5 22.5l4 9c2.66699 6 4 13 4 21c1.33301 8 3.5 15 6.5 21s4.5 10.333 4.5 13c2.66699 2 6.66699 10 12 24l20 55
c0 2 2.33301 8.5 7 19.5l17 39l20.5 47c7 16.333 12.833 30.833 17.5 43.5c8 11.333 14.667 22.5 20 33.5s10.333 17.5 15 19.5c3.33301 0.666992 8.5 -0.333008 15.5 -3s14.333 -6.16699 22 -10.5s13.167 -9.16602 16.5 -14.499c2 -3.33301 3.16699 -6.5 3.5 -9.5
s-1 -8.33301 -4 -16s-8.5 -19.834 -16.5 -36.501l-34 -71c-18.667 -40 -33.5 -74.167 -44.5 -102.5s-19.833 -52.833 -26.5 -73.5s-13.334 -39.667 -20.001 -57l-5 -22l25 27l25.5 21.5c9 7.66699 17.833 14.834 26.5 21.501c5.33301 4 12.5 8.16699 21.5 12.5
s17.833 8.16602 26.5 11.499s15 5.33301 19 6c2 0.666992 8.16699 2 18.5 4s21.166 3 32.499 3c14.667 0 27.167 -4.5 37.5 -13.5s19.833 -20.833 28.5 -35.5c7.33301 -14 10.166 -31.167 8.49902 -51.5s-7.16699 -38.166 -16.5 -53.499
c-3.33301 -2.66699 -6.66602 -6.16699 -9.99902 -10.5s-5 -7.83301 -5 -10.5c-0.666992 -4.66699 -6.66699 -14.167 -18 -28.5s-22.666 -27.833 -33.999 -40.5c-12 -12.667 -26.667 -25.167 -44 -37.5s-34.5 -23.333 -51.5 -33s-31.5 -16.5 -43.5 -20.5
c-5.33301 -0.666992 -13 -1.83398 -23 -3.50098s-17.667 -3.16699 -23 -4.5z" />
    <glyph glyph-name="c" unicode="c" horiz-adv-x="361" 
d="M217 1c-19.333 -3.33301 -37.999 -1.83301 -55.999 4.5s-32.667 16.833 -44 31.5s-17 32.667 -17 54c-2 20 0 43.5 6 70.5s15 54.333 27 82s25.667 51.167 41 70.5c13.333 16 26.666 30.667 39.999 44s25.333 22.333 36 27c9.33301 4 20 7 32 9s20.667 3 26 3
c10.667 -2.66699 22.334 -7.16699 35.001 -13.5s19 -13.5 19 -21.5l2.5 -2.5l2.5 -2.5c4 0 8.16699 -4.66699 12.5 -14s7.5 -20 9.5 -32s1 -21.667 -3 -29c-2.66699 -12.667 -7.66699 -24.5 -15 -35.5s-13.666 -16.5 -18.999 -16.5c-2.66699 0 -5.16699 -0.166992 -7.5 -0.5
s-3.5 -2.16602 -3.5 -5.49902s-3 -5 -9 -5s-12 1.5 -18 4.5s-10 7.16699 -12 12.5c0 3.33301 0.833008 8.16602 2.5 14.499s3.83398 15.833 6.50098 28.5c4 18.667 4.16699 31 0.5 37s-12.167 6.33301 -25.5 1c-16.667 -9.33301 -31.167 -20.833 -43.5 -34.5
s-23.333 -32.167 -33 -55.5s-19.5 -54.666 -29.5 -93.999c-4 -15.333 -4.83301 -27.833 -2.5 -37.5s4.5 -14.834 6.5 -15.501c9.33301 -2.66699 20.333 -3.16699 33 -1.5s22.667 4.5 30 8.5c10.667 5.33301 21 11.666 31 18.999l30 22c3.33301 2 6.66602 5.66699 9.99902 11
s7.66602 9.33301 12.999 12c5.33301 8 11.5 12.333 18.5 13s14.5 1 22.5 1c5.33301 -1.33301 10.666 -4.33301 15.999 -9s9.33301 -9 12 -13s2 -7 -2 -9c-2.66699 0 -4.16699 -0.833008 -4.5 -2.5l-0.5 -2.5c1.33301 -3.33301 -1.5 -9.33301 -8.5 -18
s-15.833 -18.334 -26.5 -29.001s-20.834 -19.667 -30.501 -27s-16.5 -11 -20.5 -11c-6.66699 0 -10 -2 -10 -6c0 -1.33301 -4.83301 -4.66602 -14.5 -9.99902s-20.667 -10.666 -33 -15.999s-23.166 -9 -32.499 -11z" />
    <glyph glyph-name="d" unicode="d" horiz-adv-x="399" 
d="M370 -19c-8.66699 -2 -16.668 -0.163086 -24.001 5.50391s-12.666 12.167 -15.999 19.5c-4.66699 12.667 -7.66699 25.167 -9 37.5s-2 25.166 -2 38.499v30l-40 -35c-22.667 -21.333 -44.167 -36.333 -64.5 -45s-38.5 -13 -54.5 -13
c-7.33301 1.33301 -15.666 5.33301 -24.999 12s-17.666 14.5 -24.999 23.5s-12.666 16.833 -15.999 23.5c-4 9.33301 -5.16699 22.166 -3.5 38.499s5.66699 34.333 12 54s14.333 39 24 58s20.834 35.5 33.501 49.5c22 33.333 48.167 54 78.5 62s57.833 5 82.5 -9
c14 -6.66699 23.5 -9.33398 28.5 -8.00098s8.5 6.66602 10.5 15.999c2.66699 10.667 5.5 21 8.5 31l13.5 43c16.667 50.667 31.167 90.334 43.5 119.001l33.5 75c7.33301 15.333 14.333 25.666 21 30.999s12.667 7.66602 18 6.99902c7.33301 0 15.666 -2.66699 24.999 -8
s15.666 -12.666 18.999 -21.999c2.66699 -6 3.83398 -12 3.50098 -18s-2.5 -12.667 -6.5 -20c-8.66699 -16 -18.834 -37.167 -30.501 -63.5s-23.334 -55.166 -35.001 -86.499s-22.5 -62.333 -32.5 -93s-18.333 -57.667 -25 -81c-4 -14.667 -7.33301 -33.334 -10 -56.001
s-4.66699 -45.834 -6 -69.501s-1.83301 -44.667 -1.5 -63s1.16602 -30.166 2.49902 -35.499c4 -13.333 4.66699 -23.333 2 -30s-7 -11.167 -13 -13.5s-12.667 -3.83301 -20 -4.5zM203.999 99.0039c9.33301 2.66699 17.8311 6.49902 25.498 11.499s16.5 11.167 26.5 18.5
c20 15.333 35.5 28.833 46.5 40.5s19.167 27.5 24.5 47.5c2.66699 10.667 2.33398 19.667 -0.999023 27s-8.66602 14.333 -15.999 21c-8 6 -18 8.5 -30 7.5s-25.333 -8.16699 -40 -21.5c-16 -14.667 -30.333 -32.5 -43 -53.5s-22.667 -49.5 -30 -85.5
c-1.33301 -6.66699 1 -11.667 7 -15s16 -2.66602 30 2.00098z" />
    <glyph glyph-name="e" unicode="e" horiz-adv-x="331" 
d="M287 25c-18 -11.333 -37.498 -18 -58.498 -20s-40.833 0.833008 -59.5 8.5s-33.667 19.5 -45 35.5c-8.66699 10.667 -15.5 25.5 -20.5 44.5s-5.83301 44.5 -2.5 76.5c3.33301 28.667 12.5 57.834 27.5 87.501s33.333 56 55 79s44.5 38.833 68.5 47.5
c10 4 19.333 6.5 28 7.5s20.667 0.833008 36 -0.5c15.333 -2 28.333 -5.5 39 -10.5s18.667 -10.833 24 -17.5c10 -10.667 16.667 -20.834 20 -30.501s5 -19.167 5 -28.5c-3.33301 -19.333 -13 -40.666 -29 -63.999s-38 -41.333 -66 -54
c-12.667 -4.66699 -27 -7.33398 -43 -8.00098s-34.667 2 -56 8c-14.667 4 -24.334 2.66699 -29.001 -4s-7.33398 -21 -8.00098 -43c0 -16 2.5 -29 7.5 -39s13.5 -16.333 25.5 -19c14.667 -2.66699 25.5 -3.5 32.5 -2.5s15.5 4.16699 25.5 9.5
c7.33301 4.66699 13.166 8.5 17.499 11.5s8.33301 6.16699 12 9.5s7.83398 6.66602 12.501 9.99902c4 3.33301 7.5 5.66602 10.5 6.99902s6.16699 2 9.5 2c6 -0.666992 11.667 -4 17 -10s9 -11.333 11 -16c2.66699 -3.33301 1.16699 -9.66602 -4.5 -18.999
s-14 -19.166 -25 -29.499s-23.5 -19.833 -37.5 -28.5zM278.002 244c6 2.66699 13.333 7.5 22 14.5s16.334 14.5 23.001 22.5s10 14.667 10 20c0 8 -4.66699 14.833 -14 20.5s-22 6.5 -38 2.5c-6 -1.33301 -13 -5.33301 -21 -12s-15.833 -14.167 -23.5 -22.5
s-14.167 -16 -19.5 -23s-8.33301 -12.167 -9 -15.5c2.66699 -3.33301 8.16699 -5.83301 16.5 -7.5s17.666 -2.5 27.999 -2.5s18.833 1 25.5 3z" />
    <glyph glyph-name="f" unicode="f" horiz-adv-x="297" 
d="M138 -116c-4 -2.66699 -11.5029 -0.336914 -22.5029 6.99609s-21.167 16.333 -30.5 27c-4.66699 5.33301 -7.66699 11 -9 17s-1 17.333 1 34c2.66699 7.33301 4.16699 14.333 4.5 21s0.5 11.334 0.5 14.001c0 4 1.16699 13.333 3.5 28l7.5 46.5
c2.66699 16.333 5 28.833 7 37.5c0 0.666992 0.5 2.83398 1.5 6.50098s1.83301 6.5 2.5 8.5l5 22.5c2 9 4 20.833 6 35.5c5.33301 16.667 9.83301 33.167 13.5 49.5s5.5 27.5 5.5 33.5c0 12 4.66699 20.667 14 26c0.666992 3.33301 2.66699 8.5 6 15.5
s6.33301 12.833 9 17.5c13.333 38 24.333 68.167 33 90.5s17.667 41.833 27 58.5c4 12 8.5 24 13.5 36s10.167 21.333 15.5 28c4.66699 8.66699 12.834 19.834 24.501 33.501s24.167 26.834 37.5 39.501s24 22.334 32 29.001c14.667 7.33301 27.667 13 39 17s24 6 38 6
c12.667 0 23 -2.33301 31 -7s19.667 -14.334 35 -29.001c8 -8.66699 12.167 -16.334 12.5 -23.001s-0.5 -13.334 -2.5 -20.001c-4 -10 -10 -22.5 -18 -37.5s-16 -28.333 -24 -40s-14 -17.834 -18 -18.501c-8 -4 -15.5 -4.66699 -22.5 -2s-10.5 9 -10.5 19
c0 4.66699 -0.166992 9 -0.5 13l-0.5 6c1.33301 6.66699 3.16602 13 5.49902 19s4.83301 11.333 7.5 16c4.66699 8 5.83398 15.333 3.50098 22s-9.5 9 -21.5 7c-2 -1.33301 -6.33301 -4.66602 -13 -9.99902s-13.667 -11.666 -21 -18.999l-19.5 -20
c-5.66699 -6 -8.5 -10 -8.5 -12l-5 -10c-3.33301 -6.66699 -8.66602 -14.334 -15.999 -23.001c-4.66699 -6.66699 -8.66699 -13 -12 -19s-5 -10.333 -5 -13s-0.333008 -5.16699 -1 -7.5s-2.33398 -3.5 -5.00098 -3.5l-3.5 -9.5
c-2.33301 -6.33301 -6.16602 -14.166 -11.499 -23.499c-2.66699 -6.66699 -5.66699 -13.167 -9 -19.5s-6.33301 -10.833 -9 -13.5v-1l-4.5 -11.5l-9.5 -24.5c-3.33301 -8.66699 -5 -13.667 -5 -15c0 -2.66699 4.33301 -4 13 -4s18.834 1.16699 30.501 3.5
s22.834 4.83301 33.501 7.5c9.33301 2.66699 16 4 20 4s10.333 -1.33301 19 -4c5.33301 -3.33301 9.83301 -8.83301 13.5 -16.5s6.33398 -15.167 8.00098 -22.5s1.5 -12.666 -0.5 -15.999c-0.666992 -2.66699 -8 -6.33398 -22 -11.001s-28 -8.33398 -42 -11.001l-42 -9
c-16 -3.33301 -29.833 -6.33301 -41.5 -9s-17.834 -5.33398 -18.501 -8.00098c-2.66699 0 -4.83398 -1.66699 -6.50098 -5s-2.5 -6 -2.5 -8c0 -9.33301 -1.66699 -16.333 -5 -21c-1.33301 -4 -3.5 -12.167 -6.5 -24.5l-9.5 -40
c-3.33301 -14.333 -6.16602 -27.666 -8.49902 -39.999s-3.5 -20.5 -3.5 -24.5c-4 -4.66699 -6.33301 -10.5 -7 -17.5s-1 -13.167 -1 -18.5c-2.66699 -5.33301 -4.33398 -10.166 -5.00098 -14.499s-1 -7.83301 -1 -10.5v-4c0 -2 -0.333008 -4 -1 -6
c-0.666992 -6.66699 -1.5 -15.5 -2.5 -26.5s-1.5 -21.833 -1.5 -32.5l-3 -29c-0.666992 -8.66699 -1.66699 -16.167 -3 -22.5s-4 -11.166 -8 -14.499z" />
    <glyph glyph-name="g" unicode="g" horiz-adv-x="361" 
d="M211 -197c-18.667 -7.33301 -38.168 -6.16797 -58.501 3.49902s-37.833 24.834 -52.5 45.501c-2.66699 4 -6.33398 10.833 -11.001 20.5s-9.16699 20 -13.5 31s-7.5 20.5 -9.5 28.5s-2 12.667 0 14c2.66699 5.33301 7.83398 8.33301 15.501 9
s15.334 -0.166016 23.001 -2.49902s12.167 -5.5 13.5 -9.5c2 -4.66699 4.5 -10 7.5 -16s6.33301 -11.333 10 -16s6.83398 -8.33398 9.50098 -11.001c9.33301 -9.33301 17.833 -15.333 25.5 -18s13.834 -2.33398 18.501 0.999023c11.333 8.66699 20.166 19.167 26.499 31.5
s14.166 33.166 23.499 62.499l20 69c6 21.333 12 39.666 18 54.999c2 8 4.5 14.833 7.5 20.5s5.83301 9.83398 8.5 12.501h6c-14.667 -9.33301 -27.167 -19.166 -37.5 -29.499s-24.166 -19.166 -41.499 -26.499c-4 -4.66699 -13.833 -7.5 -29.5 -8.5
s-30.834 0.833008 -45.501 5.5c-9.33301 5.33301 -16.666 10.333 -21.999 15s-9.66602 10.167 -12.999 16.5s-7 14.5 -11 24.5c-4.66699 10 -5.33398 26.333 -2.00098 49s9.33301 45.334 18 68.001c8 16.667 19.667 34.667 35 54s31.666 36.833 48.999 52.5s33 25.5 47 29.5
c5.33301 2.66699 13.5 5.5 24.5 8.5s22.5 2.83301 34.5 -0.5c11.333 -1.33301 20 -3.83301 26 -7.5s15.667 -11.167 29 -22.5c8.66699 -8.66699 18.167 -19 28.5 -31s17.166 -22.667 20.499 -32c4.66699 -10 6 -20.333 4 -31s-6.33301 -20.334 -13 -29.001
c-6 -8.66699 -12.333 -17.334 -19 -26.001s-11.667 -20.667 -15 -36c-3.33301 -20 -9.33301 -42.5 -18 -67.5s-15.667 -48.167 -21 -69.5l-16 -62c-16.667 -56.667 -34.167 -98.167 -52.5 -124.5s-34.166 -43.166 -47.499 -50.499zM184.999 138.998
c13.333 0.666992 25.167 2.49902 35.5 5.49902s20.333 9.16699 30 18.5s20.167 22.666 31.5 39.999c11.333 16 19.333 31.333 24 46s6.33398 30.334 5.00098 47.001c-0.666992 10.667 -3.16699 17.667 -7.5 21s-10.833 4.33301 -19.5 3c-12.667 -2 -25 -7.66699 -37 -17
s-24.667 -22.666 -38 -39.999c-10 -13.333 -18.333 -29.333 -25 -48c-6.66699 -20 -9.83398 -37 -9.50098 -51s3.83301 -22.333 10.5 -25z" />
    <glyph glyph-name="h" unicode="h" horiz-adv-x="470" 
d="M138 43c-4.66699 -0.666992 -9.66406 0.666016 -14.9971 3.99902s-10.333 6.66602 -15 9.99902c-6.66699 7.33301 -11.167 13.5 -13.5 18.5s-3.33301 11 -3 18s1.5 16.167 3.5 27.5c3.33301 10.667 7.33301 25.167 12 43.5s10 37.5 16 57.5
c2 8.66699 4.83301 18.667 8.5 30s7.5 22 11.5 32l9 23c4.66699 17.333 9.5 33.5 14.5 48.5s11.167 32.167 18.5 51.5s16.333 44.333 27 75l33 90.5c7.33301 20.333 12.833 35 16.5 44s6.16699 16.167 7.5 21.5c0 5.33301 3 10.166 9 14.499s11.667 6.5 17 6.5
c9.33301 -0.666992 17.833 -6 25.5 -16s12.834 -21.833 15.501 -35.5s0.666992 -26.5 -6 -38.5c-10.667 -24 -21.5 -51.5 -32.5 -82.5l-32 -91.5c-10.333 -30 -20.5 -57 -30.5 -81c-0.666992 -2.66699 -2.5 -7.83398 -5.5 -15.501s-5.83301 -14.167 -8.5 -19.5l-7.5 -15
l-3.5 -7c-0.666992 -3.33301 -2 -8.66602 -4 -15.999s-4.33301 -14.666 -7 -21.999c-1.33301 -4.66699 -3 -11 -5 -19s-3.33301 -15 -4 -21c3.33301 4.66699 8.66602 10.834 15.999 18.501s15.666 15.834 24.999 24.501l31 26.5c10 8.33301 19 15.166 27 20.499l20.5 14.5
l9.5 6.5c0.666992 2.66699 2 4.83398 4 6.50098s4 2.83398 6 3.50098s4.16699 2 6.5 4s4.5 4.33301 6.5 7c4 3.33301 9.5 6.33301 16.5 9s14.667 4.83398 23 6.50098s15.833 2.5 22.5 2.5c8 0 15.667 -2.66699 23 -8s14.666 -13.666 21.999 -24.999
c7.33301 -9.33301 12 -20.5 14 -33.5s1.66699 -28.5 -1 -46.5c0 -5.33301 -1.33301 -14.5 -4 -27.5s-4.33398 -23.833 -5.00098 -32.5l-8 -33h10c6.66699 2 13.167 2 19.5 0l9.5 -3c3.33301 -2 6.33301 -4.33301 9 -7s5.33398 -4.33398 8.00098 -5.00098
c5.33301 -4 6 -10.333 2 -19s-9.66699 -15.334 -17 -20.001c-16 -10.667 -30.333 -16.834 -43 -18.501s-25 1.83301 -37 10.5c-12 9.33301 -20 20.333 -24 33s-4.66699 29.334 -2 50.001c2.66699 29.333 4.16699 50.666 4.5 63.999s-3.16699 20 -10.5 20s-18.333 -4 -33 -12
s-31 -19 -49 -33s-35.833 -29.333 -53.5 -46s-32.834 -33.667 -45.501 -51c-8 -10 -16.333 -19.5 -25 -28.5s-18.667 -13.833 -30 -14.5z" />
    <glyph glyph-name="i" unicode="i" horiz-adv-x="193" 
d="M106 22c-5.33301 5.33301 -9.1709 12.8311 -11.5039 22.498s-3.16602 19.334 -2.49902 29.001s2.33398 17.167 5.00098 22.5c0 5.33301 0.833008 9.5 2.5 12.5s2.16699 5.83301 1.5 8.5s0 7.33398 2 14.001s4 13 6 19c4.66699 10.667 9.83398 24.167 15.501 40.5l17 49.5
c5.66699 16.667 10.334 31.167 14.001 43.5s5.83398 19.833 6.50098 22.5c0 8 5.33301 12.333 16 13c8 2.66699 16.5 0.5 25.5 -6.5s16.833 -15.833 23.5 -26.5c5.33301 -5.33301 7.33301 -12.666 6 -21.999s-5.66602 -22 -12.999 -38
c-2.66699 -5.33301 -5.83398 -13.833 -9.50098 -25.5s-6.16699 -21.5 -7.5 -29.5c-2.66699 -5.33301 -5.83398 -12.833 -9.50098 -22.5s-6.83398 -18.834 -9.50098 -27.501c-1.33301 -3.33301 -2.66602 -9 -3.99902 -17s-3 -16.333 -5 -25s-4.66699 -15.667 -8 -21
c-6 -27.333 -14.833 -43.333 -26.5 -48s-23.167 -0.666992 -34.5 12zM209.995 424.998c-6 4.66699 -10.668 10.502 -14.001 17.502s-5.16602 13.5 -5.49902 19.5s0.166992 9.33301 1.5 10c6 5.33301 12 13.833 18 25.5s10.667 22.167 14 31.5
c0.666992 2 2.16699 4.66699 4.5 8s4.83301 5.33301 7.5 6c8 5.33301 18 5.33301 30 0s21.333 -13.333 28 -24c6 -12.667 7.83301 -24.834 5.5 -36.501s-9.5 -24.834 -21.5 -39.501c-10 -13.333 -21.5 -21.5 -34.5 -24.5s-24.167 -0.833008 -33.5 6.5z" />
    <glyph glyph-name="j" unicode="j" horiz-adv-x="210" 
d="M63 -204c-14.667 -14.667 -33.498 -21.835 -56.498 -21.502s-42.5 8.83301 -58.5 25.5c-12.667 18.667 -21.667 37 -27 55s-6.83301 33 -4.5 45s8.16602 18 17.499 18c3.33301 0 7.66602 -1.16699 12.999 -3.5s10 -5.5 14 -9.5s6 -8.66699 6 -14
c0 -10 1.5 -18.833 4.5 -26.5s8.83301 -11.834 17.5 -12.501c7.33301 -2.66699 15.666 -1.5 24.999 3.5s17.666 13.5 24.999 25.5c6.66699 8.66699 14.167 22.334 22.5 41.001l25.5 58.5c8.66699 20.333 15.334 36.833 20.001 49.5c8 27.333 14.667 55.333 20 84
s11.333 59.334 18 92.001c2.66699 18 5.83398 33.5 9.50098 46.5s5.5 20.833 5.5 23.5s0.333008 8.16699 1 16.5s2.66699 15.833 6 22.5c0 10 1.16699 20.5 3.5 31.5s3.5 17.833 3.5 20.5c2 2 5.83301 2.33301 11.5 1s11.5 -3.5 17.5 -6.5s10.667 -6.16699 14 -9.5
c5.33301 -5.33301 9.66602 -11 12.999 -17s5.33301 -15.5 6 -28.5s-0.666016 -32.833 -3.99902 -59.5c0 -4 -1 -12.167 -3 -24.5s-4.66699 -26.166 -8 -41.499l-10 -44.5c-3.33301 -14.333 -6 -26.166 -8 -35.499l-9 -33c-3.33301 -12 -5.33301 -20.333 -6 -25
c-0.666992 -4 -3 -11.833 -7 -23.5s-8.16699 -23.167 -12.5 -34.5s-6.83301 -19.333 -7.5 -24c-0.666992 -2.66699 -2.5 -9 -5.5 -19s-9.16699 -25.333 -18.5 -46c-3.33301 -8 -9.83301 -19.167 -19.5 -33.5s-19.667 -27.833 -30 -40.5s-18.5 -21.334 -24.5 -26.001z
M215.002 478.999c-7.33301 8.66699 -9.66699 21.833 -7 39.5s9.33398 33.5 20.001 47.5c8.66699 10 19.667 15.667 33 17s24.333 -1.66699 33 -9c7.33301 -11.333 11.666 -22 12.999 -32s-1.66699 -20.333 -9 -31c-16.667 -18.667 -32.5 -30.5 -47.5 -35.5
s-26.833 -3.83301 -35.5 3.5z" />
    <glyph glyph-name="k" unicode="k" horiz-adv-x="371" 
d="M123 0c-5.33301 2 -11.999 7.00391 -19.999 15.0039s-14.833 17.167 -20.5 27.5s-8.5 19.166 -8.5 26.499c3.33301 7.33301 7.83301 20.166 13.5 38.499l19.5 63.5c5.33301 7.33301 9.5 15.833 12.5 25.5l8.5 26.5l18.5 41c7 16 13.667 32.333 20 49s12.166 31 17.499 43
c9.33301 19.333 17.166 36.5 23.499 51.5l19 44.5l20.5 49c9.33301 20 18.166 40 26.499 60l22 54c6.33301 16 10.166 27.333 11.499 34c-0.666992 5.33301 0.166016 9.16602 2.49902 11.499s4.83301 3.83301 7.5 4.5c3.33301 2 7.83301 3.33301 13.5 4s9.83398 1 12.501 1
c6.66699 -0.666992 14 -6.66699 22 -18s12 -21 12 -29c0 -10.667 -5.16699 -30.5 -15.5 -59.5s-25.166 -62.833 -44.499 -101.5l-53 -118c-12.667 -28.667 -21.167 -49.334 -25.5 -62.001s-6.16602 -20.667 -5.49902 -24l10 4.5c6.66699 3 15.334 8.16699 26.001 15.5
c7.33301 4.66699 15.666 10.334 24.999 17.001l27 19c8.66699 6 15.667 9.66699 21 11c4.66699 3.33301 10.5 7.16602 17.5 11.499s12.5 8.16602 16.5 11.499c12.667 8 22.334 10.5 29.001 7.5s13 -8.5 19 -16.5c7.33301 -8.66699 9.66602 -17.167 6.99902 -25.5
s-13.334 -19.5 -32.001 -33.5c-14.667 -10 -30.834 -20.167 -48.501 -30.5l-47.5 -27.5c-14 -8 -23.333 -14 -28 -18l8.5 -13.5l16.5 -25.5c5.33301 -10.667 11.833 -23 19.5 -37s12.834 -23.667 15.501 -29c7.33301 -14 16 -23.667 26 -29s22.667 -5 38 1
c11.333 3.33301 20.333 3.66602 27 0.999023s12 -7.66699 16 -15c2.66699 -5.33301 3.83398 -10.166 3.50098 -14.499s-4.83301 -10.166 -13.5 -17.499c-16.667 -12.667 -33 -22.5 -49 -29.5s-31 -6.16699 -45 2.5c-12.667 6.66699 -25.667 16.834 -39 30.501
s-29.666 33.167 -48.999 58.5c0 2.66699 -1.66699 7.66699 -5 15s-6 12.333 -8 15c-2.66699 5.33301 -5.66699 10.5 -9 15.5l-5 7.5c-1.33301 6 -3.33301 11 -6 15s-6 7 -10 9c-5.33301 0 -9.83301 -2.83301 -13.5 -8.5l-11.5 -18.5l-12.5 -32.5
c-4.33301 -11.667 -7.83301 -23.5 -10.5 -35.5s-4 -24 -4 -36c0 -8.66699 -2.66699 -16.334 -8 -23.001s-13.333 -10 -24 -10z" />
    <glyph glyph-name="l" unicode="l" horiz-adv-x="175" 
d="M138 -7c-12.667 -3.33301 -23.667 -0.167969 -33 9.49902s-15.5 24.167 -18.5 43.5s-1.83301 41.333 3.5 66c3.33301 8 6 15.833 8 23.5s3 13.834 3 18.501c1.33301 6.66699 4 16.5 8 29.5l13 40.5c4.66699 14 9.16699 26.5 13.5 37.5s7.16602 17.833 8.49902 20.5
c2.66699 0 5 2.33301 7 7s3 9.33398 3 14.001c0 5.33301 1.16699 11.333 3.5 18s4.83301 11.334 7.5 14.001c0 3.33301 0.833008 7.16602 2.5 11.499s2.5 7.83301 2.5 10.5s0.833008 5.33398 2.5 8.00098s2.5 5.33398 2.5 8.00098c4.66699 8.66699 10.834 22.5 18.501 41.5
l25 63.5l25.5 69c8 22.667 14.5 41.834 19.5 57.501s7.5 25.167 7.5 28.5c0 5.33301 1.83301 10 5.5 14s8.16699 6 13.5 6c2 2 5.83301 3.5 11.5 4.5s9.83398 1.5 12.501 1.5l4 -4l12 -12c5.33301 -4.66699 9.83301 -10 13.5 -16s5.5 -13 5.5 -21
c0 -8.66699 -1 -16.834 -3 -24.501s-6 -18.167 -12 -31.5l-28 -60c-5.33301 -13.333 -11 -25.833 -17 -37.5s-9 -18.834 -9 -21.501s-1.16699 -6.66699 -3.5 -12s-4.83301 -12 -7.5 -20c-2.66699 -5.33301 -6.33398 -13.166 -11.001 -23.499l-14.5 -33l-12.5 -30
c-3.33301 -8.33301 -5 -13.166 -5 -14.499c0 -2.66699 -0.166992 -5.33398 -0.5 -8.00098s-1.83301 -5.33398 -4.5 -8.00098c-2.66699 0 -4.16699 -1.83301 -4.5 -5.5l-0.5 -5.5c0 -6.66699 -5.33301 -24.334 -16 -53.001l-29.5 -101
c-9 -30.667 -13.5 -55.334 -13.5 -74.001c0 -16 -1.83301 -27.667 -5.5 -35s-8.16699 -12.333 -13.5 -15z" />
    <glyph glyph-name="m" unicode="m" horiz-adv-x="566" 
d="M561 30c-4 1.33301 -10.501 5.33203 -19.501 11.999s-16.833 17 -23.5 31s-9.66699 32.667 -9 56c0.666992 20 1.83398 34.667 3.50098 44s-0.166016 14.333 -5.49902 15c-4 0.666992 -11.833 -3 -23.5 -11s-26 -19.833 -43 -35.5s-36.5 -34.834 -58.5 -57.501l-24 -23.5
c-8.66699 -8.33301 -17.167 -14.333 -25.5 -18s-16.166 -2.5 -23.499 3.5l-11 9c-4 4 -7.16699 8.83301 -9.5 14.5s-2.83301 10.834 -1.5 15.501l26 74c8.66699 19.333 14.667 33.5 18 42.5s5 14.667 5 17s-1.66699 3.16602 -5 2.49902c-4 -0.666992 -10.333 -4 -19 -10
s-14.334 -11.333 -17.001 -16c-2.66699 0 -6.33398 -2.66699 -11.001 -8s-9.66699 -10.333 -15 -15c-4 -5.33301 -11.667 -13.833 -23 -25.5l-35 -35.5c-8.66699 -8 -18.167 -18.167 -28.5 -30.5s-19.333 -23.5 -27 -33.5s-12.5 -15 -14.5 -15
c-10.667 0.666992 -20.5 4.16699 -29.5 10.5s-15.167 14.833 -18.5 25.5c-4 8.66699 -4 23 0 43l18 90c2.66699 10 5 18.167 7 24.5s4.16699 12.833 6.5 19.5l9 24.5c3.66699 9.66699 9.16699 22.5 16.5 38.5c4 10.667 5.83301 19.834 5.5 27.501s-0.5 13.5 -0.5 17.5
c0 9.33301 2.66699 16.666 8 21.999s11.5 9.16602 18.5 11.499s12.833 2.83301 17.5 1.5c15.333 -2 26.166 -7.66699 32.499 -17s9.83301 -19.333 10.5 -30c0.666992 -9.33301 -0.5 -17.833 -3.5 -25.5l-7.5 -19.5l-11 -27l-14 -33c-4 -9.33301 -6.66699 -16.666 -8 -21.999
s-2 -9 -2 -11c0.666992 -2 3.33398 -1.16699 8.00098 2.5s10.667 8.83398 18 15.501s14.333 12.667 21 18c12.667 10.667 26.5 21.5 41.5 32.5s29.667 20.667 44 29s25.833 13.833 34.5 16.5c11.333 -1.33301 20.833 -5.83301 28.5 -13.5s14.167 -15.5 19.5 -23.5
c4 -8 5.33301 -15.833 4 -23.5s-2.66602 -14.834 -3.99902 -21.501c-0.666992 -2.66699 -2.16699 -8.16699 -4.5 -16.5s-4.66602 -16.166 -6.99902 -23.499l-3.5 -11l7.5 7c5 4.66699 11.333 10.167 19 16.5l20.5 16.5c30.667 23.333 55.834 38.333 75.501 45
s36.167 0.333984 49.5 -18.999c8 -7.33301 12.833 -16.666 14.5 -27.999s2.5 -27.666 2.5 -48.999c0.666992 -8.66699 1.5 -18.5 2.5 -29.5s2.16699 -20.833 3.5 -29.5s2.66602 -14 3.99902 -16c2 -2.66699 5.66699 -5 11 -7s11.333 -3.66699 18 -5
c9.33301 -3.33301 14.666 -10.333 15.999 -21s-3.33398 -19.334 -14.001 -26.001c-10 -6 -20.667 -9.33301 -32 -10s-22.333 -0.333984 -33 0.999023z" />
    <glyph glyph-name="n" unicode="n" horiz-adv-x="456" 
d="M447 31c-14.667 1.33301 -26.668 4.49707 -36.001 9.49707s-17 14.833 -23 29.5c-2.66699 10.667 -4.16699 21.834 -4.5 33.501s0 22.834 1 33.501l2.5 26c0.666992 1.33301 1 4.5 1 9.5v15.5c-1.33301 10.667 -4.16602 17.167 -8.49902 19.5
s-11.166 1.16602 -20.499 -3.50098c-13.333 -6.66699 -28.666 -15.667 -45.999 -27s-35.333 -24.333 -54 -39l-56 -46c-14.667 -16 -24.834 -28.667 -30.501 -38s-11.834 -14 -18.501 -14c-5.33301 -2.66699 -10.666 -2.33398 -15.999 0.999023s-11.333 7.66602 -18 12.999
c-4.66699 5.33301 -9.83398 11.666 -15.501 18.999s-9.16699 12.333 -10.5 15c0 8 0.833008 16.667 2.5 26s4.33398 19 8.00098 29s7.5 19.333 11.5 28c2.66699 3.33301 5.16699 7.83301 7.5 13.5s5.5 11.834 9.5 18.501c2 8.66699 5.66699 19.334 11 32.001l15 35
c8 16.667 14 31 18 43s7 25.667 9 41c-0.666992 1.33301 -0.166992 3.33301 1.5 6s3.83398 4.33398 6.50098 5.00098v0h1c4.66699 4 12.667 4.83301 24 2.5s20 -6.83301 26 -13.5c13.333 -13.333 19.5 -29.166 18.5 -47.499s-11.167 -43.166 -30.5 -74.499
c-4.66699 -10.667 -9.16699 -20 -13.5 -28s-6.5 -13.667 -6.5 -17l9 6.5l21 15c8 5.66699 14.667 10.167 20 13.5c3.33301 3.33301 10.666 9.5 21.999 18.5s23.833 18.167 37.5 27.5s24.167 16 31.5 20c6.66699 4.66699 14.834 9.33398 24.501 14.001s15.834 7 18.501 7
c6 0 13.667 -2.5 23 -7.5s18 -11 26 -18s12.667 -13.167 14 -18.5c0 -2.66699 -0.166992 -5.83398 -0.5 -9.50098s-0.5 -7.16699 -0.5 -10.5c0.666992 -10 1.16699 -22.333 1.5 -37s0.166016 -29 -0.500977 -43s-2.33398 -25.333 -5.00098 -34l1 -2
c0.666992 -1.33301 1.66699 -2.66602 3 -3.99902c-0.666992 -1.33301 -0.833984 -2.66602 -0.500977 -3.99902l0.5 -2c-0.666992 -2.66699 -0.333984 -6.5 0.999023 -11.5s3.5 -10.5 6.5 -16.5l10.5 -20c2 -8.66699 -0.166992 -16.834 -6.5 -24.501
s-14.166 -12.834 -23.499 -15.501z" />
    <glyph glyph-name="o" unicode="o" horiz-adv-x="359" 
d="M168 10c-8.66699 0 -15.5 1.66992 -20.5 5.00293s-11.167 8 -18.5 14c-12.667 13.333 -22.334 27.166 -29.001 41.499s-9 27.166 -7 38.499c2 5.33301 2.83301 10.5 2.5 15.5l-0.5 7.5c-3.33301 3.33301 -4.33301 5.5 -3 6.5s2.66602 2.83301 3.99902 5.5
c4 0 5.33301 3.66699 4 11c-1.33301 5.33301 1 16.833 7 34.5s14 34.5 24 50.5c4 6.66699 10 15.5 18 26.5s16.833 22 26.5 33s18.5 19.833 26.5 26.5c16.667 14 31.834 25 45.501 33s27.834 13.667 42.501 17s28.167 5 40.5 5s23.5 -5.33301 33.5 -16
c15.333 -6.66699 26.333 -15.334 33 -26.001s11 -25 13 -43c2 -20 0.166992 -44 -5.5 -72s-21.834 -61 -48.501 -99c-16.667 -24 -32.667 -42.333 -48 -55s-32.666 -24.667 -51.999 -36c-14 -9.33301 -28.333 -15.333 -43 -18s-29.667 -4.66699 -45 -6zM268 126.003
c15.333 14.667 26.6689 29.832 34.002 45.499s15 34.5 23 56.5c2.66699 4.66699 4.5 12 5.5 22s1 19.667 0 29s-3.5 14.666 -7.5 15.999c-6.66699 4.66699 -13.834 5.83398 -21.501 3.50098s-16.834 -7.5 -27.501 -15.5c-20 -16.667 -38.333 -36.5 -55 -59.5
s-29.667 -50.5 -39 -82.5c-4.66699 -19.333 -4.16699 -34.166 1.5 -44.499s16 -13.5 31 -9.5s33.5 17 55.5 39z" />
    <glyph glyph-name="p" unicode="p" horiz-adv-x="378" 
d="M61 -230c-2.66699 0 -6.33105 -0.165039 -10.998 -0.498047s-8.66699 2.5 -12 8.5c-2.66699 3.33301 -5.83398 9.33301 -9.50098 18s-3.83398 21.667 -0.500977 39c3.33301 11.333 6 22.5 8 33.5s3 19.167 3 24.5c0 2.66699 0.833008 7.83398 2.5 15.501
s2.5 13.167 2.5 16.5c3.33301 5.33301 6 12.666 8 21.999s3 17.666 3 24.999c0 8 4 15.333 12 22c0 5.33301 1.16699 12 3.5 20s3.5 13.333 3.5 16c2 9.33301 6.5 25.833 13.5 49.5s15.667 50.5 26 80.5l30.5 88c10 28.667 19 53 27 73c8 18.667 14.333 35.667 19 51
s7 26.333 7 33c0 2.66699 0.666992 4.83398 2 6.50098s4.33301 5.16699 9 10.5c6.66699 6.66699 14.5 9 23.5 7s17.167 -5.66699 24.5 -11c5.33301 -8.66699 9.16602 -16.334 11.499 -23.001s2.16602 -17.334 -0.500977 -32.001c0 -10 -2.16699 -19 -6.5 -27
s-8.16602 -14.333 -11.499 -19s-4.33301 -6.66699 -3 -6c28.667 16 54.334 24.833 77.001 26.5s41.834 -2.16602 57.501 -11.499s27.667 -22 36 -38s12.5 -33.667 12.5 -53c0 -8 -2.33301 -18.333 -7 -31s-10 -24.334 -16 -35.001s-11 -18 -15 -22
c-2.66699 0 -5.33398 -2.16699 -8.00098 -6.5s-5.33398 -9.16602 -8.00098 -14.499c-5.33301 -6.66699 -14.166 -14.167 -26.499 -22.5s-24.5 -15 -36.5 -20s-20.667 -6.5 -26 -4.5l-2.5 -1.5c-1.66699 -1 -2.5 -3.16699 -2.5 -6.5c0 -1.33301 -5 -4 -15 -8
s-21.5 -7.83301 -34.5 -11.5s-24.833 -5.5 -35.5 -5.5c-14 0 -24 2.66699 -30 8c-1.33301 -1.33301 -2.83301 -3.33301 -4.5 -6s-2.5 -5 -2.5 -7c0 -4 -1.5 -10.667 -4.5 -20s-6.5 -18 -10.5 -26s-7.66699 -12 -11 -12l-2 -3c-1.33301 -2 -0.666016 -4.66699 2.00098 -8
l-0.5 -11.5c-0.333008 -7.66699 -2.16602 -14.167 -5.49902 -19.5c0 -5.33301 -1 -13.333 -3 -24s-4.33301 -18.667 -7 -24c0 -8 -1.16699 -15.833 -3.5 -23.5s-4.83301 -11.5 -7.5 -11.5c-2.66699 -0.666992 -4.33398 -4.83398 -5.00098 -12.501s-1 -13.167 -1 -16.5
c-0.666992 -16.667 -5.33398 -30.667 -14.001 -42s-17 -17 -25 -17zM187.003 115.002c5.33301 0 15.334 2.33398 30.001 7.00098s30.167 10.5 46.5 17.5s28.833 14.167 37.5 21.5c17.333 15.333 30.833 31.166 40.5 47.499s8.83398 33.5 -2.49902 51.5
c-5.33301 9.33301 -14.333 13.166 -27 11.499s-26.334 -7.16699 -41.001 -16.5s-29.334 -21 -44.001 -35c-8 -8.66699 -15.333 -19 -22 -31s-12.167 -23.667 -16.5 -35s-6.83301 -20.666 -7.5 -27.999s1.33301 -11 6 -11z" />
    <glyph glyph-name="q" unicode="q" horiz-adv-x="377" 
d="M246 -227c-8 5.33301 -15.168 11.002 -21.501 17.002s-11.166 15.667 -14.499 29c-3.33301 18 -3.66602 41 -0.999023 69s8.16699 59.167 16.5 93.5s18.5 69.166 30.5 104.499c3.33301 5.33301 6.5 12 9.5 20s4.16699 13.333 3.5 16l-69.5 -34
c-15.667 -7.33301 -29.167 -11 -40.5 -11c-8.66699 0 -18.167 4.66699 -28.5 14s-19 20.5 -26 33.5s-10.5 24.833 -10.5 35.5s5.33301 26.667 16 48s22.667 41.333 36 60c5.33301 9.33301 15 20.333 29 33s28.833 24.834 44.5 36.501s27.834 20.167 36.501 25.5
c5.33301 3.33301 10.666 6.16602 15.999 8.49902s10.666 4.83301 15.999 7.5c5.33301 3.33301 10.333 6 15 8s8.33398 3 11.001 3c10.667 2.66699 23 3.66699 37 3s25 -2.33398 33 -5.00098c8 -5.33301 17.167 -15.166 27.5 -29.499s16.833 -28.166 19.5 -41.499
c0 -6.66699 -0.333008 -12.834 -1 -18.501s-2.83398 -13.167 -6.50098 -22.5s-10.167 -24 -19.5 -44c-10.667 -16 -19.5 -31.667 -26.5 -47s-10.5 -24.333 -10.5 -27c-3.33301 -8.66699 -8.16602 -20 -14.499 -34l-17.5 -38.5c-5.33301 -11.667 -9 -19.5 -11 -23.5
c-1.33301 -6.66699 -4.33301 -18.5 -9 -35.5s-9.5 -35.667 -14.5 -56s-9.5 -39.5 -13.5 -57.5c-5.33301 -29.333 -8 -55 -8 -77s2.66699 -37 8 -45c2.66699 -8 -0.833008 -14.333 -10.5 -19s-19.834 -4.33398 -30.501 0.999023zM167.999 150.002
c21.333 -4 42.168 0.666992 62.501 14s40.833 30 61.5 50c11.333 10.667 21.833 23.167 31.5 37.5s17 27.833 22 40.5s6.5 21.667 4.5 27c-2.66699 5.33301 -11.334 4.83301 -26.001 -1.5s-32.667 -17.5 -54 -33.5c-24 -18.667 -43.167 -36.167 -57.5 -52.5
s-25.5 -33.833 -33.5 -52.5z" />
    <glyph glyph-name="r" unicode="r" horiz-adv-x="360" 
d="M119 30c-6 4.66699 -11.6709 10.1719 -17.0039 16.5049s-7 16.166 -5 29.499c2 18.667 4.66699 35.167 8 49.5l12 49.5c1.33301 8 4.83301 21.667 10.5 41s12.834 40.333 21.501 63s17.334 44.167 26.001 64.5s16.334 35.5 23.001 45.5
c6.66699 6 16.167 8.83301 28.5 8.5s21.166 -3.16602 26.499 -8.49902c7.33301 -6 9.16602 -16.5 5.49902 -31.5s-13.167 -38.167 -28.5 -69.5c-5.33301 -11.333 -10.333 -21.5 -15 -30.5s-7.5 -15.667 -8.5 -20s0.5 -5.83301 4.5 -4.5c4 7.33301 11.333 15.833 22 25.5
s22 19.167 34 28.5s23.333 17.666 34 24.999s18 12 22 14c5.33301 3.33301 11.5 6.16602 18.5 8.49902s11.833 4.16602 14.5 5.49902c15.333 7.33301 31.833 10.166 49.5 8.49902s28.5 -7.5 32.5 -17.5c0.666992 -5.33301 2.83398 -9.33301 6.50098 -12l5.5 -4
c2.66699 0 4.16699 -1 4.5 -3l0.5 -3c0 -4.66699 -4.16699 -10.167 -12.5 -16.5s-17.833 -9.83301 -28.5 -10.5c-8.66699 -0.666992 -16.334 -2.33398 -23.001 -5.00098l-24 -10l-70 -40c-21.333 -12 -42.666 -29.667 -63.999 -53l-14.5 -16.5
c-5 -5.66699 -10.167 -12.834 -15.5 -21.501c-3.33301 -3.33301 -6.66602 -10.666 -9.99902 -21.999s-6.16602 -22.166 -8.49902 -32.499s-3.5 -16.5 -3.5 -18.5l-3 -9.5c-2 -6.33301 -5.33301 -12.5 -10 -18.5c-8 -10.667 -15.5 -16.834 -22.5 -18.501
s-15.833 2.83301 -26.5 13.5z" />
    <glyph glyph-name="s" unicode="s" horiz-adv-x="347" 
d="M156 -5c-19.333 8 -34.3262 16.8311 -44.9932 26.498s-16 18.167 -16 25.5c0.666992 4.66699 2.5 8.5 5.5 11.5s10 4.33301 21 4s28.5 -2.83301 52.5 -7.5c7.33301 0 15.5 0.5 24.5 1.5s17.333 2.33301 25 4s12.834 3.83398 15.501 6.50098
c3.33301 0.666992 4.33301 2.16699 3 4.5s-3.66602 4.83301 -6.99902 7.5c-2.66699 2.66699 -5.66699 4.66699 -9 6s-6.33301 2 -9 2c-0.666992 3.33301 -3.5 6.83301 -8.5 10.5s-10.833 7.16699 -17.5 10.5l-39 32.5c-11.333 9.66699 -15.666 16.5 -12.999 20.5v4.5v0.5
c-4.66699 0 -9.33398 6.5 -14.001 19.5s-7 24.833 -7 35.5c0 12 2.66699 24.5 8 37.5s12.333 25.667 21 38s17.667 23.166 27 32.499c12 11.333 25.833 23.166 41.5 35.499s32.167 23.333 49.5 33s34.666 16.834 51.999 21.501c10.667 2.66699 21.667 4 33 4s20 -2 26 -6
c6 1.33301 12.667 -0.666992 20 -6s14.333 -12 21 -20s11.667 -15.667 15 -23c0 -8 -0.333008 -17.5 -1 -28.5s-1.83398 -20.667 -3.50098 -29s-4.83398 -12.5 -9.50098 -12.5l-2.5 -0.5c-1.66699 -0.333008 -2.5 -2.16602 -2.5 -5.49902c0 -6.66699 -5 -14.334 -15 -23.001
c-12.667 -8.66699 -24.334 -15 -35.001 -19s-18.334 -3 -23.001 3l-9 7.5c-2.66699 2.33301 -5.33398 4.83301 -8.00098 7.5l-2.5 4c-1.66699 2.66699 -2.5 5.66699 -2.5 9c0 2.66699 1 5.16699 3 7.5l3 3.5c7.33301 6 13.5 12.667 18.5 20s9 14.5 12 21.5
s4.5 12.167 4.5 15.5c0 4 -0.833008 6.33301 -2.5 7s-5.16699 1 -10.5 1c-5.33301 -1.33301 -13.833 -4.83301 -25.5 -10.5s-23.5 -12.167 -35.5 -19.5s-21 -13.666 -27 -18.999c-2.66699 -4.66699 -4.5 -7.66699 -5.5 -9s-2.83301 -2 -5.5 -2c0 2.66699 -1.83301 2 -5.5 -2
s-8 -9.33301 -13 -16l-15 -21l-11.5 -17c-1.33301 -4.66699 -3 -9.66699 -5 -15s-2.66699 -10.666 -2 -15.999c-0.666992 -7.33301 1.5 -13.5 6.5 -18.5s13.167 -12.167 24.5 -21.5c23.333 -17.333 41.166 -31.166 53.499 -41.499s21.166 -18.666 26.499 -24.999
s8.66602 -12.5 9.99902 -18.5c11.333 -20.667 13.333 -37.834 6 -51.501s-20 -24.5 -38 -32.5c-6.66699 -3.33301 -18 -6.33301 -34 -9s-32.833 -3.83398 -50.5 -3.50098s-32.167 2.5 -43.5 6.5z" />
    <glyph glyph-name="t" unicode="t" horiz-adv-x="331" 
d="M174 2c-7.33301 1.33301 -15.1738 5.50293 -23.5068 12.5029s-15.833 15.167 -22.5 24.5s-11 17.333 -13 24c0 1.33301 -0.833008 3 -2.5 5l-2.5 3c-2.66699 2 -4.16699 10.833 -4.5 26.5s0.5 33.167 2.5 52.5s4.33301 34.666 7 45.999
c3.33301 10.667 8.33301 25.167 15 43.5s12.334 34.833 17.001 49.5l27 58l-40 11c-4.66699 1.33301 -8.5 4 -11.5 8s-4.5 7.33301 -4.5 10c0 5.33301 3 12.666 9 21.999s10.333 14 13 14c3.33301 -0.666992 9.5 -1 18.5 -1s17.833 0.333008 26.5 1s14 1.33398 16 2.00098
c2.66699 1.33301 5.33398 3.16602 8.00098 5.49902s4.66699 5.83301 6 10.5c3.33301 7.33301 6.33301 13.333 9 18l11 19l11.5 22c3 6 7.83301 14.333 14.5 25c3.33301 4.66699 7 10.334 11 17.001s9 12.334 15 17.001c6 5.33301 14.667 8.66602 26 9.99902
s22 -2.33398 32 -11.001c5.33301 -6.66699 8.33301 -12.5 9 -17.5s-2 -12.167 -8 -21.5c-5.33301 -11.333 -11.5 -21.833 -18.5 -31.5s-13.5 -20.167 -19.5 -31.5c-10.667 -14.667 -12.667 -23 -6 -25s25.334 -0.666992 56.001 4c19.333 3.33301 33.333 1.66602 42 -5.00098
s13.667 -15.667 15 -27c2 -16 0.333008 -25.667 -5 -29s-20.666 -5 -45.999 -5c-16 -2.66699 -29.667 -4.16699 -41 -4.5s-19.666 -0.5 -24.999 -0.5c-8.66699 -0.666992 -14.334 -1 -17.001 -1s-6.66699 -0.666992 -12 -2s-9.16602 -3.5 -11.499 -6.5
s-4.83301 -7.16699 -7.5 -12.5c-2.66699 -2.66699 -6.66699 -9.66699 -12 -21s-12 -23.666 -20 -36.999c-9.33301 -28 -17.333 -55.167 -24 -81.5s-12 -52.166 -16 -77.499c-2.66699 -14 -2.33398 -24 0.999023 -30s12 -9.66699 26 -11
c7.33301 -0.666992 18.333 -0.5 33 0.5s26.667 2.83301 36 5.5l23 10.5c8 3.66699 15.333 7.5 22 11.5l18 10.5l9 5.5c3.33301 5.33301 7.83301 5.33301 13.5 0s9.83398 -12 12.501 -20c0 -8 -1.66699 -17.167 -5 -27.5s-15.666 -21.5 -36.999 -33.5
c-30 -18.667 -59.167 -29.834 -87.5 -33.501s-51.166 -3.83398 -68.499 -0.500977z" />
    <glyph glyph-name="u" unicode="u" horiz-adv-x="370" 
d="M337 2c-6.66699 6.66699 -12.499 15.8389 -17.499 27.5059s-9.5 25.167 -13.5 40.5c-1.33301 5.33301 -1.83301 11.833 -1.5 19.5s0.166016 13.5 -0.500977 17.5c-2 -4.66699 -5.16699 -10.334 -9.5 -17.001s-8.5 -11.667 -12.5 -15
c-2.66699 -2.66699 -8.66699 -7.83398 -18 -15.501s-18.666 -13.834 -27.999 -18.501c-22 -14 -41 -20.833 -57 -20.5s-30.333 8.5 -43 24.5c-10.667 8.66699 -19 19.167 -25 31.5s-7 27.833 -3 46.5c1.33301 23.333 4.66602 46.166 9.99902 68.499s16.333 52.166 33 89.499
l32 63c7.33301 14.667 12 23.334 14 26.001c10 3.33301 21 3.16602 33 -0.500977s18.667 -10.167 20 -19.5c4 -6.66699 3.83301 -18.834 -0.5 -36.501s-12.5 -38.167 -24.5 -61.5c-9.33301 -22.667 -18 -44.834 -26 -66.501s-12.833 -40.167 -14.5 -55.5
s2.16602 -24.666 11.499 -27.999c6 -3.33301 15.5 -2.66602 28.5 2.00098s28 17.167 45 37.5s34.5 52.166 52.5 95.499c5.33301 13.333 9.33301 25.166 12 35.499s4.33398 21.833 5.00098 34.5c-1.33301 8 0.166992 16 4.5 24s10.5 14.333 18.5 19
c2.66699 3.33301 6.33398 6.5 11.001 9.5s7.66699 2.83301 9 -0.5l16 1c2.66699 0.666992 5.33398 -1.66602 8.00098 -6.99902s5.66699 -9.33301 9 -12c7.33301 -6 10.166 -19 8.49902 -39s-10.167 -48 -25.5 -84c-12.667 -27.333 -21.167 -48 -25.5 -62
s-6.83301 -27.667 -7.5 -41c0 -12 1.5 -22.5 4.5 -31.5s9.5 -17.833 19.5 -26.5c7.33301 -4.66699 11.5 -11.667 12.5 -21s1.16699 -18 0.5 -26c-1.33301 -6 -6 -10.5 -14 -13.5s-16.833 -4 -26.5 -3s-17.834 3.83301 -24.501 8.5z" />
    <glyph glyph-name="v" unicode="v" horiz-adv-x="331" 
d="M180 56c-4.66699 4 -10.6699 15.8311 -18.0029 35.498s-14.333 43 -21 70s-12 51.833 -16 74.5c-2.66699 13.333 -5.5 24.666 -8.5 33.999l-7.5 23c-3.33301 12 -3 23.833 1 35.5s10 19.834 18 24.501c3.33301 2 8.83301 3.5 16.5 4.5s12.834 1.16699 15.501 0.5
c8 -2.66699 15.333 -14.834 22 -36.501s12.667 -50.167 18 -85.5c2.66699 -20.667 5.33398 -36.667 8.00098 -48s4 -18.333 4 -21c2.66699 -5.33301 4.83398 -11.5 6.50098 -18.5s5.16699 -7.83301 10.5 -2.5c2.66699 2.66699 7.33398 7.83398 14.001 15.501
s14 16.834 22 27.501l33.5 46c8.33301 12 17.833 25 28.5 39c4.66699 6.66699 10.667 14 18 22s14.666 15.5 21.999 22.5s13.666 11.167 18.999 12.5c16 2.66699 25.5 -2.33301 28.5 -15s-2.16699 -28.334 -15.5 -47.001c-5.33301 -8 -9.5 -15.5 -12.5 -22.5
s-5.83301 -11.833 -8.5 -14.5c-5.33301 -10.667 -13.666 -24.167 -24.999 -40.5s-22.333 -31.333 -33 -45s-18 -22.5 -22 -26.5c-2.66699 -2.66699 -8.5 -7.66699 -17.5 -15s-17.5 -16.666 -25.5 -27.999c-16 -15.333 -30.5 -24.666 -43.5 -27.999s-23.5 -1 -31.5 7z" />
    <glyph glyph-name="w" unicode="w" horiz-adv-x="517" 
d="M172 35c-10 0 -19.667 6.99707 -29 20.9971s-16.5 31.667 -21.5 53s-6.83301 42.666 -5.5 63.999c0 21.333 1.16699 38.5 3.5 51.5s4.83301 25.833 7.5 38.5c2 4 3.16699 7.33301 3.5 10s1 7 2 13s3.16699 16 6.5 30c2.66699 11.333 5.5 20.666 8.5 27.999
s5.5 12.333 7.5 15c6.66699 8.66699 14.167 13.834 22.5 15.501s16.166 0.666992 23.499 -3s12 -9.5 14 -17.5c4 -3.33301 6.16699 -10.833 6.5 -22.5s-0.5 -23.667 -2.5 -36s-5 -21.166 -9 -26.499c-1.33301 -3.33301 -2.83301 -12 -4.5 -26l-5 -44
c-1.66699 -15.333 -3.5 -27.666 -5.5 -36.999c-2 -12 -1 -20.167 3 -24.5s11.167 -2.33301 21.5 6s24.5 25.166 42.5 50.499c13.333 20 23.333 35.833 30 47.5s12 22.5 16 32.5l13 34c3.33301 10.667 6.5 19.334 9.5 26.001s5.83301 11.334 8.5 14.001
c6 8 14.167 11.333 24.5 10s19.5 -4.66602 27.5 -9.99902c8 -8 12.667 -18.333 14 -31s-2 -27 -10 -43c-5.33301 -10.667 -10.5 -23.667 -15.5 -39s-9 -30.666 -12 -45.999s-4.5 -28.333 -4.5 -39c0 -13.333 1.83301 -21.166 5.5 -23.499s8.16699 -3.5 13.5 -3.5
c8 0 16.333 2.83301 25 8.5s20 15.834 34 30.501c6 6 13.333 15 22 27s17.167 24.5 25.5 37.5s15.333 24.667 21 35s8.5 16.833 8.5 19.5c0 4 3 9.66699 9 17l9.5 12.5c2.33301 3 6.83301 6.16699 13.5 9.5c5.33301 2.66699 10.833 3.16699 16.5 1.5
s10.834 -5.16699 15.501 -10.5c3.33301 -2.66699 5.66602 -8.33398 6.99902 -17.001s2 -17 2 -25c-2 -7.33301 -5 -17.333 -9 -30s-8.33301 -24.5 -13 -35.5s-8.66699 -18.5 -12 -22.5l-14 -14.5c-6.66699 -7 -12.667 -14.5 -18 -22.5c-16.667 -20 -28.667 -33 -36 -39
s-13.666 -11.667 -18.999 -17c-14 -14 -29.667 -25 -47 -33s-33.5 -12.333 -48.5 -13s-27.167 2.33301 -36.5 9c-20.667 10.667 -31 28.667 -31 54c0 5.33301 -0.833008 10.166 -2.5 14.499l-2.5 6.5c-2.66699 0 -6.16699 -0.666992 -10.5 -2s-8.83301 -6 -13.5 -14
c-6 -11.333 -16 -22.833 -30 -34.5s-28.167 -21.334 -42.5 -29.001s-25.5 -11.5 -33.5 -11.5z" />
    <glyph glyph-name="x" unicode="x" horiz-adv-x="343" 
d="M391 -7c-2.66699 0 -6.1709 0.333008 -10.5039 1s-7.83301 2.33398 -10.5 5.00098c-2.66699 0 -7.33398 1 -14.001 3s-12.667 4.33301 -18 7c-6.66699 2.66699 -15.667 8.16699 -27 16.5s-22.666 17.5 -33.999 27.5s-20.833 19.333 -28.5 28s-11.5 15 -11.5 19
c0 3.33301 -1.66699 5 -5 5l-3 3.5c-2 2.33301 -3 4.83301 -3 7.5c0 6.66699 -3.33301 10 -10 10l-14.5 -14l-34.5 -34c-18.667 -18.667 -32.5 -32.167 -41.5 -40.5s-16.167 -12.5 -21.5 -12.5s-12 2.33301 -20 7s-14.833 10.834 -20.5 18.501s-8.5 16.5 -8.5 26.5l20.5 23
c13.667 15.333 29.834 31 48.501 47l55 55l-11 38l-14.5 33.5c-5 11.667 -8.83301 21.5 -11.5 29.5c-8 11.333 -12.167 18.5 -12.5 21.5s2.16699 8.5 7.5 16.5v0v0c5.33301 5.33301 12.666 10.166 21.999 14.499s18 3.83301 26 -1.5c4 0 9.33301 -5.5 16 -16.5
s12.834 -23 18.501 -36s8.5 -22.167 8.5 -27.5c0 -10.667 2.83301 -15.834 8.5 -15.501s16.5 5.83301 32.5 16.5c8 7.33301 14.333 13.5 19 18.5l7 7.5c2 2 8 6.83301 18 14.5l31 23.5c10.667 8 17.667 13 21 15c5.33301 4 11.833 4.16699 19.5 0.5s14.334 -9 20.001 -16
s8.5 -14.167 8.5 -21.5c0 -8 -2.16699 -16 -6.5 -24s-13.166 -15.667 -26.499 -23c-12 -8.66699 -21.667 -16 -29 -22l-22.5 -19l-33.5 -29l-26 -21l16 -27c2.66699 -4.66699 6.5 -10.5 11.5 -17.5s9.83301 -11.833 14.5 -14.5c4 -5.33301 11.167 -12.333 21.5 -21
s20.5 -16.5 30.5 -23.5s15.667 -10.5 17 -10.5c2.66699 0 5.66699 -1 9 -3l12 -7c5.33301 -5.33301 8 -13 8 -23s-1.66699 -19 -5 -27s-7.66602 -12 -12.999 -12z" />
    <glyph glyph-name="y" unicode="y" horiz-adv-x="341" 
d="M84 -205c-21.333 -4.66699 -42.499 -5.5 -63.499 -2.5s-39 8.83301 -54 17.5s-23.833 18.334 -26.5 29.001c-2.66699 11.333 -0.833984 20.333 5.49902 27s13.833 10.667 22.5 12s14.667 0 18 -4c5.33301 -3.33301 14.166 -8 26.499 -14s27.166 -7.33301 44.499 -4
c15.333 3.33301 29.5 11.166 42.5 23.499s24.167 24.833 33.5 37.5c5.33301 8 14.333 22.333 27 43s25.834 43.5 39.501 68.5s25.167 48.167 34.5 69.5l7 19c2.66699 7.33301 6 13.333 10 18c4 8 7.5 15.5 10.5 22.5s4.83301 11.833 5.5 14.5
c0.666992 3.33301 3.66699 10 9 20s10.333 20 15 30l15 44c6.66699 19.333 13.334 35 20.001 47l19.5 37.5c5 9.66699 10.5 15.5 16.5 17.5v0v0c6 4.66699 11.167 7 15.5 7s10.166 -2 17.499 -6c8 -8 14 -15.833 18 -23.5s5.16699 -17 3.5 -28s-7.5 -25.833 -17.5 -44.5
c-5.33301 -16 -11.166 -30.5 -17.499 -43.5s-11.166 -21.5 -14.499 -25.5l-11.5 -26.5l-11.5 -26.5c-12 -26.667 -22.333 -48.334 -31 -65.001l-23 -46c-6.66699 -14 -13.667 -30.333 -21 -49l-44.5 -70.5c-14.333 -22.333 -29.5 -43.166 -45.5 -62.499
c-6.66699 -6 -15.834 -13.5 -27.501 -22.5s-23.5 -17.5 -35.5 -25.5s-22.667 -13 -32 -15zM212.001 26c-10 1.33301 -20.5029 7.66504 -31.5029 18.998s-20 23.5 -27 36.5s-9.83301 22.167 -8.5 27.5v8v3c-4 0 -7.16699 5.5 -9.5 16.5s-4.16602 25.167 -5.49902 42.5
s-1.83301 35.5 -1.5 54.5s1.16602 36.5 2.49902 52.5c2.66699 11.333 4 23.833 4 37.5s0.333008 24.5 1 32.5c-0.666992 10.667 1 18.834 5 24.501s7.33301 9.5 10 11.5v0v0c22.667 10 38.834 4.66699 48.501 -16s12.834 -55 9.50098 -103
c-1.33301 -26.667 -1.66602 -52.5 -0.999023 -77.5s3.5 -46.667 8.5 -65s13.167 -31.166 24.5 -38.499c4.66699 -2.66699 6.66699 -7.66699 6 -15s-3 -15 -7 -23s-8.66699 -14.833 -14 -20.5s-10 -8.16699 -14 -7.5z" />
    <glyph glyph-name="z" unicode="z" horiz-adv-x="315" 
d="M140 17c-25.333 -3.33301 -44.4951 -5.16895 -57.4951 -5.50195s-22.667 0.833984 -29 3.50098s-12.833 6.66699 -19.5 12c-6.66699 4.66699 -9.83398 13 -9.50098 25s10.833 28.667 31.5 50c12.667 15.333 25.667 29.833 39 43.5s25.333 24.834 36 33.501
c4.66699 4 9.66699 7.83301 15 11.5l26.5 18.5l57.5 39c12.667 10 22 17.167 28 21.5l15 11l14 10.5c-4.66699 0.666992 -14 1.66699 -28 3s-27.667 1.33301 -41 0c-18.667 0 -29.834 0.166992 -33.501 0.5s-8.16699 1.16602 -13.5 2.49902h-15
c-3.33301 0 -9.16602 2.16699 -17.499 6.5s-16 9.33301 -23 15s-10.833 10.834 -11.5 15.501l6 6l10 10l12.5 8c3 2 5.83301 1.66699 8.5 -1l23 1l47 2c38.667 -0.666992 67.167 -1.83398 85.5 -3.50098s32 -4.5 41 -8.5s17.833 -10 26.5 -18
c10.667 -10.667 16.667 -22.167 18 -34.5s-1.66699 -22.5 -9 -30.5c-2.66699 -2.66699 -5.16699 -5.5 -7.5 -8.5s-4.5 -4.5 -6.5 -4.5l-14 -9l-34 -22c-12.667 -8.66699 -25.167 -16.667 -37.5 -24s-19.833 -12.666 -22.5 -15.999
c-4.66699 -2.66699 -10.334 -6.16699 -17.001 -10.5s-11.334 -7.83301 -14.001 -10.5c-2 -2.66699 -6.5 -7.33398 -13.5 -14.001s-14.5 -12.667 -22.5 -18l-20 -18.5l-19 -18.5l-8 -8l16.5 2.5c11 1.66699 25.5 3.33398 43.5 5.00098s36.667 1.83398 56 0.500977
c31.333 0.666992 56.166 1.5 74.499 2.5s32.333 1.33301 42 1s17.167 -1.83301 22.5 -4.5c4.66699 -1.33301 8.33398 -5.33301 11.001 -12s4.5 -13.334 5.5 -20.001s0.833008 -11 -0.5 -13c-2.66699 0 -13 -0.833008 -31 -2.5s-38.667 -3.16699 -62 -4.5
c-30.667 -2.66699 -60.334 -6 -89.001 -10s-57.334 -7.66699 -86.001 -11z" />
    <glyph glyph-name="braceleft" unicode="{" horiz-adv-x="330" 
d="M176 -137c-6 9.33301 -9.00098 12.0078 -9.00098 8.00781l-9 8c-6 5.33301 -10.667 10.333 -14 15c-5.33301 7.33301 -8.5 14.5 -9.5 21.5s-1.16699 15.833 -0.5 26.5v19v9c3.33301 3.33301 5.33301 7.33301 6 12l2 14c1.33301 5.33301 4.83301 16.333 10.5 33l18.5 53.5
c6.66699 19 12.667 33.833 18 44.5c7.33301 14 13.333 28.167 18 42.5s7 24.833 7 31.5c0 10.667 -4.5 19.667 -13.5 27s-21.167 12.333 -36.5 15c-20 0 -26.667 9.66699 -20 29c2.66699 8 8.16699 14.333 16.5 19s16.833 5.66699 25.5 3c10 0 21.5 5 34.5 15
s25.333 23.333 37 40s20.5 35 26.5 55c8 21.333 14 42.166 18 62.499s7.33301 46.833 10 79.5c2 26 5.83301 48.167 11.5 66.5s13.667 35.166 24 50.499s23.5 30.666 39.5 45.999c9.33301 12 19.833 20.667 31.5 26s21.167 10 28.5 14c13.333 5.33301 27.5 8 42.5 8
s24.833 -1.66699 29.5 -5c3.33301 -1.33301 6.83301 -5.83301 10.5 -13.5s6.66699 -15.334 9 -23.001s2.5 -12.167 0.5 -13.5c-3.33301 0 -8.5 -0.833008 -15.5 -2.5s-15.5 -2.5 -25.5 -2.5c-12.667 -2.66699 -23.667 -7 -33 -13s-20.666 -14.667 -33.999 -26
c-10.667 -14 -18.167 -24.5 -22.5 -31.5s-7.16602 -16.833 -8.49902 -29.5c-4.66699 -12 -8 -21.667 -10 -29s-3.66699 -16 -5 -26s-3 -24.667 -5 -44c-2 -20 -3.66699 -35.667 -5 -47s-3.33301 -22 -6 -32s-7.33398 -22.667 -14.001 -38
c-8.66699 -24.667 -18.5 -46 -29.5 -64s-24.167 -33.667 -39.5 -47c-11.333 -6.66699 -17.5 -11.334 -18.5 -14.001s1.5 -7.66699 7.5 -15c0 -2.66699 1.66699 -7.16699 5 -13.5s5 -12.833 5 -19.5c4.66699 -10.667 5 -23.834 1 -39.501s-14 -41.167 -30 -76.5
c-4.66699 -10 -9 -20.333 -13 -31s-6 -18.667 -6 -24c-3.33301 -4.66699 -6.66602 -12.667 -9.99902 -24l-9 -31c-2.66699 -14 -5 -24.833 -7 -32.5s-3 -12.5 -3 -14.5c0 -12.667 15 -16.667 45 -12c11.333 3.33301 19 3.83301 23 1.5s8.33301 -6.5 13 -12.5
c7.33301 -6.66699 9.5 -14.334 6.5 -23.001s-11.833 -15.334 -26.5 -20.001c-10 -5.33301 -21.333 -9 -34 -11s-24.334 -2.5 -35.001 -1.5s-18.667 3.16699 -24 6.5z" />
    <glyph glyph-name="bar" unicode="|" horiz-adv-x="330" 
d="M150 -145c-12.667 -3.33301 -23.6631 -0.333008 -32.9961 9s-15.5 23.5 -18.5 42.5s-1.83301 40.833 3.5 65.5c3.33301 8 6 15.833 8 23.5s3 13.834 3 18.501c1.33301 5.33301 4.66602 17.166 9.99902 35.499s11.833 39.5 19.5 63.5l23 71.5l20 60
c5.66699 16.333 9.16699 25.5 10.5 27.5c2.66699 0 5 2.33301 7 7s3 9.33398 3 14.001c0 5.33301 1.16699 11.333 3.5 18s4.83301 11.334 7.5 14.001c0 3.33301 0.833008 7.16602 2.5 11.499s2.5 7.83301 2.5 10.5s0.833008 5.33398 2.5 8.00098s2.5 5.33398 2.5 8.00098
c4 7.33301 10.167 21.166 18.5 41.499l29 72l33.5 86l32 84.5c10 26.667 18 48.667 24 66s9 27.333 9 30c0 5.33301 3 10.333 9 15s11.667 7 17 7c2 2 4.5 3.33301 7.5 4s5.83301 1 8.5 1l4 -4l12 -12c5.33301 -4.66699 10.166 -11 14.499 -19s6.5 -16 6.5 -24
c0 -8.66699 -1 -16.334 -3 -23.001s-6 -16.334 -12 -29.001l-28 -59c-2 -5.33301 -6 -14.666 -12 -27.999l-19.5 -45l-21 -48.5c-7 -15.667 -12.667 -28.834 -17 -39.501s-6.5 -16.667 -6.5 -18c0 -2.66699 -1.16699 -6.66699 -3.5 -12s-4.83301 -12 -7.5 -20
c-2.66699 -5.33301 -6.33398 -13.166 -11.001 -23.499l-14.5 -33l-12.5 -30c-3.33301 -8.33301 -5 -13.166 -5 -14.499c0 -2.66699 -0.166992 -5.33398 -0.5 -8.00098s-1.83301 -5.33398 -4.5 -8.00098c-2.66699 0 -4.16699 -1.83301 -4.5 -5.5l-0.5 -5.5
c0 -6.66699 -5.33301 -24.334 -16 -53.001c-4.66699 -14.667 -10.334 -33.5 -17.001 -56.5l-21.5 -74l-21.5 -76.5c-6.66699 -24.667 -12.167 -46.167 -16.5 -64.5s-6.5 -31.166 -6.5 -38.499c0 -16 -2 -26.5 -6 -31.5s-8.66699 -8.83301 -14 -11.5z" />
    <glyph glyph-name="braceright" unicode="}" horiz-adv-x="330" 
d="M141 -121c-18 -0.666992 -33.8369 2.99707 -47.5039 10.9971s-20.5 15.667 -20.5 23c0 3.33301 1 6 3 8l3 3c3.33301 -2.66699 6.16602 -4 8.49902 -4s3.5 1.33301 3.5 4l10 5.5c6.66699 3.66699 15.667 7.83398 27 12.501c19.333 3.33301 33.333 7 42 11
s14.834 10.167 18.501 18.5s7.16699 20.833 10.5 37.5l5.5 22.5c1.66699 7 2.5 11.833 2.5 14.5c0 2 0.5 12.833 1.5 32.5s0.833008 42.5 -0.5 68.5c-1.33301 29.333 -2.16602 50.833 -2.49902 64.5s0.333984 23.667 2.00098 30s4.16699 12.833 7.5 19.5
c5.33301 5.33301 8.5 10.5 9.5 15.5s0.833008 10.833 -0.5 17.5c-5.33301 13.333 -7.33301 25.5 -6 36.5s4.66602 18.5 9.99902 22.5l27 30c6.66699 7.33301 12.667 14.833 18 22.5s11 17.5 17 29.5c17.333 27.333 32.333 54.5 45 81.5s21.334 50.5 26.001 70.5v7v3
c2.66699 6 3.33398 12.667 2.00098 20s-5.66602 16 -12.999 26c-5.33301 10.667 -12 18.667 -20 24s-20.667 10.333 -38 15c-10.667 2 -16.5 7.5 -17.5 16.5s1.5 16.833 7.5 23.5c2.66699 5.33301 7.83398 9.5 15.501 12.5s15.5 4.5 23.5 4.5s13.333 -1.66699 16 -5
c5.33301 -5.33301 10.333 -8 15 -8c2 0 7.5 -3.66699 16.5 -11s18.333 -15.666 28 -24.999s16.167 -17.333 19.5 -24c2.66699 -2 5.16699 -8.33301 7.5 -19s3.83301 -20 4.5 -28c2 -8 3.16699 -14.833 3.5 -20.5s-0.333984 -12 -2.00098 -19
s-4.83398 -17.167 -9.50098 -30.5c-9.33301 -30.667 -17.833 -56.167 -25.5 -76.5s-13.167 -32.166 -16.5 -35.499c-2.66699 -2 -5.16699 -3.33301 -7.5 -4s-3.5 -2.33398 -3.5 -5.00098s-3 -9.5 -9 -20.5s-12.833 -22.333 -20.5 -34s-14.5 -20.5 -20.5 -26.5
c-2.66699 -2.66699 -5.16699 -6.5 -7.5 -11.5l-3.5 -7.5l-1 -0.5c-0.666992 -0.333008 -2.66699 -1.5 -6 -3.5c-4.66699 -2.66699 -7 -6.5 -7 -11.5s2.33301 -12.833 7 -23.5c1.33301 -6 3.33301 -11.333 6 -16s5.33398 -9.66699 8.00098 -15
c0 -9.33301 -1.66699 -14 -5 -14c-8.66699 -4.66699 -15.167 -10.834 -19.5 -18.501s-6.83301 -19 -7.5 -34s-0.666992 -36.5 0 -64.5c0.666992 -14 0.666992 -29 0 -45s-1.5 -30.167 -2.5 -42.5s-2.5 -20.5 -4.5 -24.5c-4.66699 -20 -8.83398 -36.667 -12.501 -50
s-7.16699 -20 -10.5 -20l-2 -0.5c-1.33301 -0.333008 -1.66602 -1.5 -0.999023 -3.5c0 -9.33301 -5.5 -18.666 -16.5 -27.999s-24.667 -17.166 -41 -23.499s-32.833 -9.83301 -49.5 -10.5z" />
    <glyph glyph-name="asciitilde" unicode="~" horiz-adv-x="446" 
d="M360 192c-16 0 -30.1699 2.50098 -42.5029 7.50098s-25.166 11.833 -38.499 20.5c-10 6.66699 -20.167 14.167 -30.5 22.5s-20.833 13.166 -31.5 14.499c-10 1.33301 -18.167 -0.833984 -24.5 -6.50098s-12.666 -11.667 -18.999 -18s-13.833 -10.166 -22.5 -11.499
c-0.666992 -3.33301 -3 -7.33301 -7 -12s-7.33301 -6.33398 -10 -5.00098c-11.333 0.666992 -20 4.83398 -26 12.501s-9 14.167 -9 19.5c0 4 3 10.667 9 20s15.833 19.666 29.5 30.999s31.167 21.333 52.5 30c18 2.66699 34 2.66699 48 0s26 -8.33398 36 -17.001
c15.333 -12 29.666 -21.667 42.999 -29s26 -10.333 38 -9c6.66699 0.666992 15 2.83398 25 6.50098s18.667 7.16699 26 10.5l26 10c2.66699 1.33301 5.33398 2.5 8.00098 3.5s5.33398 1.83301 8.00098 2.5c5.33301 2 11.333 3.33301 18 4c8 0.666992 14.667 -2 20 -8
s7.66602 -13 6.99902 -21c0 -3.33301 -1 -7.5 -3 -12.5s-6.33301 -11.167 -13 -18.5l-21 -11c-14 -5.33301 -26.667 -10.666 -38 -15.999s-20.666 -9.33301 -27.999 -12c-13.333 -5.33301 -23.333 -8 -30 -8z" />
    <glyph glyph-name="uni00A0" unicode="&#xa0;" horiz-adv-x="242" 
 />
    </font>
</defs>
</svg>
